<svg xmlns="http://www.w3.org/2000/svg" width="74" height="56" viewBox="0 0 74 56">
    <path fill="#748592" fill-rule="nonzero" d="M58.695 32.33c3.68 4.357 8.772 10.331 15.28 17.924v1.48c0 .818 0 3.363-1.477 3.363-1.476 0-1.479-2.545-1.479-3.363h-2.955c0 .818 0 3.363-1.479 3.363s-1.479-2.545-1.479-3.363h-2.955c0 .818 0 3.363-1.479 3.363s-1.477-2.545-1.477-3.363h-2.957c0 .818 0 3.363-1.477 3.363-1.476 0-1.478-2.545-1.478-3.363h-2.956c0 .818 0 3.363-1.479 3.363-1.478 0-1.478-2.545-1.478-3.363h-2.956c0 .818 0 3.363-1.478 3.363-1.48 0-1.477-2.545-1.477-3.363H38.5c0 .818-.057 3.363-1.476 3.363-1.42 0-1.479-2.545-1.479-3.363h-2.955c0 .818 0 3.363-1.479 3.363s-1.479-2.545-1.479-3.363h-2.955c0 .818 0 3.363-1.479 3.363s-1.476-2.545-1.476-3.363h-2.958c0 .818.124 3.363-1.477 3.363-1.6 0-1.478-2.545-1.478-3.363v-1.48l-13.4-18.58c-1.007-.901-1.898-2.278-2.617-4.08a20.136 20.136 0 0 1-.463-1.29C.725 23.719.143 20.502.143 17.041c0-2.751.232-5.29.695-7.617.463-2.327 1.158-4.442 2.085-6.345C4.165 1.093 5.71.025 7.396.025h49.242c2.23.018 4.207 1.906 5.57 5.319 1.195 2.995 1.852 6.946 1.852 11.126 0 4.178-.657 8.129-1.852 11.125-.926 2.318-2.135 3.932-3.513 4.735zm-49.335.584L21.27 48.77h34.968H21.27l47.41.397-13.834-16.254H9.36zm-.909-17.501c.581.584.581 1.53 0 2.113a1.488 1.488 0 0 1-2.11 0 1.499 1.499 0 0 1 0-2.113 1.488 1.488 0 0 1 2.11 0zM4.563 26.484c.824 2.063 1.916 3.403 2.798 3.438.341-.054 4.509-.99 4.509-13.452S7.702 3.07 7.36 3.016c-.882.035-1.974 1.375-2.798 3.438-1.057 2.652-1.64 6.208-1.64 10.016 0 3.806.583 7.365 1.64 10.014zm52.12 3.452a.202.202 0 0 1 .055 0h-.055zm-16.48-.059a.24.24 0 0 1 .06 0h-.06zM56.636 3.075l-44.679-.06c1.92 2.81 2.894 7.33 2.894 13.455 0 6.123-.974 10.643-2.894 13.455l44.679.058c.249-.035 4.517-.84 4.517-13.454 0-12.616-4.268-13.42-4.517-13.454z"/>
</svg>
