<svg xmlns="http://www.w3.org/2000/svg" width="37" height="81" viewBox="0 0 37 81">
  <path fill="#748592" d="M2413.20656,179.553971 C2413.05145,179.247645 2412.89634,179.094482 2412.74123,178.788156 C2410.56967,176.950201 2405.91633,176.33755 2403.12432,176.33755 C2402.96921,176.33755 2402.96921,176.33755 2402.8141,176.33755 L2402.50388,176.33755 L2402.03854,176.33755 C2401.88343,176.33755 2401.88343,176.33755 2401.72832,176.33755 C2399.09142,176.490713 2394.43808,176.950201 2392.11141,178.788156 C2391.9563,178.941319 2391.64608,179.247645 2391.64608,179.553971 L2384.04562,204.366363 C2383.89051,204.825852 2384.04562,205.285341 2384.35584,205.74483 C2384.66607,206.204318 2385.1314,206.357481 2385.59674,206.357481 L2392.11141,206.357481 L2392.11141,213.556138 L2389.62963,216.619397 L2393.04208,219.988981 L2396.45453,216.619397 L2393.78392,213.556138 L2393.78392,206.357481 L2401.72832,206.357481 L2401.72832,246.179839 C2395.83409,246.486165 2389.93985,248.32412 2387.61318,251.081053 C2387.45807,251.387379 2387.30296,251.693704 2387.30296,252.00003 L2387.30296,254.756963 C2387.30296,255.67594 2387.92341,256.288592 2388.85407,256.288592 L2416.30879,256.288592 C2417.23946,256.288592 2417.8599,255.67594 2417.8599,254.756963 L2417.8599,252.00003 C2417.8599,251.693704 2417.70479,251.234216 2417.54968,251.081053 C2415.22301,248.32412 2409.24783,246.333002 2403.35359,246.179839 L2403.35359,206.357481 L2419.41101,206.357481 C2419.87635,206.357481 2420.34168,206.204318 2420.65191,205.74483 C2420.96213,205.285341 2420.96213,204.825852 2420.96213,204.366363 L2413.20656,179.553971 Z M2414.60256,252.612682 L2414.60256,253.225334 L2390.40519,253.225334 L2390.40519,252.612682 C2392.26652,250.774727 2396.60964,249.089935 2402.50388,249.089935 C2407.62255,249.089935 2412.58611,250.468401 2414.60256,252.612682 Z M2387.76829,203.294223 L2394.5932,180.932437 C2395.9892,180.166623 2398.7812,179.553971 2402.19365,179.400808 L2402.34876,179.400808 L2402.50388,179.400808 L2402.65899,179.400808 L2402.8141,179.400808 C2406.22655,179.553971 2409.01855,180.166623 2410.41455,180.932437 L2417.23946,203.294223 L2387.76829,203.294223 Z" transform="translate(-2384.001 -176)"/>
</svg>
