<svg xmlns="http://www.w3.org/2000/svg" width="50" height="44" viewBox="0 0 50 44">
  <path fill="#748592" fill-rule="evenodd" d="M1510.35542,280.917474 L1510.35542,281.035532 C1511.08728,281.405448 1511.3671,281.927686 1511.19487,282.602247 L1505.41934,285.851963 L1505.41934,287.950595 L1511.9027,284.321197 C1512.20708,284.376611 1512.57998,284.404318 1513.02141,284.404318 C1513.30657,284.692594 1513.40872,285.073377 1513.32785,285.546667 L1504.80075,290.318646 L1498.49165,287.337461 L1494.24365,290.711538 L1490.57044,283.59452 L1483.87774,280.432071 L1483.79515,274.315787 L1489.9285,270.886028 C1489.04431,272.10647 1488.45233,273.045001 1488.15256,273.701622 L1485.80674,274.980669 L1487.99215,276.01507 C1488.14237,276.653696 1488.42062,277.29494 1488.78566,277.848461 C1489.50355,278.937025 1491.22831,278.329189 1492.70467,278.245612 L1502.91176,283.076856 L1503.57459,283.300208 L1503.50329,283.356842 L1504.80698,283.973907 L1510.35542,280.917474 Z M1514.79875,273.850986 C1514.87137,273.996377 1514.94542,274.145369 1515.02089,274.29796 C1515.20442,274.669006 1515.31214,275.001738 1515.34406,275.296157 L1497.68453,275.41956 C1496.83478,275.428449 1495.98929,275.633025 1495.23094,276.021405 L1492.30061,277.499855 C1492.00126,277.649721 1491.70044,277.741259 1491.40474,277.775362 C1490.60705,277.87421 1489.82889,277.609712 1489.26739,277.048209 C1488.70588,276.486705 1488.43952,275.706677 1488.53837,274.908986 C1488.57247,274.613284 1488.66401,274.312467 1488.81387,274.013116 L1490.29232,271.082793 C1490.67977,270.323503 1490.88528,269.478944 1490.89323,268.628268 L1490.97006,257.601659 C1490.97515,256.75759 1490.78075,255.913063 1490.4079,255.155437 L1488.9572,252.220617 C1488.77632,251.855878 1488.68511,251.45192 1488.69076,251.05574 C1488.69604,250.316115 1489.01916,249.604331 1489.56843,249.111116 C1490.12529,248.610319 1490.86096,248.367948 1491.60095,248.442647 C1491.91499,248.476161 1492.22016,248.565255 1492.50422,248.712839 L1495.41468,250.148655 C1496.16291,250.519694 1497.00744,250.714088 1497.8609,250.710819 L1500.27269,250.692662 C1500.67167,250.689814 1500.99587,251.01401 1500.99209,251.412059 C1500.99353,251.604943 1500.91884,251.786139 1500.77763,251.927349 C1500.63737,252.06761 1500.45618,252.142298 1500.26234,252.1418 L1497.85151,252.159009 C1496.77875,252.168548 1495.70688,251.923084 1494.75896,251.449025 L1491.8485,250.013208 C1491.69752,249.941833 1491.56609,249.899487 1491.43725,249.890057 C1491.10253,249.852926 1490.78187,249.956838 1490.52713,250.183543 C1490.2856,250.406391 1490.14409,250.721678 1490.13895,251.046343 C1490.13957,251.223237 1490.18251,251.402652 1490.25944,251.56677 L1491.70827,254.499721 C1492.18602,255.457022 1492.43055,256.52796 1492.4192,257.591315 L1492.34237,268.617924 C1492.33475,269.685016 1492.07207,270.762398 1491.59003,271.722785 L1490.10591,274.656913 C1490.03816,274.788189 1489.992,274.927779 1489.97598,275.06339 C1489.93675,275.418409 1490.05662,275.761941 1490.30327,276.008591 C1490.55179,276.25711 1490.89532,276.376982 1491.25034,276.33775 C1491.38501,276.320793 1491.52554,276.275565 1491.65681,276.207821 L1494.59094,274.723698 C1495.55133,274.241662 1496.62871,273.978974 1497.6958,273.971357 L1514.79875,273.850986 Z M1522.33235,266.88663 C1522.42647,266.841709 1522.53137,266.816406 1522.64161,266.816139 C1522.75187,266.816402 1522.85704,266.841676 1522.9513,266.88663 L1522.33235,266.88663 Z M1500.02034,286.12326 L1503.6181,287.811946 L1503.61966,285.626659 L1501.74516,284.753281 L1500.02034,286.12326 Z M1499.9687,283.92558 L1491.17085,279.826435 L1494.91015,288.016509 L1499.9687,283.92558 Z M1487.81985,278.265117 L1485.81921,277.332965 L1485.82077,279.458382 L1489.27171,281.078155 L1487.81985,278.265117 Z M1501.66623,251.260705 C1501.66746,251.065578 1501.74614,250.884365 1501.88859,250.741909 C1502.03105,250.599452 1502.21323,250.519816 1502.40739,250.519546 L1516.54675,250.2939 C1517.40319,250.27828 1518.25525,250.063836 1519.02213,249.667964 L1521.98534,248.151496 C1522.2871,247.997015 1522.59262,247.904037 1522.9039,247.864952 C1523.6498,247.773441 1524.39153,248.001175 1524.93684,248.488726 L1525.03751,248.589401 C1525.51479,249.066677 1525.78455,249.727231 1525.77337,250.424489 C1525.76495,250.831885 1525.66657,251.237881 1525.47978,251.605515 L1523.94963,254.595465 C1523.55282,255.361413 1523.33931,256.2144 1523.32276,257.069913 L1523.19623,264.965225 C1523.19596,265.159388 1523.11915,265.342466 1522.97573,265.485885 C1522.83809,265.623529 1522.65405,265.7013 1522.45603,265.705421 C1522.05435,265.711858 1521.73182,265.389324 1521.73826,264.987643 L1521.86475,257.094225 C1521.88197,256.019917 1522.1551,254.933931 1522.64992,253.961835 L1524.18004,250.97378 C1524.2622,250.811453 1524.30963,250.629794 1524.31257,250.446005 C1524.3165,250.141918 1524.19817,249.84263 1523.9819,249.626365 C1523.96792,249.612382 1523.9558,249.600264 1523.93701,249.591094 C1523.68962,249.366803 1523.37481,249.271453 1523.03504,249.314783 C1522.90888,249.327223 1522.76316,249.377861 1522.618,249.452168 L1519.65576,250.967674 C1518.68366,251.462494 1517.59767,251.73562 1516.52337,251.752837 L1502.38587,251.980347 C1502.18503,251.983566 1502.0064,251.901188 1501.87496,251.769751 C1501.74446,251.639245 1501.66208,251.460613 1501.66623,251.260705 Z M1513.57203,257.697433 C1514.23853,256.349919 1514.23853,255.676162 1514.90503,255.676162 C1515.57152,255.676162 1515.57152,256.349919 1514.90503,258.37119 C1514.23853,260.392462 1511.57255,266.456277 1504.90759,267.803792 C1502.22274,268.143055 1501.80899,268.145438 1501.57511,267.803792 C1501.34451,267.466947 1501.92486,266.790772 1504.24109,266.456277 C1511.57255,265.108763 1512.90554,259.044948 1513.57203,257.697433 Z M1508.28571,259.489149 C1509.52941,258.659045 1509.86266,258.075555 1510.43987,258.412424 C1511.01706,258.749312 1510.64017,259.752817 1509.10687,260.746397 C1507.57357,261.739977 1505.57408,261.739977 1503.78131,261.167061 C1501.28836,260.10382 1500.92887,259.89676 1500.8953,259.482668 C1500.8622,259.074395 1501.69925,258.78215 1503.87061,259.6632 C1506.24058,260.392462 1507.04201,260.319252 1508.28571,259.489149 Z M1530.4622,277.348836 C1532.05657,277.348836 1533.35378,278.634569 1533.35378,280.214823 C1533.35378,281.795078 1532.05657,283.080811 1530.4622,283.080811 L1529.08314,283.080811 L1529.08314,284.583559 C1529.63487,285.173636 1529.97286,285.962644 1529.97286,286.82864 C1529.97286,288.65209 1528.47616,290.135549 1526.63643,290.135549 L1517.73927,290.135549 C1515.89954,290.135549 1514.40284,288.65209 1514.40284,286.82864 C1514.40284,285.962644 1514.74082,285.173636 1515.29255,284.583559 L1515.29255,283.080811 L1513.91349,283.080811 C1512.31913,283.080811 1511.02192,281.795078 1511.02192,280.214823 C1511.02192,278.634569 1512.31913,277.348836 1513.91349,277.348836 L1516.74546,277.348836 C1516.24535,276.460449 1515.95984,275.438063 1515.95984,274.350573 C1515.95984,273.831285 1516.02466,273.319058 1516.15273,272.821472 C1515.35355,272.298223 1514.84769,271.398468 1514.84769,270.426375 C1514.84769,268.84612 1516.14491,267.560387 1517.73927,267.560387 C1518.60883,267.560387 1519.41374,267.94206 1519.95626,268.585873 C1520.66595,268.314776 1521.41404,268.177677 1522.18785,268.177677 C1522.96166,268.177677 1523.70975,268.314776 1524.41944,268.585873 C1524.96195,267.94206 1525.76687,267.560387 1526.63643,267.560387 C1528.23079,267.560387 1529.528,268.84612 1529.528,270.426375 C1529.528,271.398468 1529.02215,272.298223 1528.22297,272.821472 C1528.35104,273.319058 1528.41586,273.831285 1528.41586,274.350573 C1528.41586,275.438063 1528.13035,276.460449 1527.63023,277.348836 L1530.4622,277.348836 Z M1516.18227,270.426375 C1516.18227,271.06416 1516.58681,271.644419 1517.18876,271.870047 C1517.52935,271.997845 1517.70382,272.372456 1517.58079,272.712103 C1517.39068,273.236902 1517.29441,273.788226 1517.29441,274.350573 C1517.29441,276.800613 1519.13692,278.831778 1521.52056,279.155407 L1521.52056,277.669365 L1520.99977,277.411185 C1520.67012,277.247907 1520.53649,276.850561 1520.7014,276.523831 C1520.86613,276.197274 1521.26703,276.064826 1521.5965,276.228104 L1522.18785,276.521248 L1522.7792,276.228277 C1523.10884,276.064826 1523.50956,276.197274 1523.6743,276.524004 C1523.83921,276.850733 1523.70558,277.247907 1523.37593,277.411357 L1522.85514,277.669365 L1522.85514,279.155407 C1525.23877,278.831778 1527.08128,276.800613 1527.08128,274.350573 C1527.08128,273.788226 1526.98501,273.236902 1526.79491,272.712103 C1526.67188,272.372456 1526.84634,271.997845 1527.18676,271.870047 C1527.78889,271.644419 1528.19343,271.06416 1528.19343,270.426375 C1528.19343,269.575363 1527.49504,268.883151 1526.63643,268.883151 C1526.05272,268.883151 1525.52272,269.202991 1525.25337,269.717801 C1525.08585,270.038157 1524.68983,270.1663 1524.36383,270.005433 C1523.6842,269.670436 1522.9521,269.50044 1522.18785,269.50044 C1521.4236,269.50044 1520.69149,269.670436 1520.01187,270.005433 C1519.68587,270.166128 1519.28984,270.038157 1519.12233,269.717801 C1518.85298,269.202991 1518.32297,268.883151 1517.73927,268.883151 C1516.88066,268.883151 1516.18227,269.575363 1516.18227,270.426375 Z M1515.73741,286.82864 C1515.73741,287.922676 1516.63547,288.812785 1517.73927,288.812785 C1518.84307,288.812785 1519.74113,287.922676 1519.74113,286.82864 C1519.74113,285.734605 1518.84307,284.844495 1517.73927,284.844495 C1516.63547,284.844495 1515.73741,285.734605 1515.73741,286.82864 Z M1526.63643,288.812785 C1527.74023,288.812785 1528.63829,287.922676 1528.63829,286.82864 C1528.63829,285.734605 1527.74023,284.844495 1526.63643,284.844495 C1525.53262,284.844495 1524.63457,285.734605 1524.63457,286.82864 C1524.63457,287.922676 1525.53262,288.812785 1526.63643,288.812785 Z M1530.4622,281.758047 C1531.32081,281.758047 1532.01921,281.065836 1532.01921,280.214823 C1532.01921,279.363811 1531.32081,278.6716 1530.4622,278.6716 L1526.63087,278.6716 C1525.49995,279.813689 1523.9261,280.523468 1522.18785,280.523468 C1520.4496,280.523468 1518.87574,279.813689 1517.74483,278.6716 L1513.91349,278.6716 C1513.05488,278.6716 1512.35649,279.363811 1512.35649,280.214823 C1512.35649,281.065836 1513.05488,281.758047 1513.91349,281.758047 L1515.95984,281.758047 C1516.32841,281.758047 1516.62713,282.054119 1516.62713,282.419429 L1516.62713,283.711362 C1516.97519,283.588903 1517.34932,283.521732 1517.73927,283.521732 C1519.579,283.521732 1521.0757,285.00519 1521.0757,286.82864 C1521.0757,287.572522 1520.82651,288.259739 1520.40668,288.812785 L1523.96902,288.812785 C1523.54918,288.259739 1523.29999,287.572522 1523.29999,286.82864 C1523.29999,285.00519 1524.7967,283.521732 1526.63643,283.521732 C1527.02637,283.521732 1527.4005,283.588903 1527.74857,283.711362 L1527.74857,282.419429 C1527.74857,282.054119 1528.04729,281.758047 1528.41586,281.758047 L1530.4622,281.758047 Z M1525.47195,274.864116 C1525.47195,275.230859 1525.17792,275.528091 1524.81513,275.528091 C1524.45234,275.528091 1524.15831,275.230859 1524.15831,274.864116 C1524.15831,274.497373 1524.45234,274.200141 1524.81513,274.200141 C1525.17792,274.200141 1525.47195,274.497373 1525.47195,274.864116 Z M1520.21739,274.864116 C1520.21739,275.230859 1519.92336,275.528091 1519.56057,275.528091 C1519.19778,275.528091 1518.90375,275.230859 1518.90375,274.864116 C1518.90375,274.497373 1519.19778,274.200141 1519.56057,274.200141 C1519.92336,274.200141 1520.21739,274.497373 1520.21739,274.864116 Z" transform="translate(-1483.66 -247.33)"/>
</svg>
