<svg xmlns="http://www.w3.org/2000/svg" width="32" height="46" viewBox="0 0 32 46">
  <path fill="#748592" d="M947.977585,242.499366 C948.706838,242.499366 949.297873,243.096625 949.297873,243.833557 L949.297873,286.705535 C949.297873,287.442467 948.706838,288.039725 947.977585,288.039725 C947.248333,288.039725 946.657298,287.442467 946.657298,286.705535 L946.657298,285.371345 L942.256338,285.371345 L942.256338,286.705535 C942.256338,287.442467 941.665303,288.039725 940.936051,288.039725 C940.206798,288.039725 939.615763,287.442467 939.615763,286.705535 L939.615763,285.371345 L935.214804,285.371345 L935.214804,286.705535 C935.214804,287.442467 934.623769,288.039725 933.894516,288.039725 C933.165264,288.039725 932.574229,287.442467 932.574229,286.705535 L932.574229,285.371345 L928.312175,285.371345 L928.312175,286.705535 C928.312175,287.442467 927.72114,288.039725 926.991887,288.039725 C926.262634,288.039725 925.671599,287.442467 925.671599,286.705535 L925.671599,285.371345 L921.131735,285.371345 L921.131735,286.705535 C921.131735,287.442467 920.5407,288.039725 919.811447,288.039725 C919.082195,288.039725 918.49116,287.442467 918.49116,286.705535 L918.49116,243.833557 C918.49116,243.096625 919.082195,242.499366 919.811447,242.499366 C920.5407,242.499366 921.131735,243.096625 921.131735,243.833557 L921.131735,245.167747 L925.671599,245.167747 L925.671599,243.833557 C925.671599,243.096625 926.262634,242.499366 926.991887,242.499366 C927.72114,242.499366 928.312175,243.096625 928.312175,243.833557 L928.312175,245.167747 L932.574229,245.167747 L932.574229,243.833557 C932.574229,243.096625 933.165264,242.499366 933.894516,242.499366 C934.623769,242.499366 935.214804,243.096625 935.214804,243.833557 L935.214804,245.167747 L939.615763,245.167747 L939.615763,243.833557 C939.615763,243.096625 940.206798,242.499366 940.936051,242.499366 C941.665303,242.499366 942.256338,243.096625 942.256338,243.833557 L942.256338,245.167747 L946.657298,245.167747 L946.657298,243.833557 C946.657298,243.096625 947.248333,242.499366 947.977585,242.499366 Z M920.171828,247.171779 L920.171828,283.462832 L947.617204,283.462832 L947.617204,247.171779 L920.171828,247.171779 Z M944.263635,250.379019 L944.263635,280.195532 L923.567566,280.195532 L923.567566,250.379019 L944.263635,250.379019 Z M943.221282,279.230768 L943.221282,251.308324 L924.567751,251.308324 L924.567751,279.230768 L943.221282,279.230768 Z M931.908927,269.867985 L929.34365,267.276043 C928.248911,266.169429 928.248911,264.369315 929.34365,263.263049 L931.908927,260.670759 C933.00401,259.564493 934.785367,259.564493 935.880105,260.670759 L938.445383,263.263049 C939.540122,264.369315 939.540122,266.169429 938.445383,267.276043 L935.880105,269.867985 C935.349927,270.404093 934.644742,270.699422 933.894516,270.699422 C933.14429,270.699422 932.439105,270.404093 931.908927,269.867985 Z M931.210963,265.149677 C931.145636,265.215692 931.145636,265.3234 931.210963,265.389414 L933.77624,267.981357 C933.841223,268.047024 933.948153,268.047024 934.013136,267.981357 L936.578414,265.389067 C936.643397,265.323052 936.64374,265.215692 936.578414,265.149677 L934.013136,262.557735 C933.980472,262.524727 933.940589,262.50805 933.894516,262.50805 C933.848444,262.50805 933.80856,262.524727 933.77624,262.557735 L931.210963,265.149677 Z" transform="translate(-917.66 -242.33)"/>
</svg>
