<svg xmlns="http://www.w3.org/2000/svg" width="46" height="43" viewBox="0 0 46 43">
  <path fill="#748592" fill-rule="evenodd" d="M495.907055,407.148012 C495.942622,406.82278 496.041009,406.492261 496.203235,406.163704 L497.803752,402.947547 C498.223238,402.114219 498.443123,401.185964 498.446784,400.249799 L498.465484,388.114905 C498.466044,387.185994 498.248308,386.25539 497.835796,385.419359 L496.230876,382.180788 C496.030772,381.778296 495.928563,381.333176 495.932398,380.897192 C495.933791,380.083229 496.283168,379.301801 496.881321,378.762267 C497.487725,378.214435 498.291344,377.95208 499.101575,378.038701 C499.44543,378.077458 499.779914,378.17733 500.091634,378.341447 L503.285109,379.938991 C504.106108,380.3518 505.031439,380.570776 505.96538,380.572267 L508.604526,380.566665 C509.041123,380.56591 509.397817,380.924637 509.396038,381.362688 C509.398764,381.574976 509.318107,381.773946 509.164416,381.928512 C509.011757,382.082041 508.813915,382.163159 508.601798,382.161454 L505.963683,382.166019 C504.789811,382.170121 503.61539,381.893584 502.575259,381.366205 L499.381785,379.768661 C499.216138,379.689209 499.07206,379.641822 498.931009,379.630674 C498.564507,379.587814 498.214215,379.700263 497.9368,379.948245 C497.673808,380.19206 497.520819,380.538206 497.517119,380.895486 C497.518845,381.090171 497.566903,381.287883 497.652059,381.468961 L499.254923,384.705464 C499.783414,385.761871 500.057357,386.941952 500.051236,388.112162 L500.032536,400.247055 C500.030527,401.4214 499.749451,402.605547 499.227647,403.65963 L497.620945,406.879939 C497.547589,407.024011 497.497901,407.177362 497.48117,407.326514 C497.440344,407.716996 497.573558,408.095786 497.844933,408.368708 C498.118364,408.643697 498.495008,408.77767 498.883277,408.736611 C499.030556,408.718751 499.184066,408.669814 499.327321,408.59604 L502.529382,406.980182 C503.577491,406.455403 504.754928,406.172725 505.922618,406.170705 L520.607084,406.137217 C521.770663,406.131062 522.944056,406.406565 523.994477,406.938069 L527.191039,408.536643 C527.331983,408.609925 527.482243,408.65523 527.633577,408.674644 C528.024792,408.717461 528.406011,408.584248 528.67729,408.311423 C528.951664,408.035485 529.085154,407.651056 529.042579,407.257611 C529.024285,407.116805 528.979237,406.965689 528.903304,406.810484 L527.314813,403.59881 C526.789395,402.551718 526.515453,401.371637 526.519532,400.191075 L526.518063,399.243527 C526.517787,398.803408 526.87571,398.443445 527.312304,398.44476 C527.744774,398.448154 528.10765,398.8048 528.105871,399.242851 L528.104252,400.189368 C528.105734,401.128632 528.32347,402.059236 528.732912,402.883881 L530.322431,406.096589 C530.487673,406.412153 530.584924,406.746476 530.619363,407.079871 C530.714654,407.957873 530.415603,408.814811 529.796714,409.437226 C529.255187,409.98184 528.54109,410.280285 527.780137,410.280566 C527.6679,410.279725 527.560814,410.277839 527.446546,410.260432 C527.125337,410.225778 526.791878,410.129011 526.479134,409.961789 L523.283599,408.364249 C522.453335,407.95042 521.528007,407.729373 520.604356,407.732007 L505.918862,407.76446 C504.98903,407.769176 504.065007,407.989281 503.237429,408.412191 L500.039498,410.021829 C499.712802,410.18498 499.384156,410.283928 499.060767,410.319697 C498.188428,410.423728 497.335308,410.127995 496.717518,409.506683 C496.099727,408.885372 495.803613,408.025322 495.907055,407.148012 Z M510.132777,381.200135 C510.133059,380.985396 510.218079,380.78643 510.373126,380.630499 C510.528174,380.474568 510.727059,380.38801 510.939534,380.38887 L520.544643,380.224843 C521.481771,380.212759 522.412916,379.981833 523.249778,379.550728 L526.483473,377.899445 C526.812783,377.73123 527.146561,377.630725 527.486969,377.589566 C528.302678,377.4933 529.115717,377.748356 529.715342,378.288183 L529.826109,378.399581 C530.351229,378.927694 530.650349,379.656276 530.642415,380.423578 C530.635453,380.871888 530.530205,381.318121 530.327976,381.721608 L528.67123,385.003077 C528.241542,385.843677 528.01295,386.78116 527.999909,387.722597 L527.908258,396.411041 C527.909113,396.624726 527.826145,396.825755 527.67005,396.98274 C527.52024,397.133403 527.319304,397.217897 527.102639,397.221297 C526.663111,397.225941 526.308245,396.869052 526.312908,396.42702 L526.404537,387.740661 C526.417008,386.558432 526.709455,385.364877 527.245181,384.297985 L528.901905,381.0186 C528.990851,380.840441 529.041673,380.640798 529.043806,380.438548 C529.0463,380.103907 528.915036,379.77382 528.677091,379.534519 C528.661707,379.519047 528.648373,379.505638 528.627751,379.495434 C528.355696,379.247115 528.01063,379.140301 527.63908,379.185961 C527.501088,379.1989 527.341924,379.253761 527.183522,379.334675 L523.950874,380.984904 C522.890028,381.523683 521.703237,381.817797 520.527707,381.830339 L510.924649,381.996429 C510.704886,381.998774 510.508917,381.907048 510.364304,381.761611 C510.220717,381.617205 510.12951,381.420119 510.132777,381.200135 Z M513.552797,392.523243 C513.863719,392.217924 514.375568,392.212024 514.685024,392.523243 C514.99888,392.835938 514.99888,393.346279 514.685024,393.658974 L514.393168,393.952494 L514.685024,394.244539 C514.991547,394.557233 514.99448,395.063149 514.687958,395.380269 C514.529563,395.530716 514.33157,395.61774 514.120377,395.61774 C513.906251,395.61774 513.708258,395.530716 513.552797,395.380269 L513.263873,395.088224 L512.976417,395.380269 C512.662561,395.679689 512.147778,395.673789 511.844189,395.380269 C511.533266,395.063149 511.536199,394.557233 511.844189,394.244539 L512.136045,393.952494 L511.844189,393.658974 C511.530333,393.346279 511.530333,392.835938 511.844189,392.523243 C512.153645,392.217924 512.665494,392.212024 512.976417,392.523243 L513.263873,392.816763 L513.552797,392.523243 Z M517.952645,373.348575 C518.263568,373.043255 518.775417,373.037356 519.084873,373.348575 C519.398729,373.66127 519.398729,374.171611 519.084873,374.484305 L518.793016,374.777825 L519.084873,375.06987 C519.391396,375.382565 519.394329,375.888481 519.087806,376.205601 C518.929412,376.356048 518.731418,376.443072 518.520226,376.443072 C518.3061,376.443072 518.108106,376.356048 517.952645,376.205601 L517.663722,375.913556 L517.376265,376.205601 C517.062409,376.505021 516.547627,376.499121 516.244037,376.205601 C515.933115,375.888481 515.936048,375.382565 516.244037,375.06987 L516.535894,374.777825 L516.244037,374.484305 C515.930181,374.171611 515.930181,373.66127 516.244037,373.348575 C516.553493,373.043255 517.065342,373.037356 517.376265,373.348575 L517.663722,373.642095 L517.952645,373.348575 Z M534.085423,389.573294 C534.396346,389.267975 534.908195,389.262075 535.217651,389.573294 C535.531506,389.885989 535.531506,390.39633 535.217651,390.709025 L534.925794,391.002545 L535.217651,391.29459 C535.524173,391.607284 535.527107,392.1132 535.220584,392.43032 C535.062189,392.580767 534.864196,392.667791 534.653003,392.667791 C534.438877,392.667791 534.240884,392.580767 534.085423,392.43032 L533.7965,392.138275 L533.509043,392.43032 C533.195187,392.72974 532.680405,392.72384 532.376815,392.43032 C532.065892,392.1132 532.068826,391.607284 532.376815,391.29459 L532.668672,391.002545 L532.376815,390.709025 C532.062959,390.39633 532.062959,389.885989 532.376815,389.573294 C532.686271,389.267975 533.19812,389.262075 533.509043,389.573294 L533.7965,389.866814 L534.085423,389.573294 Z M510.018703,385.638013 C510.46631,384.737696 511.361525,384.737696 511.361525,385.638013 C509.571095,392.840548 504.199805,393.290707 503.30459,393.290707 C502.409375,393.290707 502.409375,391.940231 503.30459,391.940231 C507.780665,391.490073 509.123488,387.888805 510.018703,385.638013 Z M515.70893,385.638013 C516.604146,387.888805 517.946968,391.490073 522.423043,391.940231 C523.318259,391.940231 523.318259,393.290707 522.423043,393.290707 C521.527828,393.290707 516.156538,392.840548 514.366108,385.638013 C514.366108,384.737696 515.261323,384.737696 515.70893,385.638013 Z M510.018703,402.940291 C509.123488,400.689498 507.780665,397.08823 503.30459,396.638072 C502.409375,396.638072 502.409375,395.287597 503.30459,395.287597 C504.199805,395.287597 509.571095,395.737755 511.361525,402.940291 C511.361525,403.840607 510.46631,403.840607 510.018703,402.940291 Z M515.70893,402.940291 C515.261323,403.840607 514.366108,403.840607 514.366108,402.940291 C516.156538,395.737755 521.527828,395.287597 522.423043,395.287597 C523.318259,395.287597 523.318259,396.638072 522.423043,396.638072 C517.946968,397.08823 516.604146,400.689498 515.70893,402.940291 Z M502.561828,377.803475 L512.094834,368.953628 L523.827763,367.478653 L534.094076,371.903577 L539.960541,380.015937 L541.427157,390.340758 L538.493924,398.453118 L531.894152,405.82799 C530.916408,405.82799 530.671972,405.336332 531.160844,404.353015 C531.649716,403.369699 533.605204,401.157237 537.027308,397.71563 L539.960541,390.340758 L538.493924,380.753424 L533.360768,373.378551 L523.827763,368.953628 L512.828142,370.428602 C507.373185,375.541233 504.439953,378.245353 504.028445,378.540962 C503.050701,379.03262 502.561828,378.786791 502.561828,377.803475 Z" transform="translate(-495.66 -367.33)"/>
</svg>
