<?xml version="1.0" encoding="UTF-8"?>
<svg xmlns="http://www.w3.org/2000/svg" xmlns:xlink="http://www.w3.org/1999/xlink" width="65pt" height="65pt" viewBox="0 0 65 65" version="1.1">
<g id="surface1">
<path style=" stroke:none;fill-rule:nonzero;fill:rgb(45.490196%,52.156863%,57.254902%);fill-opacity:1;" d="M 23.800781 38.398438 L 33.101562 38.398438 L 43.800781 61.199219 L 44.601562 63 L 41.398438 63 L 40.898438 61.898438 L 31.300781 41.300781 L 23.898438 41.300781 Z M 23.800781 38.398438 "/>
<path style=" stroke:none;fill-rule:nonzero;fill:rgb(45.490196%,52.156863%,57.254902%);fill-opacity:1;" d="M 50.800781 55.800781 L 22 55.800781 C 18.800781 55.800781 17.699219 54.199219 16.800781 53 L 16.699219 52.800781 C 16.199219 52 4 32.601562 2.800781 30.300781 C 1.699219 28.101562 0.800781 25.898438 3 24.199219 C 4.300781 23.199219 5.300781 22.800781 6.5 23.101562 C 8.101562 23.398438 9.699219 24.898438 11.601562 28.199219 C 13.398438 31.101562 21.601562 44.800781 23 47.101562 L 45.699219 47.101562 C 48.898438 47.101562 50.898438 49 50.898438 52.300781 L 50.898438 55.800781 Z M 5.898438 24.101562 C 5.300781 24.101562 4.601562 24.398438 3.699219 25.101562 C 2.5 26.101562 2.5 27.199219 3.800781 29.800781 C 5.101562 32 17.5 52 17.699219 52.199219 L 17.800781 52.300781 C 18.601562 53.398438 19.398438 54.601562 22 54.601562 L 49.601562 54.601562 L 49.601562 52.101562 C 49.601562 50.601562 49.101562 48.101562 45.601562 48.101562 L 22.199219 48.101562 L 22 47.800781 C 21.800781 47.398438 14.398438 35.101562 10.5 28.699219 C 8.800781 25.800781 7.398438 24.398438 6.199219 24.199219 C 6.101562 24.101562 6 24.101562 5.898438 24.101562 Z M 5.898438 24.101562 "/>
<path style=" stroke:none;fill-rule:nonzero;fill:rgb(45.490196%,52.156863%,57.254902%);fill-opacity:1;" d="M 47.800781 53.898438 L 22.101562 53.898438 C 19.601562 53.898438 18.898438 52.800781 18.300781 51.898438 L 18.101562 51.601562 L 7 33.601562 C 6.699219 33.101562 6.398438 32.5 6 32 C 5.398438 30.898438 4.699219 29.800781 4.300781 28.898438 C 3.898438 27.898438 3.5 26.800781 4.898438 25.800781 C 5.398438 25.5 5.898438 25.300781 6.5 25.5 C 8 25.800781 9.199219 27.898438 10.699219 30.601562 C 11 31.101562 11.300781 31.699219 11.699219 32.199219 C 13.800781 35.800781 20.398438 46.800781 21.601562 48.800781 L 43.699219 48.800781 C 47.398438 48.800781 47.800781 50.800781 47.800781 51.699219 Z M 6.101562 26.5 C 6 26.5 5.800781 26.5 5.5 26.699219 C 4.898438 27.101562 4.800781 27.398438 5.300781 28.398438 C 5.699219 29.300781 6.300781 30.300781 6.898438 31.398438 C 7.300781 32 7.601562 32.601562 7.898438 33.101562 L 19.199219 51.300781 C 19.699219 52.101562 20.199219 52.800781 22.101562 52.800781 L 46.699219 52.800781 L 46.699219 51.699219 C 46.699219 50.5 45.699219 49.898438 43.699219 49.898438 L 20.898438 49.898438 L 20.800781 49.601562 C 20.601562 49.300781 14.199219 38.398438 10.800781 32.699219 C 10.5 32.101562 10.101562 31.601562 9.800781 31.101562 C 8.5 28.898438 7.300781 26.800781 6.300781 26.5 C 6.199219 26.5 6.199219 26.5 6.101562 26.5 Z M 6.101562 26.5 "/>
<path style=" stroke:none;fill-rule:nonzero;fill:rgb(45.490196%,52.156863%,57.254902%);fill-opacity:1;" d="M 53.300781 33.398438 L 47.199219 33.398438 L 47.199219 30.601562 L 53.300781 30.601562 C 57.300781 30.601562 60.5 27 60.5 22.5 C 60.5 18 57.300781 14.398438 53.300781 14.398438 C 53 14.398438 52.699219 14.398438 52.398438 14.5 L 50.800781 14.699219 L 50.800781 13 C 50.800781 8.398438 47.601562 4.800781 43.601562 4.800781 C 39.601562 4.800781 36.398438 8.398438 36.398438 12.898438 L 36.398438 14.101562 L 35.199219 14.300781 C 31.601562 14.800781 28.898438 18.300781 28.898438 22.398438 C 28.898438 26.898438 32.101562 30.5 36.101562 30.5 L 39.800781 30.5 L 39.800781 33.300781 L 36.101562 33.300781 C 30.601562 33.300781 26.101562 28.398438 26.101562 22.398438 C 26.101562 17.398438 29.300781 13 33.699219 11.800781 C 34.199219 6.300781 38.5 2 43.601562 2 C 48.699219 2 52.898438 6.199219 53.5 11.5 C 58.898438 11.601562 63.199219 16.5 63.199219 22.398438 C 63.199219 28.5 58.800781 33.398438 53.300781 33.398438 Z M 53.300781 33.398438 "/>
<path style=" stroke:none;fill-rule:nonzero;fill:rgb(45.490196%,52.156863%,57.254902%);fill-opacity:1;" d="M 42 44.199219 L 42 11.601562 C 42 10.800781 42.601562 10.199219 43.398438 10.199219 C 44.199219 10.199219 44.800781 10.800781 44.800781 11.601562 L 44.800781 44.199219 Z M 42 44.199219 "/>
<path style=" stroke:none;fill-rule:nonzero;fill:rgb(45.490196%,52.156863%,57.254902%);fill-opacity:1;" d="M 43.398438 30.699219 C 43 30.699219 42.699219 30.601562 42.398438 30.300781 C 41.800781 29.699219 41.800781 28.800781 42.398438 28.300781 L 49 21.5 C 49.601562 20.898438 50.5 20.898438 51 21.5 C 51.601562 22.101562 51.601562 23 51 23.5 L 44.398438 30.300781 C 44.199219 30.5 43.800781 30.699219 43.398438 30.699219 Z M 43.398438 30.699219 "/>
<path style=" stroke:none;fill-rule:nonzero;fill:rgb(45.490196%,52.156863%,57.254902%);fill-opacity:1;" d="M 43.398438 25.300781 C 43 25.300781 42.601562 25.199219 42.398438 24.898438 L 35.800781 18 C 35.199219 17.398438 35.300781 16.5 35.800781 16 C 36.398438 15.398438 37.300781 15.5 37.800781 16 L 44.398438 22.800781 C 45 23.398438 44.898438 24.300781 44.398438 24.800781 C 44.101562 25.101562 43.800781 25.300781 43.398438 25.300781 Z M 43.398438 25.300781 "/>
<path style=" stroke:none;fill-rule:nonzero;fill:rgb(45.490196%,52.156863%,57.254902%);fill-opacity:1;" d="M 36.699219 41.300781 C 35.101562 41.300781 32.199219 41.300781 32.199219 41.300781 L 32.199219 38.398438 C 32.199219 38.398438 34.898438 38.398438 36.601562 38.398438 C 39.398438 38.398438 39.398438 41.300781 36.699219 41.300781 Z M 36.699219 41.300781 "/>
<path style=" stroke:none;fill-rule:nonzero;fill:rgb(45.490196%,52.156863%,57.254902%);fill-opacity:1;" d="M 12 63 L 9.101562 63 L 9.101562 43.601562 C 9.101562 41.5 10.5 38.398438 14.300781 38.398438 L 32.199219 38.398438 L 32.199219 41.300781 L 14.300781 41.300781 C 12.300781 41.300781 12 42.898438 12 43.601562 Z M 12 63 "/>
</g>
</svg>
