<svg xmlns="http://www.w3.org/2000/svg" width="84" height="45" viewBox="0 0 84 45">
  <path fill="#748592" d="M2437.10649,390.373109 C2437.70896,390.373109 2438.19793,390.865607 2438.19793,391.472436 C2438.19793,392.079264 2437.70896,392.571763 2437.10649,392.571763 C2436.50402,392.571763 2436.01505,392.079264 2436.01505,391.472436 C2436.01505,390.865607 2436.50402,390.373109 2437.10649,390.373109 Z M2472.04253,393.661399 C2475.76422,394.39541 2478.58109,397.698053 2478.58109,401.651159 C2478.58109,405.606219 2475.76114,408.910327 2472.03653,409.641895 C2472.02098,409.820716 2472.00316,409.998885 2471.9821,410.175588 C2471.02769,418.304593 2463.33723,424.399311 2455.74868,424.451589 C2451.7062,424.478624 2448.32683,422.882594 2445.98368,419.831245 C2442.66571,415.512518 2439.34612,412.934115 2437.10228,412.934115 C2434.01631,412.935418 2430.30125,417.768295 2428.71485,419.831896 C2426.39276,422.856374 2423.01452,424.452241 2418.93948,424.452241 C2418.88731,424.452241 2418.83563,424.452241 2418.7833,424.451427 C2411.05039,424.375045 2403.18286,418.28163 2402.2304,410.172494 C2402.2095,409.996931 2402.19168,409.819739 2402.17629,409.641733 C2398.45184,408.910002 2395.63189,405.606056 2395.63189,401.650996 C2395.63189,397.69789 2398.44892,394.395085 2402.17078,393.661399 C2402.66734,388.112915 2406.39714,383.405603 2411.76761,381.723908 C2414.40611,380.897881 2417.15348,380.479168 2419.93341,380.479168 L2454.27957,380.479168 C2457.06063,380.479168 2459.80865,380.898044 2462.44699,381.723908 C2467.81762,383.406091 2471.5471,388.113566 2472.04253,393.661399 Z M2397.81476,401.650996 C2397.81476,403.810685 2398.9062,406.28945 2402.17078,407.486362 C2402.51376,404.179974 2404.52891,399.392125 2406.54626,396.765189 C2405.90243,396.458524 2404.9091,395.869743 2403.81766,395.869743 C2400.2738,395.869743 2397.81476,398.956962 2397.81476,401.650996 Z M2469.8496,409.78733 C2469.8496,401.366377 2463.19985,392.571763 2454.2684,392.571763 L2441.4037,392.571763 C2440.50908,392.571763 2439.83508,392.37175 2439.83508,391.472436 C2439.83508,390.573122 2440.50908,390.250781 2441.4037,390.250781 L2454.27924,390.250781 C2458.70957,390.250781 2462.86352,391.849905 2466.12705,394.782041 C2466.94277,394.258445 2468.90394,393.889892 2469.8496,393.688108 C2469.37637,389.565139 2466.22593,385.58507 2462.20954,384.326811 C2459.8834,383.598826 2456.73354,382.677821 2454.27957,382.677821 L2419.93309,382.677821 C2417.48009,382.677821 2414.87546,383.048837 2412.54916,383.777148 C2408.53293,385.034755 2404.83759,389.738656 2404.36338,393.862277 C2405.30887,394.064061 2407.26956,394.258445 2408.08528,394.782041 C2411.34882,391.850068 2415.50276,390.250781 2419.93309,390.250781 L2432.80863,390.250781 C2433.70325,390.250781 2434.3779,390.573122 2434.3779,391.472436 C2434.3779,392.37175 2433.70325,392.571763 2432.80863,392.571763 L2419.93309,392.571763 C2411.15619,392.571763 2403.81766,400.816714 2404.36338,410.135535 C2404.9091,417.306616 2412.96811,422.196098 2418.7833,422.253587 C2418.8217,422.254239 2418.86058,422.254239 2418.89946,422.254239 C2422.2723,422.254239 2425.70986,420.616598 2427.82928,417.85628 C2429.86623,415.206218 2432.42618,411.071249 2437.10357,411.069132 C2441.60454,411.069132 2444.9305,414.807048 2447.273,417.85628 C2449.42239,420.655196 2452.93233,422.253587 2455.85345,422.253587 C2461.50862,422.253587 2469.8496,415.657626 2469.8496,409.78733 Z M2472.04253,407.486362 C2474.76106,406.621964 2476.39822,403.81036 2476.39822,401.650996 C2476.39822,398.956962 2474.21535,395.869743 2470.39532,395.869743 C2469.66578,395.869743 2468.31055,396.458361 2467.66672,396.765189 C2469.68586,399.394568 2471.70068,404.183394 2472.04253,407.486362 Z M2426.719,401.518656 C2427.26419,401.826785 2427.44593,402.500538 2427.12509,403.023578 C2426.65633,403.787471 2425.87372,404.426816 2424.88829,404.895551 L2425.79305,405.763547 C2426.2405,406.192928 2426.2405,406.888996 2425.79305,407.318267 C2425.34537,407.747428 2424.62016,407.747538 2424.17248,407.318267 L2422.41786,405.634931 C2422.24128,405.662413 2422.0623,405.685608 2421.88091,405.704406 L2421.88091,406.863053 C2421.88091,407.470078 2421.36781,407.962338 2420.73507,407.962338 C2420.10234,407.962338 2419.58923,407.470078 2419.58923,406.863053 L2419.58923,405.704626 C2419.40842,405.685828 2419.22932,405.662193 2419.05195,405.634491 L2417.29789,407.318157 C2416.85021,407.747538 2416.12501,407.747758 2415.67733,407.318597 C2415.22976,406.889326 2415.22953,406.193258 2415.67687,405.763877 L2416.58334,404.893792 C2415.58807,404.419671 2414.80706,403.776259 2414.34506,403.023908 C2414.02388,402.500867 2414.20549,401.827005 2414.75068,401.518766 C2415.29599,401.210636 2415.99816,401.384873 2416.31957,401.907913 C2417.04535,403.089865 2419.23253,403.565196 2420.73496,403.565196 C2422.96591,403.565196 2424.6448,402.731607 2425.15023,401.908133 C2425.4713,401.384983 2426.17358,401.210416 2426.719,401.518656 Z M2458.37067,401.518656 C2458.91587,401.826785 2459.0976,402.500538 2458.77676,403.023578 C2458.308,403.787471 2457.52539,404.426816 2456.53996,404.895551 L2457.44472,405.763547 C2457.89217,406.192928 2457.89217,406.888996 2457.44472,407.318267 C2456.99704,407.747428 2456.27184,407.747538 2455.82415,407.318267 L2454.06953,405.634931 C2453.89295,405.662413 2453.71397,405.685608 2453.53259,405.704406 L2453.53259,406.863053 C2453.53259,407.470078 2453.01948,407.962338 2452.38674,407.962338 C2451.75401,407.962338 2451.2409,407.470078 2451.2409,406.863053 L2451.2409,405.704626 C2451.06009,405.685828 2450.88099,405.662193 2450.70362,405.634491 L2448.94956,407.318157 C2448.50188,407.747538 2447.77668,407.747758 2447.329,407.318597 C2446.88143,406.889326 2446.8812,406.193258 2447.32854,405.763877 L2448.23501,404.893792 C2447.23974,404.419671 2446.45873,403.776259 2445.99673,403.023908 C2445.67555,402.500867 2445.85716,401.827005 2446.40235,401.518766 C2446.94766,401.210636 2447.64995,401.384873 2447.97124,401.907913 C2448.69702,403.089865 2450.8842,403.565196 2452.38663,403.565196 C2454.61758,403.565196 2456.29647,402.731607 2456.8019,401.908133 C2457.12297,401.384983 2457.82514,401.210416 2458.37067,401.518656 Z" transform="translate(-2395.001 -380)"/>
</svg>
