<svg xmlns="http://www.w3.org/2000/svg" width="44" height="44" viewBox="0 0 44 44">
  <path fill="#748592" d="M1794.85519,269.336981 C1795.26389,269.336981 1795.59426,269.666444 1795.59426,270.074035 C1795.59426,270.481626 1795.26316,270.811089 1794.85519,270.811089 L1789.57672,270.811089 C1789.24635,272.078821 1788.09857,273.02225 1786.72537,273.02225 C1785.09497,273.02225 1783.76907,271.699975 1783.76907,270.074035 C1783.76907,268.703852 1784.71508,267.559945 1785.98629,267.230482 L1785.98629,259.755283 C1785.98629,259.347693 1786.3174,259.01823 1786.72537,259.01823 C1787.13334,259.01823 1787.46444,259.347693 1787.46444,259.755283 L1787.46444,267.230482 C1788.49841,267.498769 1789.30769,268.305843 1789.57672,269.336981 L1794.85519,269.336981 Z M1786.72537,271.548142 C1787.54057,271.548142 1788.20352,270.887005 1788.20352,270.074035 C1788.20352,269.261065 1787.54057,268.599927 1786.72537,268.599927 C1785.91017,268.599927 1785.24722,269.261065 1785.24722,270.074035 C1785.24722,270.887005 1785.91017,271.548142 1786.72537,271.548142 Z M1802.32871,255.046247 L1801.08928,256.281549 C1804.54741,259.861419 1806.68038,264.723025 1806.68038,270.074035 C1806.68038,277.369392 1802.72116,283.756699 1796.83517,287.221589 L1799.07308,289.453387 C1799.36206,289.741575 1799.36206,290.207393 1799.07308,290.495581 C1798.92896,290.639307 1798.73976,290.711538 1798.55056,290.711538 C1798.36136,290.711538 1798.17215,290.639307 1798.02803,290.495581 L1795.47823,287.952746 C1792.83382,289.245538 1789.86348,289.974484 1786.72537,289.974484 C1783.58726,289.974484 1780.61692,289.245538 1777.97251,287.952746 L1775.4227,290.495581 C1775.27858,290.639307 1775.08938,290.711538 1774.90018,290.711538 C1774.71097,290.711538 1774.52177,290.639307 1774.37765,290.495581 C1774.08867,290.207393 1774.08867,289.741575 1774.37765,289.453387 L1776.61557,287.221589 C1770.72958,283.756699 1766.77036,277.369392 1766.77036,270.074035 C1766.77036,264.723025 1768.90333,259.861419 1772.36146,256.281549 L1771.12277,255.046247 L1768.09552,258.065219 C1767.95731,258.203785 1767.76885,258.281176 1767.57299,258.281176 C1767.37714,258.281176 1767.18941,258.203785 1767.05047,258.065219 C1764.70982,255.731707 1764.70982,251.93367 1767.05047,249.600158 C1769.39038,247.266646 1773.19883,247.266646 1775.53874,249.600158 C1775.67768,249.737987 1775.75528,249.925198 1775.75528,250.121255 C1775.75528,250.317311 1775.67768,250.503785 1775.53874,250.642352 L1772.16782,254.004053 L1773.42424,255.256308 C1776.95702,252.09877 1781.61984,250.173585 1786.72611,250.173585 C1791.83237,250.173585 1796.49519,252.09877 1800.02797,255.256308 L1801.28366,254.004053 L1797.91274,250.642352 C1797.77379,250.504522 1797.69619,250.317311 1797.69619,250.121255 C1797.69619,249.925198 1797.77379,249.738724 1797.91274,249.600158 C1800.25265,247.266646 1804.0611,247.266646 1806.40101,249.600158 C1808.74166,251.93367 1808.74166,255.731707 1806.40101,258.065219 C1806.2628,258.203785 1806.07434,258.281176 1805.87848,258.281176 C1805.68263,258.281176 1805.4949,258.203785 1805.35596,258.065219 L1802.32871,255.046247 Z M1805.35522,250.642352 C1803.76916,249.059897 1801.28809,248.901431 1799.52244,250.164004 L1805.83488,256.459916 C1807.10091,254.697621 1806.94127,252.224069 1805.35522,250.642352 Z M1767.61586,256.459179 L1773.92829,250.164004 C1772.16264,248.902168 1769.68157,249.060634 1768.09552,250.642352 C1766.50946,252.224069 1766.34982,254.697621 1767.61586,256.459179 Z M1786.72537,288.500377 C1796.91425,288.500377 1805.20223,280.23432 1805.20223,270.074035 C1805.20223,259.91375 1796.91351,251.647693 1786.72537,251.647693 C1776.53723,251.647693 1768.24851,259.91375 1768.24851,270.074035 C1768.24851,280.23432 1776.53723,288.500377 1786.72537,288.500377 Z M1801.41965,261.566224 C1801.42704,261.578017 1801.4396,261.585388 1801.44773,261.597917 C1801.45512,261.611184 1801.45438,261.625188 1801.46103,261.638455 C1802.89779,264.124538 1803.72482,267.004206 1803.72482,270.074035 C1803.72482,273.143863 1802.89779,276.022795 1801.46103,278.509614 C1801.45512,278.522881 1801.45512,278.537622 1801.44773,278.550152 C1801.43738,278.568579 1801.42186,278.581846 1801.41004,278.598798 C1799.9245,281.133525 1797.8004,283.248869 1795.25724,284.727399 C1795.24468,284.735507 1795.23803,284.748037 1795.22546,284.755407 C1795.20625,284.766463 1795.18555,284.770885 1795.16634,284.77973 C1792.67713,286.205929 1789.79696,287.02627 1786.72611,287.02627 C1783.65525,287.02627 1780.77508,286.205929 1778.28588,284.77973 C1778.26666,284.770885 1778.24597,284.766463 1778.22675,284.755407 C1778.21419,284.748037 1778.20679,284.735507 1778.19497,284.727399 C1775.65181,283.248869 1773.52771,281.132788 1772.04217,278.598798 C1772.03035,278.581846 1772.01483,278.568579 1772.00448,278.550152 C1771.99709,278.536885 1771.99783,278.522881 1771.99118,278.509614 C1770.55442,276.023532 1769.72739,273.143863 1769.72739,270.074035 C1769.72739,267.004206 1770.55442,264.125275 1771.99118,261.638455 C1771.99709,261.625188 1771.99709,261.610447 1772.00448,261.597917 C1772.01187,261.585388 1772.02444,261.578754 1772.03257,261.566224 C1773.51811,259.024126 1775.6459,256.902148 1778.19497,255.420671 C1778.20753,255.412563 1778.21419,255.400033 1778.22675,255.392663 C1778.23931,255.384555 1778.2541,255.385292 1778.2674,255.378658 C1780.7603,253.945089 1783.64786,253.121063 1786.72611,253.121063 C1789.80435,253.121063 1792.69192,253.945826 1795.18481,255.378658 C1795.19812,255.385292 1795.21216,255.385292 1795.22546,255.392663 C1795.23803,255.400033 1795.24542,255.412563 1795.25724,255.420671 C1797.80557,256.902148 1799.93411,259.024126 1801.41965,261.566224 Z M1795.10869,283.080084 C1796.97485,281.879424 1798.56386,280.294758 1799.7656,278.432961 L1799.15512,278.081386 C1798.80184,277.877959 1798.68064,277.427619 1798.88462,277.074571 C1799.0886,276.722996 1799.53944,276.599908 1799.8942,276.804809 L1800.50689,277.157858 C1801.50242,275.240044 1802.09812,273.089321 1802.20676,270.810351 L1801.50538,270.810351 C1801.09741,270.810351 1800.7663,270.480888 1800.7663,270.073298 C1800.7663,269.665707 1801.09741,269.336244 1801.50538,269.336244 L1802.20676,269.336244 C1802.09812,267.058011 1801.50242,264.907289 1800.50689,262.988738 L1799.8942,263.341787 C1799.77742,263.408858 1799.6503,263.440552 1799.5254,263.440552 C1799.26968,263.440552 1799.02209,263.307882 1798.88462,263.072025 C1798.68064,262.719713 1798.80184,262.268636 1799.15512,262.06521 L1799.7656,261.713635 C1798.56238,259.853311 1796.97337,258.267909 1795.10721,257.067986 L1794.75467,257.676792 C1794.61794,257.912649 1794.36961,258.045319 1794.11389,258.045319 C1793.98899,258.045319 1793.86187,258.013625 1793.7451,257.946554 C1793.39182,257.743127 1793.27061,257.292787 1793.47459,256.939738 L1793.82861,256.328721 C1791.9048,255.335909 1789.74892,254.741107 1787.4637,254.633497 L1787.4637,255.332961 C1787.4637,255.740552 1787.1326,256.070015 1786.72463,256.070015 C1786.31666,256.070015 1785.98555,255.740552 1785.98555,255.332961 L1785.98555,254.633497 C1783.70034,254.741844 1781.54446,255.335909 1779.62064,256.328721 L1779.97466,256.939738 C1780.17865,257.29205 1780.05744,257.743127 1779.70416,257.946554 C1779.58739,258.013625 1779.46027,258.045319 1779.33536,258.045319 C1779.07964,258.045319 1778.83205,257.912649 1778.69458,257.676792 L1778.34205,257.067986 C1776.47662,258.267909 1774.88687,259.853311 1773.68366,261.713635 L1774.29413,262.066684 C1774.64741,262.27011 1774.76862,262.72045 1774.56464,263.073499 C1774.42791,263.309356 1774.17958,263.442026 1773.92386,263.442026 C1773.79895,263.442026 1773.67183,263.410332 1773.55506,263.343261 L1772.94237,262.990212 C1771.94683,264.908026 1771.35114,267.058748 1771.2425,269.337718 L1771.94536,269.337718 C1772.35333,269.337718 1772.68443,269.667181 1772.68443,270.074772 C1772.68443,270.482363 1772.35333,270.811826 1771.94536,270.811826 L1771.24397,270.811826 C1771.35262,273.090059 1771.94831,275.240781 1772.94385,277.159332 L1773.55654,276.806283 C1773.91056,276.600645 1774.36139,276.723733 1774.56611,277.076045 C1774.7701,277.428357 1774.64889,277.879433 1774.29561,278.08286 L1773.68514,278.434435 C1774.88835,280.294758 1776.47736,281.880161 1778.34352,283.080084 L1778.69606,282.471278 C1778.90005,282.119703 1779.35014,281.998089 1779.70564,282.201516 C1780.05892,282.404943 1780.18012,282.855283 1779.97614,283.208332 L1779.62212,283.819349 C1781.54593,284.81216 1783.70181,285.406963 1785.98703,285.514573 L1785.98703,284.815109 C1785.98703,284.407518 1786.31814,284.078055 1786.72611,284.078055 C1787.13408,284.078055 1787.46518,284.407518 1787.46518,284.815109 L1787.46518,285.514573 C1789.7504,285.406226 1791.90628,284.81216 1793.83009,283.819349 L1793.47607,283.208332 C1793.27209,282.85602 1793.3933,282.404943 1793.74657,282.201516 C1794.09985,281.997352 1794.55143,282.118966 1794.75615,282.471278 L1795.10869,283.080084 Z" transform="translate(-1764.66 -247.33)"/>
</svg>
