<svg xmlns="http://www.w3.org/2000/svg" width="26" height="55" viewBox="0 0 26 55">
  <path fill="#748592" d="M1617.14101,120.322933 C1617.03707,120.117657 1616.93313,120.01502 1616.82918,119.809744 C1615.37398,118.578091 1612.25567,118.16754 1610.38469,118.16754 C1610.28075,118.16754 1610.28075,118.16754 1610.1768,118.16754 L1609.96892,118.16754 L1609.65709,118.16754 C1609.55314,118.16754 1609.55314,118.16754 1609.4492,118.16754 C1607.68216,118.270178 1604.56386,118.578091 1603.00471,119.809744 C1602.90076,119.912382 1602.69288,120.117657 1602.69288,120.322933 L1597.59965,136.950244 C1597.49571,137.258157 1597.59965,137.566071 1597.80754,137.873984 C1598.01542,138.181897 1598.32725,138.284535 1598.63908,138.284535 L1603.00471,138.284535 L1603.00471,143.108508 L1601.34161,145.161262 L1603.62837,147.419292 L1605.91512,145.161262 L1604.12549,143.108508 L1604.12549,138.284535 L1609.4492,138.284535 L1609.4492,164.970344 C1605.49935,165.175619 1601.5495,166.407272 1599.99035,168.254751 C1599.8864,168.460026 1599.78246,168.665302 1599.78246,168.870577 L1599.78246,170.718056 C1599.78246,171.333883 1600.19824,171.744433 1600.8219,171.744433 L1619.21988,171.744433 C1619.84354,171.744433 1620.25932,171.333883 1620.25932,170.718056 L1620.25932,168.870577 C1620.25932,168.665302 1620.15537,168.357388 1620.05143,168.254751 C1618.49228,166.407272 1614.48818,165.072981 1610.53833,164.970344 L1610.53833,138.284535 L1621.29875,138.284535 C1621.61058,138.284535 1621.92241,138.181897 1622.1303,137.873984 C1622.33818,137.566071 1622.33818,137.258157 1622.33818,136.950244 L1617.14101,120.322933 Z M1618.0765,169.281128 L1618.0765,169.691679 L1601.86133,169.691679 L1601.86133,169.281128 C1603.10865,168.049475 1606.01907,166.92046 1609.96892,166.92046 C1613.39905,166.92046 1616.72524,167.8442 1618.0765,169.281128 Z M1600.09429,136.23178 L1604.6678,121.246672 C1605.60329,120.733484 1607.47427,120.322933 1609.76103,120.220295 L1609.86497,120.220295 L1609.96892,120.220295 L1610.07286,120.220295 L1610.1768,120.220295 C1612.46356,120.322933 1614.33454,120.733484 1615.27003,121.246672 L1619.84354,136.23178 L1600.09429,136.23178 Z" transform="translate(-1596.66 -117.33)"/>
</svg>
