<svg xmlns="http://www.w3.org/2000/svg" width="39" height="44" viewBox="0 0 39 44">
  <path fill="#748592" fill-rule="evenodd" d="M1281.73019,137.455839 C1281.73293,137.425042 1281.7376,137.395273 1281.74377,137.365051 C1281.74723,137.344561 1281.74772,137.324976 1281.75164,137.305967 C1281.76642,137.245585 1281.78753,137.187321 1281.81544,137.132657 C1281.86584,137.042789 1281.9346,136.965139 1282.01618,136.905446 C1282.02521,136.897833 1282.02843,136.887135 1282.03746,136.879521 L1299.68736,128.862794 C1299.91345,128.702357 1300.21116,128.682848 1300.45499,128.813381 L1319.51542,138.219808 C1319.57941,138.253742 1319.63774,138.298313 1319.68755,138.34953 C1319.70048,138.362591 1319.70948,138.376044 1319.7219,138.390072 C1319.76725,138.442647 1319.80602,138.502897 1319.8344,138.566316 C1319.84185,138.58267 1319.84987,138.595609 1319.85635,138.611448 C1319.88124,138.67674 1319.89767,138.746231 1319.9028,138.815928 C1319.90367,138.830164 1319.90012,138.844277 1319.89975,138.858966 C1319.89957,138.86631 1319.90429,138.873777 1319.90367,138.882088 L1319.49471,161.770187 C1319.48744,162.000761 1319.3735,162.214462 1319.18692,162.347471 L1301.53702,171.459365 C1301.5305,171.464591 1301.52165,171.46486 1301.51565,171.469119 C1301.50268,171.477124 1301.49455,171.487699 1301.48061,171.49519 C1301.4198,171.529925 1301.35381,171.555713 1301.28561,171.571647 C1301.26882,171.575147 1301.25306,171.576713 1301.23633,171.577765 C1301.16626,171.590222 1301.09546,171.592373 1301.02542,171.583764 C1301.00779,171.581854 1300.99157,171.581939 1300.97348,171.578547 C1300.90208,171.565495 1300.83338,171.542712 1300.76887,171.509745 L1282.22408,161.036641 C1281.97973,160.907075 1281.82947,160.650029 1281.83642,160.373394 L1281.73019,137.455839 Z M1300.40988,169.666 L1300.77878,148.40885 L1283.16409,138.673853 L1283.31082,159.959493 L1300.40988,169.666 Z M1300.16872,130.313735 L1283.85134,137.384875 L1301.46603,147.119873 L1317.78244,138.953051 L1300.16872,130.313735 Z M1318.0393,161.369323 L1318.40386,140.304606 L1302.24453,148.358749 L1301.88095,169.42398 L1318.0393,161.369323 Z M1299.27795,167.226106 C1299.27379,167.352893 1299.20604,167.468293 1299.09585,167.532661 C1298.98715,167.596575 1298.85149,167.599066 1298.73998,167.539939 L1284.71953,159.465856 C1284.59735,159.401073 1284.52148,159.272777 1284.52544,159.134716 L1284.22964,141.783168 C1284.23329,141.657348 1284.30156,141.540981 1284.41123,141.47758 C1284.52142,141.413213 1284.65559,141.411175 1284.7671,141.470303 L1299.30318,149.572875 C1299.42536,149.637658 1299.50123,149.765954 1299.49742,149.904015 L1299.27795,167.226106 Z M1298.56123,166.61784 L1298.6837,161.722608 L1285.26315,154.546131 L1285.26315,158.926799 L1298.56123,166.61784 Z M1285.01443,148.292175 L1285.26315,153.450965 L1298.70418,160.90739 L1298.82717,156.011191 L1285.01443,148.292175 Z M1285.01443,142.423952 L1285.02679,147.382541 L1298.70418,155.039168 L1298.82717,150.142969 L1285.01443,142.423952 Z M1290.44292,153.231007 C1290.53263,153.194027 1290.63357,153.195117 1290.72253,153.232773 L1292.07004,153.803185 C1292.25705,153.882349 1292.34272,154.095889 1292.26334,154.282388 C1292.18439,154.46788 1291.97084,154.554756 1291.78383,154.475592 L1290.43632,153.90518 C1290.34736,153.867523 1290.27646,153.795867 1290.24081,153.705825 C1290.20373,153.616364 1290.20483,153.515698 1290.24259,153.426985 C1290.28077,153.337263 1290.3522,153.267559 1290.44292,153.231007 Z M1290.44292,146.931775 C1290.53263,146.894795 1290.63357,146.895884 1290.72253,146.933541 L1292.07004,147.503953 C1292.25705,147.583117 1292.34272,147.796657 1292.26334,147.983156 C1292.18439,148.168648 1291.97084,148.255524 1291.78383,148.17636 L1290.43632,147.605948 C1290.34736,147.568291 1290.27646,147.496635 1290.24081,147.406593 C1290.20373,147.317132 1290.20483,147.216466 1290.24259,147.127753 C1290.28077,147.038031 1290.3522,146.968327 1290.44292,146.931775 Z M1292.06517,160.494274 C1291.97445,160.530826 1291.87351,160.529737 1291.78455,160.49208 L1290.43704,159.921669 C1290.25104,159.842932 1290.16334,159.628537 1290.24229,159.443045 C1290.32125,159.257554 1290.53682,159.171533 1290.72282,159.25027 L1292.07033,159.820682 C1292.15928,159.858338 1292.23019,159.929995 1292.26727,160.019456 C1292.30291,160.109497 1292.30225,160.209155 1292.26406,160.298877 C1292.2263,160.38759 1292.15445,160.458302 1292.06517,160.494274 Z" transform="translate(-1281.66 -128.33)"/>
</svg>
