<svg xmlns="http://www.w3.org/2000/svg" width="75" height="65" viewBox="0 0 75 65">
  <path fill="#748592" fill-rule="evenodd" d="M213.87141,253.705667 L219.265391,256.225639 L219.267727,252.964606 L216.457362,251.661292 L213.87141,253.705667 Z M213.79398,250.426141 L200.603717,244.309122 L206.209895,256.530901 L213.79398,250.426141 Z M195.579695,241.979218 L192.580207,240.588198 L192.582543,243.759888 L197.756403,246.177023 L195.579695,241.979218 Z M199.703547,249.932111 L189.669436,245.212893 L189.545623,236.085762 L198.741111,230.967644 C197.415478,232.78887 196.527945,234.18941 196.078513,235.169264 L192.561518,237.077944 L195.838008,238.621546 C196.063228,239.574547 196.48041,240.531454 197.027695,241.357455 C198.103997,242.981884 200.689861,242.07483 202.903306,241.95011 L218.206398,249.159619 L219.200159,249.49292 L219.093259,249.577432 L221.047829,250.498258 L240.854281,239.638499 C242.554276,239.729878 243.621089,240.160409 244.054719,240.930092 L221.965914,253.300819 L221.965914,256.432539 L248.589225,241.59827 L250.176944,241.449513 L251.621065,239.908956 L260.410986,235.011291 L260.403978,231.773769 L252.791464,236.03712 C252.139335,234.915619 251.940656,234.043318 252.195427,233.420216 L260.039548,229.119331 L249.404675,224.049121 C249.418119,222.700463 249.486286,221.737238 249.609177,221.159447 L263.488657,227.555198 L263.500337,235.873536 L258.254773,239.236292 L221.038485,259.966304 L211.579502,255.517579 L205.210644,260.552604 L199.703547,249.932111 Z M196.764298,236.947494 C196.814274,236.505313 196.950141,236.055682 197.173258,235.608448 L199.374424,231.230545 C199.951297,230.096181 200.255738,228.833639 200.264661,227.561256 L200.341023,211.068322 C200.345676,209.805812 200.051955,208.541919 199.491604,207.407385 L197.311442,203.012514 C197.03961,202.466319 196.901766,201.861775 196.908833,201.269202 C196.914144,200.162916 197.39497,199.099386 198.214827,198.363573 C199.045997,197.616446 200.145541,197.256489 201.25266,197.370808 C201.722504,197.422036 202.179282,197.556366 202.604677,197.77811 L206.963061,199.935928 C208.083534,200.493532 209.347427,200.787252 210.623998,200.785346 L214.231398,200.766621 C214.828173,200.763756 215.314227,201.24981 215.309961,201.845185 C215.312798,202.133699 215.201717,202.404464 214.990994,202.615187 C214.781686,202.824495 214.510921,202.935576 214.220992,202.934153 L210.615007,202.951464 C209.010457,202.961982 207.406331,202.591077 205.986813,201.878682 L201.628428,199.720863 C201.402343,199.613574 201.205606,199.549776 201.012854,199.535219 C200.512072,199.47851 200.032796,199.632816 199.652567,199.971023 C199.29207,200.303506 199.081505,200.774607 199.074951,201.260211 C199.076496,201.524805 199.141357,201.793318 199.256996,202.039067 L201.434358,206.431136 C202.152316,207.864702 202.52182,209.467428 202.508555,211.057917 L202.432193,227.550851 C202.424531,229.146943 202.035379,230.757533 201.317726,232.192361 L199.108088,236.575934 C199.007217,236.772054 198.938658,236.980687 198.915165,237.183473 C198.857726,237.71436 199.038226,238.228622 199.408019,238.598415 C199.780614,238.97101 200.294876,239.15151 200.825763,239.094071 C201.027148,239.069177 201.237182,239.002019 201.433302,238.901148 L205.816875,236.69151 C207.251703,235.973857 208.862293,235.584705 210.458385,235.577042 L238.549022,235.445005 C240.139511,235.43174 241.742237,235.801244 243.175803,236.519202 L247.538403,238.678408 C247.730749,238.777414 247.935945,238.838357 248.142717,238.864106 C248.677279,238.920653 249.198914,238.737995 249.570861,238.366048 C249.94705,237.989859 250.131123,237.466809 250.074576,236.932247 C250.05016,236.740951 249.989217,236.535755 249.886076,236.325131 L247.728258,231.966747 C247.014462,230.545829 246.644957,228.943103 246.655475,227.338553 L246.657435,226.050721 C246.658899,225.452545 247.149642,224.961802 247.746404,224.961753 C248.337522,224.964545 248.832034,225.447743 248.827769,226.043117 L248.821593,227.329562 C248.819687,228.606133 249.113408,229.870026 249.66961,230.989098 L251.82883,235.348883 C252.053375,235.777079 252.184904,236.231056 252.230582,236.684037 C252.357157,237.876952 251.944805,239.042898 251.096258,239.891445 C250.353779,240.633923 249.37645,241.042555 248.336323,241.046141 C248.182914,241.04547 248.036548,241.043358 247.880432,241.02018 C247.441526,240.974434 246.986134,240.844319 246.559353,240.61836 L242.198154,238.460555 C241.06502,237.901605 239.801141,237.605069 238.538617,237.612537 L210.446579,237.743174 C209.175596,237.753498 207.911654,238.056538 206.778691,238.634812 L202.400788,240.835978 C201.953554,241.059095 201.503923,241.194962 201.061742,241.244938 C199.868931,241.390002 198.704062,240.991655 197.862222,240.149815 C197.020383,239.307975 196.619233,238.140305 196.764298,236.947494 Z M216.317792,201.621152 C216.318954,201.329294 216.435998,201.058516 216.648581,200.845933 C216.861164,200.63335 217.133377,200.51487 217.423799,200.515145 L238.572151,200.227072 C239.853136,200.206704 241.126859,199.888926 242.272547,199.299475 L246.699508,197.041558 C247.150337,196.811547 247.60699,196.673542 248.072456,196.616169 C249.187829,196.481897 250.298082,196.825127 251.115433,197.556296 L251.266371,197.707234 C251.981932,198.422795 252.387741,199.411771 252.373465,200.454666 C252.362291,201.064004 252.216562,201.670935 251.938452,202.220175 L249.660154,206.687083 C249.069306,207.831373 248.752926,209.106493 248.73116,210.386081 L248.569511,222.195162 C248.569786,222.485583 248.455538,222.759156 248.241518,222.973175 C248.036117,223.178577 247.761108,223.294261 247.464941,223.299732 C246.864143,223.307956 246.38058,222.824393 246.388804,222.223595 L246.550414,210.417349 C246.572409,208.810498 246.977144,207.187074 247.713879,205.734778 L249.992138,201.270704 C250.114461,201.028188 250.184764,200.756634 250.188527,200.481741 C250.193336,200.026911 250.015297,199.578834 249.691059,199.254595 C249.670095,199.233632 249.651926,199.215463 249.623781,199.201681 C249.252957,198.86533 248.781742,198.721609 248.273689,198.785232 C248.085018,198.803398 247.867231,198.878632 247.650377,198.98927 L243.224852,201.245751 C241.772556,201.982486 240.149132,202.38722 238.542281,202.409216 L217.396724,202.700084 C217.096325,202.704196 216.828845,202.580353 216.631787,202.383294 C216.436125,202.187633 216.312283,201.920153 216.317792,201.621152 Z M234.188926,211.286737 C235.188177,209.275885 235.188177,208.270459 236.187428,208.270459 C237.186679,208.270459 237.186679,209.275885 236.187428,212.292163 C235.188177,215.30844 231.191173,224.357273 221.198662,226.368125 C217.173371,226.874395 216.553065,226.877953 216.202406,226.368125 C215.856675,225.865462 216.726782,224.856428 220.199411,224.357273 C231.191173,222.346421 233.189675,213.297589 234.188926,211.286737 Z M226.263351,213.960455 C228.127979,212.721719 228.627605,211.850995 229.492984,212.353703 C230.358359,212.856421 229.793293,214.353918 227.494479,215.836605 C225.195666,217.319292 222.197913,217.319292 219.510082,216.464349 C215.772498,214.87771 215.233529,214.568721 215.183198,213.950784 C215.133574,213.341532 216.388527,212.905425 219.643957,214.220187 C223.197164,215.30844 224.398723,215.199191 226.263351,213.960455 Z" transform="translate(-189.001 -196)"/>
</svg>
