<svg xmlns="http://www.w3.org/2000/svg" width="47" height="47" viewBox="0 0 47 47">
  <path fill="#748592" d="M1088.12545,242.499366 L1134.33552,242.499366 L1134.33552,243.24469 L1134.33552,288.709437 L1133.59019,288.709437 C1133.13033,288.709437 1132.68463,288.470933 1132.12042,288.167586 C1131.33112,287.744988 1130.34878,287.218789 1129.11825,287.218789 C1128.32895,287.218789 1127.74387,287.442386 1127.00228,287.725609 C1125.85224,288.16386 1124.42197,288.709437 1121.66501,288.709437 L1120.91969,288.709437 L1120.91969,287.964113 C1120.91969,283.439998 1122.68164,279.18569 1125.88131,275.986015 L1126.13696,275.730369 L1126.13696,273.473529 C1119.69289,269.612007 1115.70242,262.610436 1115.70242,255.078195 L1115.70242,253.093398 C1113.67962,251.710822 1112.09878,249.727516 1111.23048,247.396888 C1110.36218,249.727516 1108.78135,251.710822 1106.75854,253.093398 L1106.75854,255.078195 C1106.75854,262.609691 1102.76808,269.612007 1096.32401,273.473529 L1096.32401,275.730369 L1096.57965,275.986015 C1099.77933,279.18569 1101.54127,283.439998 1101.54127,287.964113 L1101.54127,288.709437 L1100.79595,288.709437 C1098.039,288.709437 1096.60872,288.16386 1095.45869,287.725609 C1094.71709,287.442386 1094.13201,287.218789 1093.34271,287.218789 C1092.11218,287.218789 1091.12985,287.744988 1090.34055,288.167586 C1089.77634,288.470933 1089.33064,288.709437 1088.87077,288.709437 L1088.12545,288.709437 L1088.12545,243.24469 L1088.12545,242.499366 Z M1089.61609,249.005297 L1089.61609,272.312315 L1092.23889,272.312315 C1096.18016,267.426718 1098.40346,261.333697 1098.54582,255.064033 C1094.69995,254.576592 1091.41978,252.258635 1089.61609,249.005297 Z M1093.34271,285.728142 C1093.89723,285.728142 1094.36977,285.809382 1094.81249,285.930124 C1094.70666,282.870571 1093.72656,279.946666 1091.93927,277.443869 L1091.46822,276.784257 L1089.61609,276.784257 L1089.61609,286.86476 C1089.6228,286.861779 1089.63026,286.858052 1089.63696,286.854326 C1090.47322,286.405641 1091.73803,285.728142 1093.34271,285.728142 Z M1100.03274,287.203137 C1099.84715,283.361739 1098.26409,279.778222 1095.52651,277.040648 L1095.27087,276.785002 L1093.28905,276.785002 C1095.26863,279.641083 1096.32103,282.977897 1096.32401,286.458559 C1097.21765,286.791719 1098.27154,287.12786 1100.03274,287.203137 Z M1105.26789,255.077449 L1105.26789,253.962445 C1103.69079,254.73311 1101.92139,255.169869 1100.05063,255.169869 C1100.04541,255.169869 1100.04019,255.169124 1100.03423,255.169124 C1099.8792,261.346367 1097.80646,267.358893 1094.1253,272.312315 L1095.3685,272.312315 C1101.47718,268.743705 1105.26789,262.161006 1105.26789,255.077449 Z M1100.05063,253.679222 C1105.55335,253.679222 1110.07523,249.397337 1110.45907,243.990014 L1108.21118,243.990014 C1107.8333,248.162336 1104.31984,251.443251 1100.05063,251.443251 C1097.98235,251.443251 1096.00725,250.671095 1094.48828,249.267651 L1095.49968,248.17277 C1096.74213,249.320569 1098.358,249.952603 1100.05063,249.952603 C1103.497,249.952603 1106.3419,247.338753 1106.71457,243.990014 L1104.45922,243.990014 C1104.3422,244.689873 1104.06196,245.35023 1103.62893,245.927855 L1102.43641,245.032722 C1102.67268,244.718195 1102.83292,244.363421 1102.92907,243.990014 L1097.17517,243.990014 C1097.50833,245.272716 1098.66582,246.225985 1100.05063,246.225985 C1100.5485,246.225985 1101.04191,246.10077 1101.47643,245.863758 L1102.19045,247.172546 C1101.53755,247.528065 1100.79744,247.716632 1100.05063,247.716632 C1097.83851,247.716632 1096.00203,246.101516 1095.64576,243.990014 L1093.4001,243.990014 C1093.52681,245.13334 1093.9263,246.220768 1094.60529,247.162857 L1093.39638,248.034886 C1092.5318,246.83566 1092.01976,245.450103 1091.88859,243.990014 L1089.64218,243.990014 C1090.02602,249.397337 1094.5479,253.679222 1100.05063,253.679222 Z M1112.00189,243.990014 C1112.38573,249.397337 1116.90761,253.679222 1122.41034,253.679222 C1127.91306,253.679222 1132.43494,249.397337 1132.81878,243.990014 L1130.55747,243.990014 C1130.44195,245.260045 1130.04991,246.487593 1129.3739,247.572785 L1128.10834,246.784978 C1128.63677,245.936054 1128.95577,244.980549 1129.06608,243.990014 L1126.81371,243.990014 C1126.56626,245.450848 1125.60778,246.718644 1124.22595,247.332791 L1123.62074,245.970339 C1124.46296,245.596186 1125.06667,244.857571 1125.29176,243.990014 L1119.53562,243.990014 C1119.86878,245.272716 1121.02627,246.225985 1122.41108,246.225985 L1122.41108,247.716632 C1120.19896,247.716632 1118.36249,246.101516 1118.00622,243.990014 L1115.75981,243.990014 C1115.80826,244.429755 1115.88428,244.865769 1116.0177,245.286877 L1114.59786,245.739288 C1114.41674,245.171352 1114.30196,244.584782 1114.2483,243.990014 L1112.00189,243.990014 Z M1117.19307,255.077449 C1117.19307,262.161006 1120.98379,268.743705 1127.09246,272.312315 L1128.33492,272.312315 C1124.65376,267.358893 1122.58176,261.346367 1122.42674,255.169124 C1122.42077,255.169124 1122.41556,255.169869 1122.41034,255.169869 C1120.53958,255.169869 1118.77018,254.73311 1117.19307,253.962445 L1117.19307,255.077449 Z M1126.1377,286.457814 C1126.14068,282.977152 1127.19308,279.640338 1129.17266,276.784257 L1127.19084,276.784257 L1126.9352,277.039903 C1124.19688,279.778222 1122.61381,283.361739 1122.42897,287.202392 C1124.19017,287.127114 1125.24331,286.791719 1126.1377,286.457814 Z M1132.84487,286.86476 L1132.84487,276.784257 L1130.99274,276.784257 L1130.5217,277.443869 C1128.73441,279.946666 1127.75356,282.870571 1127.64847,285.930124 C1128.0912,285.809382 1128.56373,285.728142 1129.11825,285.728142 C1130.72293,285.728142 1131.98775,286.405641 1132.824,286.854326 C1132.83071,286.858052 1132.83816,286.861779 1132.84487,286.86476 Z M1132.76823,275.516381 L1132.76823,273.40736 L1127.14418,273.40736 L1127.14418,275.516381 L1132.76823,275.516381 Z M1095.24015,275.516381 L1095.24015,273.40736 L1089.61609,273.40736 L1089.61609,275.516381 L1095.24015,275.516381 Z M1130.22208,272.312315 L1132.84487,272.312315 L1132.84487,249.004552 C1131.04193,252.258635 1127.76102,254.576592 1123.91515,255.064033 C1124.0575,261.333697 1126.2808,267.426718 1130.22208,272.312315 Z M1127.33395,247.800109 L1128.42808,248.813003 C1126.88079,250.484765 1124.6873,251.443251 1122.41034,251.443251 C1119.47749,251.443251 1116.7496,249.860929 1115.29175,247.313412 L1116.58489,246.57256 C1117.77815,248.657976 1120.0104,249.952603 1122.41034,249.952603 C1124.27365,249.952603 1126.06839,249.167778 1127.33395,247.800109 Z" transform="translate(-1087.66 -242.33)"/>
</svg>
