<svg xmlns="http://www.w3.org/2000/svg" width="96" height="81" viewBox="0 0 96 81">
  <path fill="#748592" fill-rule="evenodd" d="M1627.36554,206.58306 C1627.21566,206.741181 1627.08511,206.916331 1626.97633,207.106077 L1623.8119,207.106077 C1623.12293,207.113375 1622.56692,207.677746 1622.56692,208.371048 C1622.56692,209.064349 1623.12293,209.631154 1623.8119,209.636019 L1626.97633,209.636019 C1627.08511,209.828197 1627.21566,210.003347 1627.36554,210.161469 L1668.24925,251.29979 C1668.40397,251.453046 1668.58044,251.584409 1668.769,251.691445 L1668.769,254.878199 C1668.77625,255.571501 1669.3371,256.131007 1670.02607,256.131007 C1670.71504,256.131007 1671.27588,255.571501 1671.28314,254.878199 L1671.28314,251.691445 C1671.47411,251.584409 1671.64817,251.453046 1671.80289,251.29979 L1712.6866,210.161469 C1712.8389,210.003347 1712.96944,209.828197 1713.07581,209.636019 L1716.24023,209.636019 C1716.69471,209.640884 1717.11293,209.400053 1717.34017,209.008399 C1717.56499,208.614312 1717.56499,208.130217 1717.34017,207.73613 C1717.11293,207.342043 1716.69471,207.103644 1716.24023,207.106077 L1713.07581,207.106077 C1712.96944,206.916331 1712.8389,206.741181 1712.6866,206.58306 C1712.6866,206.58306 1693.96112,186.771665 1683.21078,176.4062 C1677.54914,176.520534 1664.30641,176.291866 1657.85668,176.179965 C1646.19496,186.657332 1627.36554,206.58306 1627.36554,206.58306 L1627.36554,206.58306 Z M1668.24925,190.486302 C1669.23073,191.47152 1670.82141,191.47152 1671.80289,190.486302 L1672.2066,190.077619 C1675.21147,192.391057 1678.04713,194.918566 1680.69181,197.640687 C1684.26478,201.138819 1687.49689,204.979952 1690.33255,209.105704 C1693.01349,213.000356 1696.03529,216.642013 1699.35926,219.994187 L1695.80563,223.570163 C1692.57351,220.322593 1689.64358,216.785539 1687.04725,213.002788 C1684.12457,208.765135 1680.80784,204.816966 1677.13575,201.216663 C1673.55795,197.52392 1669.63444,194.18391 1665.42327,191.245285 C1661.66415,188.632633 1658.15161,185.681844 1654.92191,182.431841 L1657.58351,179.753508 L1668.24925,190.486302 Z M1658.63026,198.669692 C1662.73266,201.523175 1666.54979,204.773178 1670.02607,208.371048 C1673.60146,211.871612 1676.83116,215.710313 1679.66681,219.838498 C1682.34775,223.730717 1685.36955,227.374807 1688.69594,230.724548 L1685.13989,234.302957 C1681.90778,231.055386 1678.98026,227.5159 1676.38151,223.735582 C1673.45883,219.495496 1670.14211,215.549759 1666.47243,211.949457 C1662.89221,208.256714 1658.97112,204.916704 1654.75995,201.975646 C1651.00083,199.365426 1647.48587,196.414638 1644.25618,193.164635 L1647.81223,189.586226 C1651.14104,192.933535 1654.76236,195.971898 1658.63026,198.669692 L1658.63026,198.669692 Z M1649.58905,187.795806 L1653.1451,184.219829 C1656.47391,187.567138 1660.09523,190.605501 1663.96313,193.303295 C1668.06553,196.159211 1671.88024,199.406781 1675.35894,203.007084 C1678.93433,206.505215 1682.16403,210.346349 1685.0021,214.474534 C1687.68062,218.366753 1690.70242,222.00841 1694.02639,225.360584 L1690.47276,228.93656 C1687.24065,225.686557 1684.31071,222.149503 1681.71438,218.369185 C1678.7917,214.131532 1675.47497,210.183362 1671.80289,206.58306 C1668.22508,202.890317 1664.30399,199.550307 1660.09281,196.609249 C1656.3337,193.999029 1652.81874,191.048241 1649.58905,187.795806 L1649.58905,187.795806 Z M1653.2974,204.036089 C1657.39979,206.892005 1661.21692,210.139575 1664.6932,213.737445 C1668.26859,217.238009 1671.49829,221.07671 1674.33636,225.204895 C1677.01488,229.097114 1680.03668,232.741204 1683.36307,236.090945 L1679.80702,239.669353 C1676.57733,236.419351 1673.64497,232.882297 1671.04864,229.101979 C1668.12838,224.861893 1664.80924,220.916156 1661.13715,217.315854 C1657.56176,213.620678 1653.63825,210.280668 1649.42466,207.342043 C1645.66796,204.729391 1642.15301,201.781035 1638.92573,198.531032 L1642.47936,194.952623 C1645.81059,198.297499 1649.4295,201.338295 1653.2974,204.036089 L1653.2974,204.036089 Z M1637.14649,200.316587 C1640.47772,203.663896 1644.09663,206.704692 1647.96453,209.400053 C1652.06692,212.255969 1655.88405,215.505972 1659.36033,219.103842 C1662.93814,222.604406 1666.16542,226.44554 1669.00349,230.571292 C1671.68201,234.463511 1674.70381,238.107601 1678.03021,241.457342 L1674.47415,245.03575 C1671.24446,241.785748 1668.3121,238.248694 1665.71578,234.465943 C1662.79551,230.22829 1659.47637,226.282553 1655.80428,222.68225 C1652.22889,218.987075 1648.30539,215.649497 1644.09421,212.708439 C1640.33751,210.095787 1636.82255,207.144999 1633.59286,203.894996 L1637.14649,200.316587 Z M1701.1385,218.206199 C1697.90638,214.956196 1694.97645,211.419142 1692.38012,207.636392 C1689.45744,203.398738 1686.13829,199.453001 1682.46862,195.850266 C1679.82153,193.133011 1676.99313,190.600636 1674.00034,188.275035 L1677.53947,184.713655 C1680.54434,187.02466 1683.37758,189.552169 1686.02467,192.271857 C1689.59765,195.772422 1692.82735,199.613555 1695.66542,203.739307 C1698.34636,207.633959 1701.36574,211.278049 1704.69455,214.62779 L1701.1385,218.206199 Z M1670.02607,188.695881 L1660.61982,179.228059 L1679.43474,179.228059 L1670.02607,188.695881 Z M1635.11343,214.382094 L1635.10859,214.374796 L1635.0965,214.365065 L1629.14235,208.373481 L1631.81604,205.685417 C1635.14244,209.030293 1638.76376,212.071089 1642.63408,214.76645 C1646.73647,217.622366 1650.55119,220.872369 1654.02746,224.470239 C1657.60285,227.970803 1660.83497,231.809504 1663.67062,235.937689 C1666.35156,239.829908 1669.37094,243.473998 1672.69734,246.823738 L1670.02607,249.511802 L1635.11343,214.382094 Z M1706.47137,212.839802 C1703.23925,209.589799 1700.3069,206.052745 1697.71299,202.269995 C1694.79031,198.032341 1691.47116,194.084172 1687.80149,190.486302 C1685.1544,187.766614 1682.32599,185.234239 1679.33079,182.908638 L1682.46862,179.753508 L1710.90737,208.371048 L1706.47137,212.839802 Z" transform="translate(-1622.001 -176)"/>
</svg>
