<svg xmlns="http://www.w3.org/2000/svg" width="37" height="44" viewBox="0 0 37 44">
  <path fill="#F39325" fill-rule="evenodd" d="M1512.19045,147.212037 C1512.21094,147.234393 1512.23041,147.258781 1512.2468,147.284186 C1512.34617,147.483357 1512.32364,147.72216 1512.1884,147.898975 L1512.19045,147.908121 L1512.19045,162.806356 C1512.19045,163.031948 1512.06137,163.238233 1511.85749,163.338835 L1509.45506,164.530816 C1509.44994,164.533864 1509.44277,164.532848 1509.43765,164.534881 C1509.27988,164.613127 1509.09342,164.613127 1508.9336,164.534881 C1508.92848,164.532848 1508.92335,164.533864 1508.91721,164.530816 L1506.51376,163.338835 C1506.31091,163.238233 1506.18182,163.031948 1506.18182,162.806356 L1506.18182,160.492511 L1497.17041,164.961677 L1497.17041,169.957224 C1497.17041,170.182817 1497.04133,170.389102 1496.83848,170.489703 L1494.43502,171.681684 C1494.4299,171.684733 1494.42375,171.6827 1494.41863,171.685749 C1494.25984,171.763995 1494.07338,171.763995 1493.91458,171.685749 C1493.90946,171.6827 1493.90331,171.684733 1493.89717,171.681684 L1491.49474,170.489703 C1491.29087,170.389102 1491.16178,170.182817 1491.16178,169.957224 L1491.16178,164.961677 L1482.15037,160.492511 L1482.15037,162.806356 C1482.15037,163.031948 1482.02231,163.238233 1481.81946,163.338835 L1479.41601,164.530816 C1479.41088,164.533864 1479.40474,164.532848 1479.39859,164.534881 C1479.23979,164.613127 1479.05334,164.613127 1478.89454,164.534881 C1478.88942,164.532848 1478.88327,164.533864 1478.87815,164.530816 L1476.47572,163.338835 C1476.27185,163.238233 1476.14379,163.031948 1476.14379,162.806356 L1476.14379,138.411906 C1476.14686,138.360081 1476.15711,138.309272 1476.1735,138.260495 C1476.09871,137.991207 1476.22472,137.706676 1476.47572,137.58067 L1493.89717,128.940079 C1493.91151,128.932966 1493.92483,128.933982 1493.93917,128.928901 C1493.97708,128.914675 1494.01601,128.903497 1494.05699,128.8974 C1494.1287,128.878092 1494.20451,128.878092 1494.27623,128.8974 C1494.31721,128.903497 1494.35716,128.914675 1494.39507,128.928901 C1494.40839,128.933982 1494.42171,128.932966 1494.43502,128.940079 L1511.85749,137.58067 C1512.10849,137.706676 1512.2345,137.991207 1512.15869,138.260495 C1512.17611,138.309272 1512.18635,138.360081 1512.19045,138.411906 L1512.19045,147.212037 Z M1497.17041,155.427863 L1497.17041,161.578809 L1508.21441,156.101591 L1506.64899,155.325229 C1506.63669,155.318115 1506.62542,155.30897 1506.61518,155.299824 C1506.59571,155.288646 1506.57932,155.275436 1506.56396,155.260193 C1506.55166,155.245967 1506.54142,155.230724 1506.5322,155.213449 C1506.52093,155.198206 1506.51171,155.180931 1506.50351,155.163656 C1506.49736,155.143332 1506.49327,155.123009 1506.49122,155.102685 C1506.48712,155.088458 1506.48405,155.074232 1506.482,155.058989 L1506.482,154.050937 L1503.21387,152.430128 L1497.17041,155.427863 Z M1506.482,153.385339 L1506.482,150.809319 L1503.88492,152.096821 L1506.482,153.385339 Z M1508.58527,155.619921 L1508.58527,149.766717 L1507.08337,150.511578 L1507.08337,154.87506 L1508.58527,155.619921 Z M1494.46781,155.435993 L1510.98873,147.241506 L1510.98873,138.744197 L1494.46781,146.937668 L1494.46781,155.435993 Z M1491.16178,161.578809 L1491.16178,155.427863 L1485.11934,152.430128 L1481.85019,154.050937 L1481.85019,155.058989 C1481.84815,155.074232 1481.8461,155.088458 1481.842,155.102685 C1481.83995,155.123009 1481.83483,155.143332 1481.8297,155.163656 C1481.82151,155.180931 1481.81126,155.198206 1481.80102,155.213449 C1481.7918,155.230724 1481.78155,155.245967 1481.76926,155.260193 C1481.75389,155.275436 1481.73648,155.288646 1481.71804,155.299824 C1481.70779,155.30897 1481.69652,155.318115 1481.68525,155.325229 L1480.11881,156.101591 L1491.16178,161.578809 Z M1481.25087,150.511578 L1479.74794,149.766717 L1479.74794,155.619921 L1481.25087,154.87506 L1481.25087,150.511578 Z M1481.85019,150.809319 L1481.85019,153.385339 L1484.44728,152.096821 L1481.85019,150.809319 Z M1477.34449,147.241506 L1493.86643,155.435993 L1493.86643,146.937668 L1477.34449,138.744197 L1477.34449,147.241506 Z M1494.16661,130.139173 L1477.75121,138.279802 L1494.16661,146.421448 L1510.582,138.279802 L1494.16661,130.139173 Z M1477.34449,148.574736 L1477.34449,162.437482 L1478.54622,163.033981 L1478.54622,149.170218 L1477.34449,148.574736 Z M1480.94967,162.437482 L1480.94967,159.897029 L1479.74794,159.301546 L1479.74794,163.033981 L1480.94967,162.437482 Z M1479.74794,157.968317 L1491.16178,163.629463 L1491.16178,162.245424 L1479.74794,156.584277 L1479.74794,157.968317 Z M1492.36453,156.023345 L1492.36453,169.588351 L1493.56626,170.183833 L1493.56626,156.618828 L1492.36453,156.023345 Z M1494.76798,170.183833 L1495.96868,169.588351 L1495.96868,156.023345 L1494.76798,156.618828 L1494.76798,170.183833 Z M1497.17041,162.245424 L1497.17041,163.629463 L1508.58527,157.968317 L1508.58527,156.584277 L1497.17041,162.245424 Z M1507.38355,159.897029 L1507.38355,162.437482 L1508.58527,163.033981 L1508.58527,159.301546 L1507.38355,159.897029 Z M1509.787,163.033981 L1510.98873,162.437482 L1510.98873,148.574736 L1509.787,149.170218 L1509.787,163.033981 Z M1492.6306,152.77728 C1492.62662,152.887621 1492.56776,152.98824 1492.47238,153.044574 C1492.37829,153.10051 1492.2611,153.103074 1492.16494,153.051947 L1478.32918,146.319766 C1478.22383,146.263749 1478.15866,146.152328 1478.16248,146.032177 L1478.39192,140.967247 C1478.39544,140.857749 1478.45476,140.756287 1478.54968,140.700796 C1478.64506,140.644462 1478.76097,140.642297 1478.85713,140.693423 L1492.6549,147.511509 C1492.76025,147.567525 1492.82542,147.678947 1492.82159,147.799098 L1492.6306,152.77728 Z M1492.01323,152.250064 L1492.13337,147.989901 L1478.85368,141.716081 L1478.83991,145.806715 L1492.01323,152.250064 Z M1485.49249,146.94349 C1485.41401,146.975562 1485.32682,146.974909 1485.25008,146.942401 L1484.08769,146.449969 C1483.92724,146.381997 1483.85211,146.195688 1483.92086,146.034043 C1483.98961,145.872399 1484.17608,145.796914 1484.33653,145.864887 L1485.49892,146.357318 C1485.57566,146.389826 1485.6367,146.451974 1485.66847,146.529715 C1485.699,146.607964 1485.69813,146.694688 1485.66488,146.772875 C1485.632,146.850183 1485.56972,146.911926 1485.49249,146.94349 Z" transform="translate(-1475.66 -128.33)"/>
</svg>
