<svg xmlns="http://www.w3.org/2000/svg" width="72" height="67" viewBox="0 0 72 67">
  <path fill="#748592" fill-rule="evenodd" d="M554.970277,373.393258 C554.979399,373.409255 554.98624,373.427537 554.995361,373.443533 C555.070614,373.608071 555.1071,373.786321 555.10492,373.966856 L555.10492,397.644342 C555.102539,398.064828 554.876782,398.453321 554.514201,398.661278 L554.514201,404.756043 C554.514201,404.979998 554.3865,405.18567 554.185826,405.286221 L551.82107,406.469981 C551.654602,406.554536 551.458489,406.554536 551.292022,406.469981 L548.927266,405.286221 C548.726592,405.18567 548.601171,404.979998 548.601171,404.756043 L548.601171,401.636675 L509.574719,421.191568 L509.574719,427.272621 C509.574719,427.496576 509.447017,427.702249 509.248624,427.8028 L506.883868,428.98656 C506.7174,429.071114 506.521287,429.071114 506.35482,428.98656 L503.990064,427.8028 C503.78711,427.702249 503.661689,427.496576 503.661689,427.272621 L503.661689,421.191568 L490.654392,414.671747 L490.654392,417.791115 C490.654392,418.01507 490.52669,418.220742 490.326017,418.321293 L487.961261,419.507338 C487.794793,419.589607 487.59868,419.589607 487.432212,419.507338 L485.067456,418.321293 C484.866783,418.220742 484.741362,418.01507 484.741362,417.791115 L484.741362,411.698636 C484.376501,411.488393 484.150743,411.102185 484.148462,410.681699 L484.148462,386.972219 C484.150743,386.693419 484.248799,386.421474 484.43351,386.208946 C484.481398,386.151814 484.533847,386.099254 484.590857,386.053549 L484.593137,386.053549 C484.666109,385.996417 484.743642,385.946142 484.825736,385.907292 L532.10717,362.216095 C532.440106,362.049272 532.832332,362.049272 533.165267,362.216095 L554.438948,372.876791 C554.666987,372.986483 554.851697,373.167018 554.970277,373.390973 L554.970277,373.393258 Z M507.802862,419.42964 L552.740064,396.913061 L552.740064,375.861329 L507.802862,398.377907 L507.802862,419.42964 Z M529.607872,384.801231 L537.155935,381.016855 L531.452701,378.160291 L523.906918,381.942382 L529.607872,384.801231 Z M530.859801,377.131928 L530.859801,368.975868 L527.313808,370.753793 L527.313808,378.909854 L530.859801,377.131928 Z M526.13257,379.501734 L526.13257,371.345673 L522.584296,373.123598 L522.584296,381.279659 L526.13257,379.501734 Z M521.400778,381.871539 L521.400778,373.715478 L517.852504,375.493403 L517.852504,383.649464 L521.400778,381.871539 Z M516.671266,384.24363 L516.671266,376.087569 L513.120712,377.863209 L513.120712,386.021555 L516.671266,384.24363 Z M511.939474,386.61115 L511.939474,378.455089 L508.393481,380.233014 L508.393481,388.389075 L511.939474,386.61115 Z M507.209963,388.98324 L507.209963,380.827179 L503.661689,382.605105 L503.661689,390.761166 L507.209963,388.98324 Z M502.480451,391.353046 L502.480451,383.196985 L498.932177,384.97491 L498.932177,392.468248 L499.593488,392.79961 L502.480451,391.353046 Z M497.748659,391.876368 L497.748659,385.56679 L494.202665,387.344715 L494.202665,390.098443 L497.748659,391.876368 Z M522.684633,382.552544 L500.916109,393.462332 L506.617063,396.318896 L528.285251,385.461669 L522.910391,382.769643 C522.816895,382.719367 522.739362,382.643954 522.684633,382.552544 Z M532.636219,364.601897 L487.977223,386.979075 L493.019147,389.506563 L493.019147,386.979075 C493.019147,386.755121 493.144568,386.549448 493.345242,386.448897 L531.188176,367.485884 C531.370607,367.394474 531.589524,367.403615 531.762833,367.513307 C531.938422,367.620714 532.0456,367.81039 532.0456,368.018347 L532.0456,377.131928 L538.478557,380.356418 L551.278339,373.941718 L532.636219,364.601897 Z M486.515499,388.896401 L486.515499,409.948133 L505.435826,419.42964 L505.435826,398.377907 L486.515499,388.896401 Z M485.922599,417.425475 L487.103837,418.017355 L487.103837,412.893822 L485.922599,412.301942 L485.922599,417.425475 Z M489.470873,417.425475 L489.470873,414.079867 L488.289636,413.487987 L488.289636,418.017355 L489.470873,417.425475 Z M504.845207,426.906981 L506.026445,427.498861 L506.026445,422.377614 L504.845207,421.783448 L504.845207,426.906981 Z M508.393481,426.906981 L508.393481,421.783448 L507.209963,422.377614 L507.209963,427.498861 L508.393481,426.906981 Z M549.782409,401.044795 L549.782409,404.390403 L550.965927,404.982283 L550.965927,400.45063 L549.782409,401.044795 Z M552.147165,404.982283 L553.330683,404.390403 L553.330683,399.26687 L552.147165,399.85875 L552.147165,404.982283 Z M548.927266,380.522784 C549.109696,380.431374 549.328613,380.440515 549.504202,380.547922 C549.677511,380.655329 549.782409,380.84729 549.782409,381.052962 L549.782409,395.274079 C549.782409,395.498034 549.656988,395.703707 549.456314,395.804258 L511.61338,414.767271 C511.430949,414.858681 511.212033,414.847255 511.038724,414.739848 C510.863134,414.632441 510.758237,414.44048 510.758237,414.234807 L510.758237,400.01369 C510.758237,399.792021 510.883658,399.584063 511.084331,399.485797 L548.927266,380.522784 Z M543.869379,391.944469 L543.869379,384.382573 L540.323386,386.158213 L540.323386,390.168829 L543.869379,391.944469 Z M540.323386,391.491989 L540.323386,394.316559 L543.137377,392.904274 L540.323386,391.491989 Z M539.139867,394.908439 L539.139867,390.900109 L535.591594,389.122184 L535.591594,396.686365 L539.139867,394.908439 Z M539.139867,389.574663 L539.139867,386.752378 L536.323596,388.162378 L539.139867,389.574663 Z M534.408075,397.278245 L534.408075,389.122184 L530.859801,390.900109 L530.859801,399.05617 L534.408075,397.278245 Z M529.678564,399.64805 L529.678564,391.491989 L526.13257,393.269914 L526.13257,401.425975 L529.678564,399.64805 Z M524.949052,402.02014 L524.949052,393.86408 L521.400778,395.63972 L521.400778,403.798066 L524.949052,402.02014 Z M520.21954,404.389946 L520.21954,396.2316 L516.671266,398.009525 L516.671266,406.165586 L520.21954,404.389946 Z M520.21954,405.713106 L516.671266,407.491031 L516.671266,410.907482 L520.21954,409.129556 L520.21954,405.713106 Z M521.400778,405.121226 L521.400778,408.537676 L524.949052,406.759751 L524.949052,403.343301 L521.400778,405.121226 Z M526.13257,402.751421 L526.13257,406.167871 L529.678564,404.389946 L529.678564,400.973495 L526.13257,402.751421 Z M530.859801,400.381615 L530.859801,403.798066 L534.408075,402.02014 L534.408075,398.60369 L530.859801,400.381615 Z M535.591594,398.01181 L535.591594,401.425975 L539.139867,399.650335 L539.139867,396.233885 L535.591594,398.01181 Z M540.323386,395.63972 L540.323386,399.05617 L543.869379,397.278245 L543.869379,393.86408 L540.323386,395.63972 Z M545.052897,384.974453 L545.052897,391.944469 L548.601171,390.168829 L548.601171,386.752378 L545.052897,384.974453 Z M548.601171,385.426933 L548.601171,382.010482 L545.192001,383.717565 L548.601171,385.426933 Z M515.487748,398.60369 L511.939474,400.381615 L511.939474,408.537676 L515.487748,406.759751 L515.487748,398.60369 Z M511.939474,409.860837 L511.939474,413.277287 L515.487748,411.499362 L515.487748,408.085197 L511.939474,409.860837 Z M545.052897,396.686365 L548.601171,394.908439 L548.601171,391.491989 L545.052897,393.269914 L545.052897,396.686365 Z" transform="translate(-484.001 -362)"/>
</svg>
