<svg xmlns="http://www.w3.org/2000/svg" width="248" height="64" viewBox="0 0 248 64">
    <g fill="none" fill-rule="evenodd">
        <path fill="#F39325" d="M18.198 0c9.648 0 17.498 7.851 17.498 17.501 0 9.65-7.85 17.499-17.498 17.499C8.548 35 .696 27.15.696 17.501.696 7.851 8.547 0 18.198 0zm8.535 17.501v-.005c0-7.585-3.43-12.68-8.535-12.68-5.108 0-8.54 5.095-8.54 12.685 0 7.588 3.432 12.685 8.542 12.685 5.104 0 8.533-5.097 8.533-12.685zM184.416.284c.161.157.239.354.28.505v3.42a1.046 1.046 0 0 1-1.052 1.019l-9.307-.02v24.564c0 .098.003.197.006.293l.002 3.934c-.004.053-.044.44-.319.708-.295.288-.721.293-.721.293h-7.217c-.579-.012-1.037-.462-1.043-1.021V30.57c.012-.265.018-.531.018-.799V5.52l-.018-.311h-.32l-9.048.018a1.113 1.113 0 0 1-.668-.29c-.228-.22-.294-.528-.313-.66V1.027a1.058 1.058 0 0 1 1.062-1.024L183.788 0c.14.018.416.077.628.284zm28.96 34.423c-.295.288-.72.293-.72.293h-21.92c-.575-.012-1.032-.46-1.04-1.014V.98c.01-.095.062-.439.316-.686.295-.288.72-.293.72-.293H212.656s.426.005.721.293c.278.27.316.664.32.71v3.204c-.007.552-.46 1-1.033 1.016h-6.517c-.03.003-.058.011-.088.013h-7.03l.006 7.459h9.326c.108.012.45.066.698.308.288.28.3.677.3.695v3.13a1.047 1.047 0 0 1-1.06 1.01h-8.952l-.318.003v11.935h13.635c.573.017 1.026.464 1.033 1.016v3.204c-.004.042-.04.439-.32.71zM227.392.294c.205.206.274.486.298.63l.006 33.066a1.03 1.03 0 0 1-1.004 1.01h-6.99s-.412-.005-.698-.293c-.26-.261-.303-.633-.308-.701V1.038c0-.566.46-1.032 1.02-1.038h6.977s.412.006.699.294zM69.696 34.359c0 .348-.29.629-.65.634h-2.987c-3.334.094-6.054-.712-8.555-4.98l-5.6-10.595a.598.598 0 0 1-.102-.311c0-.346.288-.625.644-.633 4.092-.209 9.109-2.283 8.973-7.506-.14-5.296-5.395-6.319-9.568-6.335v-.001h-1.787v.13l.01 29.226c-.015.555-.476.999-1.045 1.01h-7.308c-.071-.006-.456-.049-.727-.31a1.076 1.076 0 0 1-.298-.632V1.038c0-.566.479-1.032 1.064-1.038h13.647C62.449 0 67.73 4.536 67.79 10.67c.072 7.366-5.826 9.6-5.826 9.6l7.631 13.778c.057.093.1.195.1.311zM113.298.912l3.392 33.09c.026.296-.037.527-.187.69-.172.19-.47.299-.83.306h-7.263s-.422-.005-.715-.293c-.216-.211-.285-.504-.308-.644l-2.21-21.88-7.769 22.364-.005.015a.648.648 0 0 1-.616.436V35l-4.563-.002c-.905-.016-1.239-.428-1.55-1.206L83.023 11.65l-2.844 21.972c-.122.862-.769 1.368-1.839 1.376h-2.996v-.002a.642.642 0 0 1-.647-.633l4.323-33.304c.095-.68.564-1.054 1.32-1.054L87.54 0c.097.007.424.046.673.29.095.094.162.204.21.31l7.589 21.876 7.44-21.339c.333-.816.759-1.132 1.587-1.132L112.324 0c.1.008.424.048.672.29.206.203.277.476.302.622zm40.745 34.086V35h-2.868c-3.37 0-6.228-2.106-7.294-5.042l-1.172-3.373a.336.336 0 0 0 .006-.012l-2.253-6.425h.012l-3.967-11.411-4.076 11.411h2.693c2.388 0 4.687 1.203 5.782 4.397a.626.626 0 0 1-.322.675.605.605 0 0 1-.264.065h-9.693l-3.083 8.585c-.268.81-.623 1.116-1.303 1.13h-3.893v-.002a.644.644 0 0 1-.652-.637c0-.09.024-.173.061-.249L133.74.91c.27-.7.553-.91 1.185-.91h7.237c.14.017.416.076.628.283.108.106.18.233.227.35l11.572 33.34c.019.04.028.078.042.12l.045.127c.012.045.02.092.02.141a.645.645 0 0 1-.653.637zm93.653-.64a.639.639 0 0 1-.634.635h-2.908c-3.25.094-5.902-.712-8.34-4.981l-6.02-11.683a1.013 1.013 0 0 1-.098-.42c0-.186.062-.349.128-.471l8.723-14.176c.002-.002.003 0 .005 0l1.38-2.244S240.512 0 241.47 0h4.202c.349.006.631.287.631.635a.61.61 0 0 1-.101.322l-8.767 14.285 10.16 18.792v.001c.058.096.102.203.102.324z"/>
        <path fill="#758693" d="M42.74 60.278h-1.029v-6.922h5.98v6.922h-1.03V54.2h-3.92v6.08zm8.646 3.55h-1.03V53.357h1.03v1.198h.046a2.777 2.777 0 0 1 1.173-1.028c.49-.231.986-.349 1.493-.349.554 0 1.056.095 1.505.283.45.187.834.443 1.152.768.318.326.564.71.74 1.153.176.445.266.922.266 1.436 0 .512-.09.99-.266 1.434a3.468 3.468 0 0 1-.74 1.153c-.318.326-.702.581-1.152.769-.45.188-.951.282-1.505.282a3.475 3.475 0 0 1-1.493-.348 2.855 2.855 0 0 1-1.173-.998h-.046v4.718zm5.286-7.01c0-.385-.063-.746-.183-1.087a2.618 2.618 0 0 0-.523-.888 2.434 2.434 0 0 0-.84-.598 2.769 2.769 0 0 0-1.135-.222c-.393 0-.758.07-1.091.214a2.626 2.626 0 0 0-1.431 1.479c-.136.34-.203.708-.203 1.102 0 .393.067.76.203 1.1.137.342.325.635.568.882.242.246.53.441.863.583.333.143.698.216 1.09.216.425 0 .803-.073 1.137-.216.333-.142.612-.339.839-.59.229-.253.4-.548.523-.889.12-.339.183-.702.183-1.086zm10.343 0c0 .522-.096 1.005-.281 1.45a3.472 3.472 0 0 1-.78 1.153c-.333.325-.732.579-1.196.76a4.126 4.126 0 0 1-1.529.275c-.547 0-1.05-.09-1.516-.275a3.533 3.533 0 0 1-1.196-.76 3.47 3.47 0 0 1-.779-1.153 3.71 3.71 0 0 1-.281-1.45c0-.523.094-1.006.281-1.45.186-.444.445-.828.779-1.154.333-.325.733-.579 1.196-.761a4.129 4.129 0 0 1 1.516-.275c.554 0 1.064.093 1.53.275.463.182.862.436 1.195.761.333.326.594.71.78 1.153.185.445.28.928.28 1.45zm-1.092 0c0-.385-.062-.746-.19-1.088a2.648 2.648 0 0 0-.537-.888 2.532 2.532 0 0 0-.847-.597 2.732 2.732 0 0 0-1.12-.222c-.415 0-.785.073-1.115.222a2.555 2.555 0 0 0-1.376 1.485c-.128.342-.19.703-.19 1.088 0 .383.062.747.19 1.086.126.341.304.636.537.888.233.252.511.449.84.59.329.144.699.216 1.114.216a2.81 2.81 0 0 0 1.12-.215 2.43 2.43 0 0 0 .847-.591 2.64 2.64 0 0 0 .537-.888c.128-.339.19-.703.19-1.086zm8.405-1.879a1.949 1.949 0 0 0-.75-.659 2.263 2.263 0 0 0-1.068-.257c-.413 0-.787.07-1.12.214a2.532 2.532 0 0 0-.855.59 2.58 2.58 0 0 0-.545.888 3.11 3.11 0 0 0-.19 1.102c0 .394.062.76.19 1.095.126.335.304.628.537.88.232.252.513.449.847.59.333.145.707.216 1.12.216.456 0 .84-.085 1.152-.251.312-.17.57-.385.773-.651l.771.562a3.354 3.354 0 0 1-1.112.872c-.44.216-.967.326-1.584.326-.573 0-1.095-.09-1.558-.275a3.423 3.423 0 0 1-1.188-.76 3.449 3.449 0 0 1-.766-1.154 3.795 3.795 0 0 1-.273-1.45c0-.522.09-1.005.273-1.45.182-.443.436-.827.766-1.153.328-.326.722-.58 1.188-.761a4.247 4.247 0 0 1 1.558-.275c.476 0 .958.102 1.447.303.49.203.885.502 1.19.896l-.803.562zm1.254-1.583h6.224v.843h-2.68v6.08h-1.03v-6.08h-2.514v-.843zm8.767 10.472H83.32V53.357h1.03v1.198h.045a2.777 2.777 0 0 1 1.174-1.028c.49-.231.986-.349 1.491-.349.555 0 1.057.095 1.507.283.45.187.833.443 1.152.768.317.326.563.71.74 1.153.176.445.266.922.266 1.436 0 .512-.09.99-.266 1.434a3.468 3.468 0 0 1-.74 1.153c-.319.326-.702.581-1.152.769-.45.188-.952.282-1.507.282a3.474 3.474 0 0 1-1.491-.348 2.855 2.855 0 0 1-1.174-.998h-.046v4.718zm5.286-7.01c0-.385-.063-.746-.182-1.087a2.618 2.618 0 0 0-.524-.888 2.434 2.434 0 0 0-.839-.598 2.769 2.769 0 0 0-1.136-.222c-.393 0-.757.07-1.09.214a2.626 2.626 0 0 0-1.432 1.479c-.135.34-.203.708-.203 1.102 0 .393.068.76.203 1.1.138.342.326.635.568.882.242.246.531.441.863.583.334.143.698.216 1.091.216.425 0 .803-.073 1.136-.216.334-.142.612-.339.84-.59.228-.253.4-.548.523-.889.12-.339.182-.702.182-1.086zm7.77-1.02c0-.596-.164-1.042-.485-1.336-.324-.293-.793-.44-1.41-.44-.424 0-.818.075-1.18.223a2.826 2.826 0 0 0-.925.59l-.576-.665c.293-.285.68-.522 1.16-.71.478-.187 1.021-.282 1.628-.282.383 0 .742.053 1.074.156.333.104.626.26.878.466.253.207.45.469.59.784.142.315.214.684.214 1.108v3.033c0 .266.01.542.03.828.02.286.05.528.09.725h-.924a8.35 8.35 0 0 1-.076-.547 6.008 6.008 0 0 1-.029-.578h-.03c-.324.464-.689.798-1.098 1-.409.2-.9.303-1.477.303-.271 0-.552-.038-.84-.112a2.372 2.372 0 0 1-.788-.363 2.07 2.07 0 0 1-.59-.653c-.156-.267-.234-.593-.234-.979 0-.534.137-.958.415-1.268.279-.313.649-.546 1.114-.7a6.68 6.68 0 0 1 1.598-.296 25.49 25.49 0 0 1 1.87-.067v-.22zm-.305 1.02c-.423 0-.85.016-1.28.05a5.789 5.789 0 0 0-1.165.209 2.218 2.218 0 0 0-.856.45c-.221.197-.334.459-.334.784 0 .246.049.455.146.621.095.169.224.303.385.407.162.104.342.178.537.221.198.046.398.067.6.067.362 0 .686-.061.968-.184.281-.123.52-.291.712-.504.192-.211.337-.456.438-.732.1-.275.153-.567.153-.873v-.516H97.1zm4.89 3.46h-1.028v-6.922h1.029v2.797h4.043v-2.797h1.03v6.922h-1.03v-3.282h-4.043v3.282zm12.842-5.339a1.949 1.949 0 0 0-.75-.659 2.261 2.261 0 0 0-1.068-.257c-.413 0-.787.07-1.12.214a2.532 2.532 0 0 0-.855.59 2.58 2.58 0 0 0-.545.888 3.11 3.11 0 0 0-.19 1.102c0 .394.062.76.19 1.095.126.335.305.628.538.88.231.252.512.449.847.59.332.145.707.216 1.12.216.455 0 .84-.085 1.151-.251.312-.17.57-.385.774-.651l.771.562a3.365 3.365 0 0 1-1.113.872c-.44.216-.967.326-1.583.326a4.2 4.2 0 0 1-1.559-.275 3.43 3.43 0 0 1-1.188-.76 3.435 3.435 0 0 1-.765-1.154 3.78 3.78 0 0 1-.274-1.45c0-.522.09-1.005.274-1.45.181-.443.435-.827.765-1.153.328-.326.723-.58 1.188-.761a4.248 4.248 0 0 1 1.559-.275c.475 0 .957.102 1.446.303.49.203.886.502 1.19.896l-.803.562zm1.256-1.583h6.224v.843h-2.68v6.08h-1.03v-6.08h-2.514v-.843zm10.919 6.922h-3.241v-6.922h3.059c.897 0 1.564.17 1.998.511.435.34.651.792.651 1.353 0 .257-.04.47-.122.643-.08.173-.194.317-.339.43a1.817 1.817 0 0 1-.508.272c-.191.07-.393.135-.607.193.264.02.51.065.743.133.232.07.436.17.614.303.176.134.315.301.415.503.101.204.153.448.153.733 0 .56-.238 1.009-.713 1.345-.473.336-1.174.503-2.103.503zm-.242-3.86c.504 0 .9-.076 1.188-.231.287-.154.43-.459.43-.915 0-.26-.054-.462-.166-.611a1.02 1.02 0 0 0-.47-.335 2.63 2.63 0 0 0-.727-.14c-.282-.02-.594-.031-.937-.031h-1.288v2.263h1.97zm-1.97 3.061h1.319c.371 0 .715-.007 1.029-.023.312-.013.585-.058.817-.132.231-.076.413-.191.545-.35.132-.16.196-.383.196-.67 0-.476-.179-.79-.537-.938-.359-.15-.839-.223-1.446-.223h-1.923v2.336zm14.265-2.661c0 .522-.095 1.005-.281 1.45a3.494 3.494 0 0 1-.78 1.153c-.333.325-.732.579-1.196.76a4.126 4.126 0 0 1-1.529.275c-.547 0-1.05-.09-1.515-.275a3.533 3.533 0 0 1-1.197-.76 3.47 3.47 0 0 1-.779-1.153 3.71 3.71 0 0 1-.28-1.45c0-.523.094-1.006.28-1.45.186-.444.446-.828.779-1.154.334-.325.733-.579 1.197-.761a4.129 4.129 0 0 1 1.515-.275c.554 0 1.064.093 1.53.275.463.182.862.436 1.196.761.333.326.592.71.779 1.153.186.445.28.928.28 1.45zm-1.092 0c0-.385-.062-.746-.19-1.088a2.532 2.532 0 0 0-1.384-1.486 2.732 2.732 0 0 0-1.12-.221c-.415 0-.785.073-1.115.222a2.564 2.564 0 0 0-.839.597 2.636 2.636 0 0 0-.536.888c-.13.342-.191.703-.191 1.088 0 .383.062.747.19 1.086.126.341.305.636.537.888.233.252.512.449.84.59.329.144.699.216 1.114.216a2.81 2.81 0 0 0 1.12-.215 2.43 2.43 0 0 0 .848-.591c.232-.252.41-.547.536-.888.128-.339.19-.703.19-1.086zm8.056-.622c.404 0 .783.03 1.137.09l2.543-2.93h1.15l-2.756 3.136c.838.257 1.489.692 1.954 1.31.464.615.834 1.44 1.105 2.476h-1.15c-.14-.612-.32-1.121-.538-1.531a2.962 2.962 0 0 0-.818-.99 2.99 2.99 0 0 0-1.142-.532 6.865 6.865 0 0 0-1.485-.171v3.224h-1.03v-6.921h1.03v2.84zm14.296.622c0 .522-.096 1.005-.282 1.45a3.482 3.482 0 0 1-.778 1.153c-.334.325-.733.579-1.197.76a4.126 4.126 0 0 1-1.529.275c-.546 0-1.05-.09-1.516-.275a3.521 3.521 0 0 1-1.195-.76 3.46 3.46 0 0 1-.78-1.153 3.724 3.724 0 0 1-.281-1.45c0-.523.095-1.006.28-1.45a3.452 3.452 0 0 1 1.976-1.915c.466-.182.97-.275 1.516-.275.554 0 1.064.093 1.53.275.463.182.862.436 1.196.761.332.326.593.71.778 1.153.186.445.282.928.282 1.45zm-1.092 0c0-.385-.062-.746-.19-1.088a2.532 2.532 0 0 0-1.384-1.486 2.732 2.732 0 0 0-1.12-.221c-.415 0-.785.073-1.115.222a2.564 2.564 0 0 0-.839.597c-.233.252-.41.548-.537.888-.128.342-.19.703-.19 1.088 0 .383.062.747.19 1.086.127.341.304.636.537.888.233.252.512.449.84.59.329.144.699.216 1.114.216a2.81 2.81 0 0 0 1.12-.215 2.43 2.43 0 0 0 .847-.591c.233-.252.412-.547.537-.888.128-.339.19-.703.19-1.086zm4.12-3.462l3.103 3.565 3.059-3.565h.878v6.922h-1.03V54.82l-2.709 3.313h-.425l-2.725-3.24v5.385h-1.03v-6.922h.879zm13.855-.178c.545 0 1.046.095 1.506.283.46.187.853.443 1.18.768a3.591 3.591 0 0 1 1.053 2.589c0 .522-.09 1.005-.273 1.45-.18.443-.439.825-.771 1.145-.334.32-.73.573-1.189.76-.46.189-.961.283-1.506.283v3.446h-.94v-3.446a3.844 3.844 0 0 1-1.483-.282 3.676 3.676 0 0 1-1.182-.769 3.493 3.493 0 0 1-.78-1.145 3.655 3.655 0 0 1-.28-1.442c0-.514.09-.99.273-1.436a3.426 3.426 0 0 1 1.954-1.913 4.197 4.197 0 0 1 1.498-.29v-4.083h.94v4.082zm-3.574 3.64c0 .384.062.747.19 1.086.126.34.302.634.529.88.226.246.503.443.833.591.328.15.688.224 1.082.224v-5.576a2.77 2.77 0 0 0-1.097.236 2.467 2.467 0 0 0-.834.6c-.226.25-.4.544-.52.88a3.124 3.124 0 0 0-.183 1.079zm6.223 0c0-.385-.063-.745-.19-1.08a2.75 2.75 0 0 0-.528-.88 2.491 2.491 0 0 0-.834-.599 2.77 2.77 0 0 0-1.097-.236v5.576a2.613 2.613 0 0 0 1.936-.815c.233-.246.41-.54.532-.88.12-.339.181-.702.181-1.086zm10.342 0c0 .522-.096 1.005-.281 1.45a3.472 3.472 0 0 1-.78 1.153c-.333.325-.732.579-1.196.76a4.126 4.126 0 0 1-1.529.275c-.547 0-1.05-.09-1.516-.275a3.533 3.533 0 0 1-1.196-.76 3.47 3.47 0 0 1-.779-1.153 3.71 3.71 0 0 1-.28-1.45c0-.523.094-1.006.28-1.45.186-.444.446-.828.779-1.154.333-.325.733-.579 1.196-.761a4.129 4.129 0 0 1 1.516-.275c.554 0 1.064.093 1.53.275.463.182.862.436 1.195.761.333.326.594.71.78 1.153.185.445.28.928.28 1.45zm-1.092 0a3.05 3.05 0 0 0-.19-1.088 2.648 2.648 0 0 0-.536-.888 2.532 2.532 0 0 0-.848-.597 2.732 2.732 0 0 0-1.12-.222c-.415 0-.785.073-1.115.222a2.555 2.555 0 0 0-1.375 1.485c-.13.342-.191.703-.191 1.088 0 .383.062.747.19 1.086.126.341.305.636.537.888.233.252.512.449.84.59.329.144.699.216 1.114.216a2.81 2.81 0 0 0 1.12-.215 2.43 2.43 0 0 0 .848-.591 2.64 2.64 0 0 0 .536-.888 3.04 3.04 0 0 0 .19-1.086zm4.331 7.01h-1.029V53.357h1.03v1.198h.046a2.77 2.77 0 0 1 1.173-1.028c.49-.231.986-.349 1.492-.349.554 0 1.056.095 1.506.283.45.187.833.443 1.152.768.317.326.563.71.74 1.153.176.445.266.922.266 1.436 0 .512-.09.99-.266 1.434a3.468 3.468 0 0 1-.74 1.153c-.319.326-.702.581-1.152.769-.45.188-.952.282-1.506.282a3.475 3.475 0 0 1-1.492-.348 2.848 2.848 0 0 1-1.173-.998h-.047v4.718zm5.286-7.01c0-.385-.062-.746-.182-1.087a2.605 2.605 0 0 0-.524-.888 2.427 2.427 0 0 0-.839-.598 2.769 2.769 0 0 0-1.136-.222c-.393 0-.757.07-1.09.214a2.626 2.626 0 0 0-1.432 1.479c-.135.34-.203.708-.203 1.102 0 .393.068.76.203 1.1.138.342.326.635.568.882.242.246.531.441.863.583.334.143.698.216 1.091.216.425 0 .803-.073 1.136-.216.334-.142.613-.339.84-.59.228-.253.401-.548.523-.889.12-.339.182-.702.182-1.086zm2.09-3.462h6.224v.843h-2.68v6.08h-1.03v-6.08h-2.514v-.843zm12.205 2.443c0-.597-.162-1.043-.484-1.337-.324-.293-.793-.44-1.41-.44-.424 0-.818.075-1.18.223a2.826 2.826 0 0 0-.925.59l-.575-.665c.293-.285.68-.522 1.159-.71.479-.187 1.022-.282 1.628-.282.384 0 .743.053 1.074.156.333.104.626.26.879.466.253.207.449.469.59.784.142.315.214.684.214 1.108v3.033c0 .266.01.542.028.828.022.286.051.528.092.725h-.924a8.35 8.35 0 0 1-.077-.547 6.008 6.008 0 0 1-.028-.578h-.032c-.323.464-.688.798-1.096 1-.41.2-.902.303-1.478.303-.27 0-.552-.038-.84-.112a2.372 2.372 0 0 1-.788-.363 2.07 2.07 0 0 1-.59-.653c-.156-.267-.234-.593-.234-.979 0-.534.138-.958.415-1.268.28-.313.65-.546 1.114-.7a6.68 6.68 0 0 1 1.598-.296 25.49 25.49 0 0 1 1.87-.067v-.22zm-.304 1.019c-.423 0-.85.016-1.28.05a5.789 5.789 0 0 0-1.164.209 2.218 2.218 0 0 0-.857.45c-.22.197-.333.459-.333.784 0 .246.048.455.145.621.095.169.225.303.386.407.16.104.341.178.536.221.198.046.398.067.6.067.362 0 .686-.061.969-.184.28-.123.52-.291.71-.504.193-.211.338-.456.44-.732.1-.275.152-.567.152-.873v-.516h-.304z"/>
    </g>
</svg>
