<svg xmlns="http://www.w3.org/2000/svg" width="51" height="32" viewBox="0 0 51 32">
  <path fill="#748592" fill-rule="evenodd" d="M348.557236,144.787022 L342.411818,147.573593 L337.323968,144.787022 L335.537521,144.787022 L316.371175,155.022333 L335.460458,163.871784 L361.589637,149.774368 L350.958601,144.787022 L348.557236,144.787022 Z M344.560615,144.787022 L341.158027,144.787022 L342.749264,145.636783 L344.560615,144.787022 Z M338.347774,143.286276 L347.759608,143.286276 L351.866936,143.286276 L363.900958,148.742967 L363.908786,154.228138 L363.903114,154.231716 L363.908786,158.206048 L360.393622,160.423473 L335.454196,174.09299 L314.433129,164.364486 L314.359352,159.012799 L314.414568,159.040133 L314.35016,154.368082 L334.583836,143.286276 L338.347774,143.286276 Z M320.35184,163.125743 L316.383699,161.314929 L316.385264,163.406364 L334.266008,171.626368 L334.267508,169.565884 L320.35184,163.125743 Z M336.075686,169.774436 L336.075686,171.7628 L361.838546,157.637477 L361.833925,155.536995 L360.393622,156.445563 L336.075686,169.774436 Z M316.385264,159.428454 L334.266008,167.648459 L334.267573,165.49811 L316.383699,157.33702 L316.385264,159.428454 Z M336.075686,167.78489 L361.838546,153.659568 L361.83385,151.524723 L336.075686,165.719812 L336.075686,167.78489 Z" transform="translate(-313.66 -142.33)"/>
</svg>
