<svg xmlns="http://www.w3.org/2000/svg" width="53" height="81" viewBox="0 0 53 81">
  <path fill="#748592" fill-rule="evenodd" d="M1088.28286,588.123961 C1088.33843,588.184362 1088.38325,588.251869 1088.41731,588.32293 C1088.42986,588.347801 1088.44241,588.370895 1088.45137,588.397543 C1088.48902,588.493475 1088.51053,588.592959 1088.51233,588.695997 L1088.51233,609.294627 C1088.51233,609.619728 1088.32589,609.918182 1088.03368,610.062079 L1084.56842,611.779964 C1084.56125,611.783517 1084.55228,611.781741 1084.54511,611.785294 C1084.31744,611.897214 1084.04674,611.897214 1083.81907,611.785294 C1083.81011,611.781741 1083.80115,611.783517 1083.79398,611.779964 L1080.32871,610.062079 C1080.03651,609.918182 1079.85007,609.619728 1079.85007,609.294627 L1079.85007,608.109695 L1067.72613,614.117851 L1067.72613,618.736776 C1067.72613,619.061877 1067.53969,619.358555 1067.24569,619.504228 L1063.78222,621.222113 C1063.77505,621.225666 1063.76609,621.22389 1063.75712,621.227443 C1063.52766,621.339363 1063.25876,621.339363 1063.03108,621.227443 C1063.02391,621.22389 1063.01495,621.225666 1063.00778,621.222113 L1059.54252,619.504228 C1059.24852,619.358555 1059.06387,619.061877 1059.06387,618.736776 L1059.06387,614.117851 L1045.20461,607.249864 L1045.20461,607.578519 C1045.20461,607.90362 1045.01997,608.200297 1044.72597,608.345971 L1041.2625,610.062079 C1041.25353,610.067409 1041.24636,610.065632 1041.2374,610.067409 C1041.00973,610.181105 1040.74083,610.181105 1040.51136,610.067409 C1040.50419,610.065632 1040.49523,610.067409 1040.48806,610.062079 L1037.02279,608.345971 C1036.72879,608.200297 1036.54415,607.90362 1036.54415,607.578519 L1036.54415,587.837943 C1036.54415,587.825507 1036.54773,587.816624 1036.54773,587.805965 C1036.54953,587.781094 1036.5549,587.758 1036.55849,587.733128 C1036.56745,587.653185 1036.59076,587.575019 1036.62303,587.498629 C1036.6302,587.484417 1036.6284,587.468428 1036.63557,587.45244 C1036.63916,587.443557 1036.64812,587.438228 1036.6535,587.429345 C1036.7019,587.342296 1036.76465,587.262353 1036.83994,587.194846 C1036.85428,587.18241 1036.86862,587.175304 1036.88297,587.166422 C1036.92599,587.129115 1036.9726,587.097138 1037.02279,587.068714 L1057.33034,577.006563 L1057.33034,574.103746 C1057.33393,574.02025 1057.34648,573.934977 1057.37337,573.853258 C1057.37875,573.833716 1057.38771,573.815951 1057.39488,573.79641 C1057.42536,573.72002 1057.46659,573.648959 1057.51858,573.583228 C1057.52933,573.565463 1057.54009,573.549475 1057.55443,573.535263 C1057.60821,573.473085 1057.67275,573.418013 1057.74266,573.3736 C1057.75521,573.364718 1057.77314,573.361165 1057.78748,573.354059 C1057.79644,573.348729 1057.80182,573.341623 1057.81078,573.336294 L1064.73951,569.9023 C1064.75923,569.893418 1064.77895,569.895194 1064.79867,569.886312 C1064.85245,569.86677 1064.90982,569.850782 1064.96898,569.841899 C1065.07116,569.813475 1065.18052,569.813475 1065.28449,569.841899 C1065.34186,569.850782 1065.40102,569.86677 1065.4548,569.886312 C1065.47452,569.895194 1065.49603,569.893418 1065.51396,569.9023 L1084.56842,579.34445 C1084.57917,579.348003 1084.58276,579.356885 1084.59172,579.362215 C1084.60606,579.369321 1084.6222,579.372874 1084.63654,579.381756 C1084.70825,579.426169 1084.7692,579.479464 1084.82477,579.543419 C1084.83911,579.557631 1084.84807,579.573619 1084.86062,579.591384 C1084.91261,579.655339 1084.95205,579.728176 1084.98253,579.804566 C1084.9897,579.824107 1084.99866,579.841872 1085.00583,579.861414 C1085.03272,579.943133 1085.04706,580.028406 1085.04706,580.111902 L1085.04706,586.448712 L1088.03368,587.928545 C1088.11256,587.967628 1088.18247,588.019147 1088.24701,588.081324 C1088.25956,588.09376 1088.26852,588.109748 1088.28286,588.123961 Z M1064.26087,613.913552 L1086.7788,602.757071 L1086.7788,590.085227 L1064.26087,601.241708 L1064.26087,613.913552 Z M1063.39321,599.752993 L1085.70856,588.695997 L1084.1812,587.939204 L1061.86584,598.9962 L1063.39321,599.752993 Z M1038.27768,589.225397 L1038.27768,601.89724 L1040.00762,602.757071 L1040.00762,590.412105 C1040.00941,590.310844 1040.03092,590.209583 1040.06857,590.115428 L1038.27768,589.225397 Z M1065.12673,571.630844 L1060.1341,574.103746 L1077.25246,582.58658 L1082.24509,580.111902 L1065.12673,571.630844 Z M1083.31533,581.501132 L1078.11833,584.075295 L1078.11833,589.022874 L1083.31533,586.448712 L1083.31533,581.501132 Z M1059.54252,598.226971 L1068.86986,593.604493 L1058.66052,588.54677 C1058.63721,588.566311 1058.61032,588.58763 1058.58522,588.605395 L1042.32735,596.66009 L1059.06387,604.952837 L1059.06387,598.9962 C1059.06387,598.985541 1059.06925,598.978435 1059.06925,598.969552 C1059.07283,598.92514 1059.08,598.882503 1059.09255,598.839867 C1059.09972,598.790125 1059.10869,598.740383 1059.12482,598.694193 C1059.13199,598.674652 1059.13916,598.656887 1059.14813,598.637345 C1059.15171,598.628463 1059.14992,598.61958 1059.1553,598.610697 C1059.17322,598.58405 1059.19294,598.559179 1059.21625,598.534308 C1059.23955,598.493448 1059.26824,598.452588 1059.29871,598.417058 C1059.31305,598.399293 1059.32919,598.385081 1059.34711,598.369092 C1059.38297,598.338892 1059.42062,598.312244 1059.46185,598.290926 C1059.48694,598.267831 1059.51563,598.246513 1059.54252,598.226971 Z M1069.83971,593.124835 L1076.3866,589.880929 L1076.3866,584.075295 L1059.06387,575.492976 L1059.06387,587.786424 L1069.83971,593.124835 Z M1057.33034,587.306766 L1057.33034,582.359187 L1041.68019,590.115428 C1041.71784,590.209583 1041.73935,590.310844 1041.74114,590.412105 L1041.74114,595.03103 L1057.33034,587.306766 Z M1041.74114,597.329834 L1041.74114,600.66079 L1059.06387,609.244885 L1059.06387,605.912152 L1041.74114,597.329834 Z M1060.79561,600.385431 L1060.79561,613.057275 L1062.52734,613.913552 L1062.52734,601.241708 L1060.79561,600.385431 Z M1057.33034,580.440556 L1057.33034,578.92697 L1039.34791,587.837943 L1040.87348,588.594736 L1057.33034,580.440556 Z M1038.27768,603.817648 L1038.27768,607.047342 L1040.00762,607.905396 L1040.00762,604.675702 L1038.27768,603.817648 Z M1043.47288,607.047342 L1043.47288,606.39181 L1041.74114,605.533756 L1041.74114,607.905396 L1043.47288,607.047342 Z M1041.74114,603.615125 L1059.06387,612.197444 L1059.06387,610.2042 L1041.74114,601.620105 L1041.74114,603.615125 Z M1060.79561,614.975905 L1060.79561,618.2056 L1062.52734,619.063654 L1062.52734,615.833959 L1060.79561,614.975905 Z M1065.9926,618.2056 L1065.9926,614.975905 L1064.26087,615.833959 L1064.26087,619.063654 L1065.9926,618.2056 Z M1083.31533,606.39181 L1081.52264,607.280065 C1081.56029,607.375996 1081.5818,607.477258 1081.58359,607.578519 L1081.58359,608.765227 L1083.31533,609.623281 L1083.31533,606.39181 Z M1085.04706,609.623281 L1086.7788,608.765227 L1086.7788,604.675702 L1084.9879,605.563957 C1085.02555,605.658112 1085.04527,605.759373 1085.04706,605.86241 L1085.04706,609.623281 Z M1051.08486,578.364732 L1051.08486,564.826916 L1044.72597,564.826916 L1044.72597,570.454105 L1046.97706,572.848654 L1044.31907,575.482657 L1041.66108,572.848654 L1043.59416,570.454105 L1043.59416,564.826916 L1038.51982,564.826916 C1038.15737,564.826916 1037.79492,564.707189 1037.55328,564.348006 C1037.31165,563.988824 1037.19083,563.629642 1037.31165,563.27046 L1043.23171,543.874617 C1043.23171,543.635162 1043.47335,543.395707 1043.59416,543.275979 C1045.40643,541.83925 1049.03096,541.480068 1051.08486,541.360341 L1052.17222,541.360341 C1054.34693,541.360341 1057.97146,541.83925 1059.66291,543.275979 C1059.78373,543.515434 1059.90454,543.635162 1060.02536,543.874617 L1066.06624,563.27046 C1066.06624,563.629642 1066.06624,563.988824 1065.82461,564.348006 C1065.58297,564.707189 1065.22052,564.826916 1064.85807,564.826916 L1052.17222,564.826916 L1052.17222,577.902927 L1051.08486,578.364732 Z M1040.21127,562.432368 L1063.16662,562.432368 L1057.85064,544.952163 C1056.76329,544.353526 1054.58857,543.874617 1051.93058,543.754889 L1051.44731,543.754889 C1048.78932,543.874617 1046.61461,544.353526 1045.52725,544.952163 L1040.21127,562.432368 Z" transform="translate(-1036.001 -541)"/>
</svg>
