<svg xmlns="http://www.w3.org/2000/svg" width="61" height="81" viewBox="0 0 61 81">
  <path fill="#F39325" fill-rule="evenodd" d="M1422.17521,591.668332 C1422.23065,591.66598 1422.28638,591.664792 1422.3424,591.664792 C1423.49414,591.664792 1424.56027,592.16602 1425.27885,593.011501 C1426.21884,592.655485 1427.2097,592.475441 1428.23463,592.475441 C1429.25956,592.475441 1430.25042,592.655485 1431.19042,593.011501 C1431.90899,592.16602 1432.97512,591.664792 1434.12687,591.664792 C1436.23863,591.664792 1437.95682,593.353267 1437.95682,595.42852 C1437.95682,596.705111 1437.28681,597.886704 1436.22828,598.573856 C1436.39791,599.227306 1436.48376,599.899982 1436.48376,600.581931 C1436.48376,602.010066 1436.1056,603.352704 1435.44318,604.519369 L1439.19419,604.519369 C1441.30596,604.519369 1443.02414,606.207844 1443.02414,608.283096 C1443.02414,610.358348 1441.30596,612.046823 1439.19419,612.046823 L1437.3676,612.046823 L1437.3676,614.020292 C1438.09837,614.795204 1438.54604,615.83136 1438.54604,616.968621 C1438.54604,619.363247 1436.56363,621.311383 1434.12687,621.311383 L1422.3424,621.311383 C1419.90563,621.311383 1417.92322,619.363247 1417.92322,616.968621 C1417.92322,615.83136 1418.37089,614.795204 1419.10167,614.020292 L1419.10167,612.046823 L1417.27507,612.046823 C1415.16331,612.046823 1413.44512,610.358348 1413.44512,608.283096 C1413.44512,606.207844 1415.16331,604.519369 1417.27507,604.519369 L1421.02608,604.519369 C1420.36366,603.352704 1419.9855,602.010066 1419.9855,600.581931 C1419.9855,599.899982 1420.07135,599.227306 1420.24099,598.573856 C1419.18245,597.886704 1418.51244,596.705111 1418.51244,595.42852 C1418.51244,594.543601 1418.82486,593.729009 1419.34699,593.085673 L1407.99962,598.77232 L1409.50389,599.526174 L1417.43811,595.549999 C1417.40113,596.16462 1417.52806,596.738167 1417.81891,597.270641 L1410.35843,601.009106 L1410.35843,613.631728 L1414.4348,611.589049 C1415.11787,612.182538 1415.80094,612.478044 1416.48402,612.475568 L1413.77129,613.835233 L1413.77129,618.436216 C1413.77129,618.760055 1413.58767,619.05558 1413.29811,619.200687 L1409.88702,620.911899 C1409.87996,620.915439 1409.87113,620.913669 1409.8623,620.917208 C1409.63631,621.028694 1409.37147,621.028694 1409.14724,620.917208 C1409.14018,620.913669 1409.13135,620.915439 1409.12429,620.911899 L1405.71143,619.200687 C1405.42188,619.05558 1405.24002,618.760055 1405.24002,618.436216 L1405.24002,613.835233 L1391.59036,606.993924 L1391.59036,607.321302 C1391.59036,607.64514 1391.4085,607.940665 1391.11895,608.085773 L1387.70786,609.795215 C1387.69903,609.800524 1387.69197,609.798754 1387.68314,609.800524 C1387.45891,609.913779 1387.19407,609.913779 1386.96808,609.800524 C1386.96102,609.798754 1386.95219,609.800524 1386.94513,609.795215 L1383.53227,608.085773 C1383.24271,607.940665 1383.06086,607.64514 1383.06086,607.321302 L1383.06086,587.657406 C1383.06086,587.645018 1383.06439,587.63617 1383.06439,587.625553 C1383.06616,587.600778 1383.07145,587.577773 1383.07498,587.552999 C1383.08381,587.473366 1383.10676,587.395503 1383.13855,587.31941 C1383.14561,587.305253 1383.14384,587.289327 1383.1509,587.2734 C1383.15444,587.264552 1383.16326,587.259244 1383.16856,587.250396 C1383.21623,587.163685 1383.27803,587.084052 1383.35218,587.016807 C1383.3663,587.00442 1383.38043,586.997341 1383.39455,586.988493 C1383.43693,586.951332 1383.48283,586.919479 1383.53227,586.891165 L1403.53271,576.868099 L1403.53271,573.976558 C1403.53624,573.893386 1403.5486,573.808445 1403.57509,573.727043 C1403.58038,573.707582 1403.58921,573.689881 1403.59627,573.670415 C1403.62629,573.594322 1403.6669,573.523538 1403.7181,573.458062 C1403.72869,573.440366 1403.73928,573.42444 1403.75341,573.410283 C1403.80638,573.348347 1403.86994,573.293489 1403.93879,573.249249 C1403.95115,573.2404 1403.96881,573.236861 1403.98293,573.229783 C1403.99176,573.224474 1403.99706,573.217396 1404.00589,573.212087 L1410.82984,569.791432 C1410.84926,569.782584 1410.86868,569.784354 1410.8881,569.775506 C1410.94107,569.75604 1410.99757,569.740114 1411.05583,569.731266 C1411.15647,569.702952 1411.26417,569.702952 1411.36657,569.731266 C1411.42307,569.740114 1411.48133,569.75604 1411.5343,569.775506 C1411.55372,569.784354 1411.57491,569.782584 1411.59257,569.791432 L1430.35887,579.196905 C1430.36946,579.200444 1430.373,579.209292 1430.38182,579.214601 C1430.39595,579.221679 1430.41184,579.225218 1430.42596,579.234066 C1430.49659,579.278307 1430.55662,579.331395 1430.61135,579.395101 C1430.62547,579.409258 1430.6343,579.425184 1430.64666,579.44288 C1430.69786,579.506586 1430.7367,579.57914 1430.76672,579.655233 C1430.77378,579.674699 1430.78261,579.692395 1430.78967,579.711861 C1430.81615,579.793263 1430.83028,579.878204 1430.83028,579.961376 L1430.83028,586.273571 L1433.77173,587.747656 C1433.84941,587.786587 1433.91827,587.837906 1433.98183,587.899842 C1433.99419,587.912229 1434.00302,587.928156 1434.01714,587.942313 C1434.07188,588.002479 1434.11602,588.069725 1434.14956,588.140509 C1434.16192,588.165283 1434.17428,588.188288 1434.18311,588.214833 C1434.22019,588.310391 1434.24137,588.409489 1434.24314,588.512127 L1434.24314,590.444119 C1433.55015,590.71475 1432.98105,590.985382 1432.53583,591.256013 L1432.53583,589.895961 L1429.18257,591.576284 C1428.17497,591.434053 1427.11024,591.259837 1426.2569,591.130534 L1431.48178,588.512127 L1429.97751,587.758273 L1422.17521,591.668332 L1422.17521,591.668332 Z M1384.76817,589.03947 L1384.76817,601.662092 L1386.47195,602.518583 L1386.47195,590.221569 C1386.47372,590.120701 1386.4949,590.019834 1386.53198,589.926044 L1384.76817,589.03947 Z M1411.2112,571.513262 L1406.29407,573.976558 L1423.15356,582.426441 L1428.07068,579.961376 L1411.2112,571.513262 Z M1429.12473,581.34521 L1424.00633,583.909374 L1424.00633,588.837735 L1429.12473,586.273571 L1429.12473,581.34521 Z M1405.71143,598.00608 L1414.89772,593.401557 L1404.84277,588.36348 C1404.81982,588.382945 1404.79333,588.404181 1404.76861,588.421877 L1388.75661,596.445284 L1405.24002,604.70582 L1405.24002,598.77232 C1405.24002,598.761703 1405.24532,598.754624 1405.24532,598.745776 C1405.24885,598.701536 1405.25591,598.659065 1405.26827,598.616595 C1405.27533,598.567046 1405.28416,598.517497 1405.30005,598.471487 C1405.30712,598.452021 1405.31418,598.434325 1405.32301,598.414859 C1405.32654,598.406011 1405.32477,598.397163 1405.33007,598.388315 C1405.34772,598.361771 1405.36714,598.336996 1405.3901,598.312222 C1405.41305,598.271521 1405.4413,598.23082 1405.47131,598.195428 C1405.48544,598.177732 1405.50133,598.163575 1405.51898,598.147648 C1405.5543,598.117565 1405.59137,598.091021 1405.63198,598.069785 C1405.6567,598.046781 1405.68495,598.025545 1405.71143,598.00608 Z M1415.8529,592.923762 L1422.30078,589.692456 L1422.30078,583.909374 L1405.24002,575.360392 L1405.24002,587.606087 L1415.8529,592.923762 Z M1403.53271,587.128293 L1403.53271,582.199931 L1388.11923,589.926044 C1388.15631,590.019834 1388.1775,590.120701 1388.17926,590.221569 L1388.17926,594.822553 L1403.53271,587.128293 Z M1388.17926,597.112427 L1388.17926,600.430444 L1405.24002,608.981195 L1405.24002,605.661408 L1388.17926,597.112427 Z M1406.94557,600.156155 L1406.94557,612.778776 L1408.65112,613.631728 L1408.65112,601.009106 L1406.94557,600.156155 Z M1403.53271,580.288753 L1403.53271,578.781046 L1385.82222,587.657406 L1387.32473,588.411259 L1403.53271,580.288753 Z M1384.76817,603.575039 L1384.76817,606.792189 L1386.47195,607.64691 L1386.47195,604.429761 L1384.76817,603.575039 Z M1389.88481,606.792189 L1389.88481,606.139203 L1388.17926,605.284482 L1388.17926,607.64691 L1389.88481,606.792189 Z M1388.17926,603.373304 L1405.24002,611.922285 L1405.24002,609.936784 L1388.17926,601.386033 L1388.17926,603.373304 Z M1406.94557,614.689954 L1406.94557,617.907103 L1408.65112,618.761824 L1408.65112,615.544675 L1406.94557,614.689954 Z M1412.06397,617.907103 L1412.06397,614.689954 L1410.35843,615.544675 L1410.35843,618.761824 L1412.06397,617.907103 Z M1397.38167,578.220993 L1397.38167,564.735763 L1391.11895,564.735763 L1391.11895,570.341094 L1393.336,572.726341 L1390.7182,575.350113 L1388.10041,572.726341 L1390.2468,570.341094 L1390.2468,564.735763 L1385.00666,564.735763 C1384.64969,564.735763 1384.29272,564.616501 1384.05473,564.258714 C1383.81675,563.900926 1383.69776,563.543139 1383.81675,563.185352 L1389.64729,543.86485 C1389.64729,543.626325 1389.88527,543.387801 1390.00426,543.268538 C1391.78912,541.83739 1395.35884,541.479603 1397.38167,541.360341 L1398.45259,541.360341 C1400.59442,541.360341 1404.16414,541.83739 1405.83,543.268538 C1405.94899,543.507063 1406.06798,543.626325 1406.18697,543.86485 L1412.1365,563.185352 C1412.1365,563.543139 1412.1365,563.900926 1411.89852,564.258714 C1411.66054,564.616501 1411.30357,564.735763 1410.9466,564.735763 L1398.45259,564.735763 L1398.45259,577.760981 L1397.38167,578.220993 Z M1386.67253,562.350516 L1409.28073,562.350516 L1404.04514,544.938211 C1402.97423,544.3419 1400.8324,543.86485 1398.21461,543.745588 L1397.73865,543.745588 C1395.12085,543.86485 1392.97902,544.3419 1391.90811,544.938211 L1386.67253,562.350516 Z M1420.28011,595.42852 C1420.28011,596.266085 1420.81594,597.028104 1421.61323,597.324407 C1422.06436,597.492237 1422.29544,597.98419 1422.13248,598.430228 C1421.88068,599.119415 1421.75317,599.843435 1421.75317,600.581931 C1421.75317,603.79942 1424.19362,606.466826 1427.3508,606.891829 L1427.3508,604.9403 L1426.66099,604.601248 C1426.22437,604.386824 1426.04737,603.865014 1426.2658,603.43594 C1426.48399,603.007092 1427.01498,602.833156 1427.45138,603.047579 L1428.23463,603.432547 L1429.01788,603.047806 C1429.45451,602.833156 1429.98527,603.007092 1430.20347,603.436166 C1430.42189,603.86524 1430.2449,604.386824 1429.80827,604.601474 L1429.11847,604.9403 L1429.11847,606.891829 C1432.27565,606.466826 1434.71609,603.79942 1434.71609,600.581931 C1434.71609,599.843435 1434.58858,599.119415 1434.33678,598.430228 C1434.17382,597.98419 1434.40491,597.492237 1434.8558,597.324407 C1435.65332,597.028104 1436.18915,596.266085 1436.18915,595.42852 C1436.18915,594.310937 1435.26411,593.401897 1434.12687,593.401897 C1433.35374,593.401897 1432.65174,593.821924 1432.29498,594.497992 C1432.0731,594.918697 1431.54855,595.08698 1431.11676,594.875722 C1430.21659,594.435791 1429.2469,594.212546 1428.23463,594.212546 C1427.22236,594.212546 1426.25268,594.435791 1425.3525,594.875722 C1424.92071,595.086753 1424.39616,594.918697 1424.17428,594.497992 C1423.81753,593.821924 1423.11552,593.401897 1422.3424,593.401897 C1421.20515,593.401897 1420.28011,594.310937 1420.28011,595.42852 Z M1419.69089,616.968621 C1419.69089,618.405351 1420.88038,619.574278 1422.3424,619.574278 C1423.80441,619.574278 1424.9939,618.405351 1424.9939,616.968621 C1424.9939,615.53189 1423.80441,614.362963 1422.3424,614.362963 C1420.88038,614.362963 1419.69089,615.53189 1419.69089,616.968621 Z M1434.12687,619.574278 C1435.58888,619.574278 1436.77837,618.405351 1436.77837,616.968621 C1436.77837,615.53189 1435.58888,614.362963 1434.12687,614.362963 C1432.66486,614.362963 1431.47536,615.53189 1431.47536,616.968621 C1431.47536,618.405351 1432.66486,619.574278 1434.12687,619.574278 Z M1439.19419,610.309718 C1440.33144,610.309718 1441.25647,609.400679 1441.25647,608.283096 C1441.25647,607.165513 1440.33144,606.256474 1439.19419,606.256474 L1434.1195,606.256474 C1432.62158,607.75631 1430.53698,608.688421 1428.23463,608.688421 C1425.93229,608.688421 1423.84768,607.75631 1422.34976,606.256474 L1417.27507,606.256474 C1416.13783,606.256474 1415.21279,607.165513 1415.21279,608.283096 C1415.21279,609.400679 1416.13783,610.309718 1417.27507,610.309718 L1419.9855,610.309718 C1420.47368,610.309718 1420.86934,610.698531 1420.86934,611.178271 L1420.86934,612.874889 C1421.33036,612.714071 1421.8259,612.625858 1422.3424,612.625858 C1424.77916,612.625858 1426.76157,614.573994 1426.76157,616.968621 C1426.76157,617.945516 1426.43152,618.847996 1425.87544,619.574278 L1430.59383,619.574278 C1430.03775,618.847996 1429.70769,617.945516 1429.70769,616.968621 C1429.70769,614.573994 1431.6901,612.625858 1434.12687,612.625858 C1434.64336,612.625858 1435.1389,612.714071 1435.59993,612.874889 L1435.59993,611.178271 C1435.59993,610.698531 1435.99558,610.309718 1436.48376,610.309718 L1439.19419,610.309718 Z M1432.58449,601.256336 C1432.58449,601.737957 1432.19504,602.128295 1431.71452,602.128295 C1431.23399,602.128295 1430.84454,601.737957 1430.84454,601.256336 C1430.84454,600.774716 1431.23399,600.384378 1431.71452,600.384378 C1432.19504,600.384378 1432.58449,600.774716 1432.58449,601.256336 Z M1425.62472,601.256336 C1425.62472,601.737957 1425.23527,602.128295 1424.75475,602.128295 C1424.27422,602.128295 1423.88478,601.737957 1423.88478,601.256336 C1423.88478,600.774716 1424.27422,600.384378 1424.75475,600.384378 C1425.23527,600.384378 1425.62472,600.774716 1425.62472,601.256336 Z" transform="translate(-1382.465 -541)"/>
</svg>
