<svg xmlns="http://www.w3.org/2000/svg" width="85" height="52" viewBox="0 0 85 52">
  <path fill="#F39325" fill-rule="evenodd" d="M503.506546,62.0574476 L501.174703,63.3379994 L474.338333,50.8943924 L474.232411,43.1962119 L530.73708,12.7921668 L558.171013,25.2556043 L558.181005,32.2716173 L533.318253,45.6889838 C531.988101,46.0134785 531.321137,45.5288977 531.317193,44.2350776 L534.858065,42.2899603 L534.85207,39.5593075 L526.737677,44.039642 C526.578661,44.0977396 526.415503,44.1590295 526.248205,44.2235117 C525.469076,43.5064221 525.570106,42.6449163 526.551297,41.6389944 L534.540298,37.3204497 L528.39424,34.4316216 C528.390697,33.3635227 528.141887,32.476612 527.647808,31.7708895 L536.744685,35.9918096 L549.641252,29.2633381 L545.304424,27.2624457 L545.238472,27.230717 L545.116561,27.3397845 C544.17525,28.1508499 543.138009,28.8350004 542.024823,29.3704225 C540.701791,30.0486239 539.286826,30.492826 537.829891,30.6812152 C537.680001,30.6931135 537.540103,30.7030287 537.386216,30.7109609 C536.722701,30.7882997 536.05519,30.6118087 535.495599,30.2171827 L523.226573,24.0499129 L523.168616,23.9289472 C522.557063,22.6280697 524.865375,20.6370926 527.265619,19.3381981 L527.719287,19.0962667 L525.099204,18.0016258 L512.610339,24.7935548 L523.566419,29.8771388 C522.269378,29.8560712 521.217675,30.1234949 520.411311,30.6794098 L510.487891,26.0151105 L476.812524,44.0330569 L501.182698,55.3522774 L503.739928,53.9699378 L503.775248,53.992234 C505.046846,54.347006 505.548764,54.978552 505.281002,55.886872 L501.968123,57.716067 L501.968123,60.3574829 L503.77543,59.3646702 C504.979997,59.9828023 504.979997,60.7994064 503.775248,61.8148436 C503.681353,61.8939834 503.591786,61.9748514 503.506546,62.0574476 Z M476.83051,49.6688706 L499.657813,60.1829749 L499.659812,57.4324916 L476.828512,46.993743 L476.83051,49.6688706 Z M542.932159,23.4986264 L543.661626,23.3300676 L532.997426,18.3645231 L532.939469,18.3407265 L532.873517,18.3466757 C531.236714,18.4755736 529.667862,18.9376231 528.210927,19.7209258 C525.508904,21.0574981 524.035981,22.596341 523.854114,23.2626441 L523.794158,23.4668977 L534.77013,28.9837288 L535.049925,29.126508 L535.127868,28.8211191 C535.465621,27.4984281 537.284291,25.8564669 539.764476,24.6388773 C540.769741,24.1371669 541.83696,23.7504731 542.932159,23.4986264 Z M544.401085,24.0776756 C544.287168,24.0816417 544.167256,24.0895738 544.029357,24.1034551 C542.652364,24.2878783 541.327333,24.7023347 540.096234,25.3408752 C537.23033,26.7528032 535.50759,28.684289 535.885314,29.4735409 C536.039201,29.7908281 536.582804,29.9574038 537.38022,29.9296412 C537.502131,29.9256751 537.628039,29.9177429 537.761941,29.9038616 C539.138934,29.7194384 540.463965,29.304982 541.695064,28.6704077 C544.560968,27.2564966 546.283708,25.3230278 545.909981,24.5357589 C545.752097,24.2164887 545.204497,24.0499129 544.401085,24.0776756 Z M537.278295,41.0624555 L549.611274,34.3676958 L549.607277,31.8650931 L537.270301,38.5102767 L537.278295,41.0624555 Z M545.776079,26.6278714 L550.654511,28.8032717 L555.379055,26.2015167 L530.924942,14.9318723 L530.811025,14.8783301 L526.086481,17.480085 L528.664596,18.6778442 L528.772517,18.626285 C530.109539,17.9956767 531.534496,17.6407117 533.007419,17.5713051 L545.526262,23.345932 C545.526262,23.345932 546.425604,23.8635067 546.585487,24.1708787 C546.845297,24.9422832 546.633452,25.8029247 546.049879,26.3641264 L545.776079,26.6278714 Z M550.394701,33.9413411 L555.472986,31.200773 L555.464992,28.6010011 L550.388705,31.375281 L550.394701,33.9413411 Z M521.50095,41.292895 C521.50095,41.8324643 521.060115,42.2697673 520.516188,42.2697673 C519.972262,42.2697673 519.531427,41.8324643 519.531427,41.292895 C519.531427,40.7533258 519.972262,40.3160228 520.516188,40.3160228 C521.060115,40.3160228 521.50095,40.7533258 521.50095,41.292895 Z M513.62286,41.292895 C513.62286,41.8324643 513.182025,42.2697673 512.638099,42.2697673 C512.094172,42.2697673 511.653337,41.8324643 511.653337,41.292895 C511.653337,40.7533258 512.094172,40.3160228 512.638099,40.3160228 C513.182025,40.3160228 513.62286,40.7533258 513.62286,41.292895 Z M528.982781,44.9485341 C531.37319,44.9485341 533.318084,46.8401657 533.318084,49.1651115 C533.318084,51.4900572 531.37319,53.3816888 528.982781,53.3816888 L526.915175,53.3816888 L526.915175,55.5926046 C527.742374,56.4607533 528.249114,57.621579 528.249114,58.8956747 C528.249114,61.5784214 526.005126,63.7609563 523.246841,63.7609563 L509.907446,63.7609563 C507.149161,63.7609563 504.905173,61.5784214 504.905173,58.8956747 C504.905173,57.621579 505.411913,56.4607533 506.239112,55.5926046 L506.239112,53.3816888 L504.171506,53.3816888 C501.781097,53.3816888 499.836203,51.4900572 499.836203,49.1651115 C499.836203,46.8401657 501.781097,44.9485341 504.171506,44.9485341 L508.417446,44.9485341 C507.667626,43.6414964 507.239567,42.1373135 507.239567,40.5373454 C507.239567,39.7733442 507.336747,39.0197323 507.528761,38.2876595 C506.33056,37.51783 505.572143,36.194068 505.572143,34.7638779 C505.572143,32.4389322 507.517037,30.5473005 509.907446,30.5473005 C511.211163,30.5473005 512.417962,31.1088351 513.231352,32.0560446 C514.295377,31.6571929 515.416981,31.4554864 516.577144,31.4554864 C517.737306,31.4554864 518.85891,31.6571929 519.922935,32.0560446 C520.736325,31.1088351 521.943124,30.5473005 523.246841,30.5473005 C525.63725,30.5473005 527.582144,32.4389322 527.582144,34.7638779 C527.582144,36.194068 526.823727,37.51783 525.625526,38.2876595 C525.817541,39.0197323 525.91472,39.7733442 525.91472,40.5373454 C525.91472,42.1373135 525.486661,43.6414964 524.736841,44.9485341 L528.982781,44.9485341 Z M507.573052,34.7638779 C507.573052,35.7022185 508.179577,36.5559233 509.082071,36.8878775 C509.59272,37.0759003 509.854297,37.6270455 509.669838,38.1267505 C509.384813,38.8988605 509.240476,39.7099942 509.240476,40.5373454 C509.240476,44.1419616 512.002929,47.1303088 515.576689,47.6064475 L515.576689,45.4201116 L514.795865,45.0402649 C514.30163,44.8000417 514.101279,44.2154477 514.348527,43.7347476 C514.595514,43.2543011 515.196568,43.0594364 515.690543,43.2996597 L516.577144,43.7309467 L517.463744,43.2999132 C517.957979,43.0594364 518.558773,43.2543011 518.80576,43.7350011 C519.053008,44.215701 518.852657,44.8000417 518.358422,45.0405183 L517.577598,45.4201116 L517.577598,47.6064475 C521.151358,47.1303088 523.913811,44.1419616 523.913811,40.5373454 C523.913811,39.7099942 523.769474,38.8988605 523.484449,38.1267505 C523.29999,37.6270455 523.561567,37.0759003 524.071956,36.8878775 C524.97471,36.5559233 525.581235,35.7022185 525.581235,34.7638779 C525.581235,33.5118281 524.534145,32.4934132 523.246841,32.4934132 C522.371704,32.4934132 521.577072,32.9639771 521.173242,33.72139 C520.922087,34.1927141 520.328327,34.3812438 519.839564,34.1445681 C518.820611,33.651705 517.722977,33.4015991 516.577144,33.4015991 C515.43131,33.4015991 514.333676,33.651705 513.314724,34.1445681 C512.82596,34.3809904 512.2322,34.1927141 511.981045,33.72139 C511.577215,32.9639771 510.782583,32.4934132 509.907446,32.4934132 C508.620142,32.4934132 507.573052,33.5118281 507.573052,34.7638779 Z M506.906082,58.8956747 C506.906082,60.505272 508.252527,61.8148436 509.907446,61.8148436 C511.562365,61.8148436 512.90881,60.505272 512.90881,58.8956747 C512.90881,57.2860773 511.562365,55.9765057 509.907446,55.9765057 C508.252527,55.9765057 506.906082,57.2860773 506.906082,58.8956747 Z M523.246841,61.8148436 C524.90176,61.8148436 526.248205,60.505272 526.248205,58.8956747 C526.248205,57.2860773 524.90176,55.9765057 523.246841,55.9765057 C521.591922,55.9765057 520.245477,57.2860773 520.245477,58.8956747 C520.245477,60.505272 521.591922,61.8148436 523.246841,61.8148436 Z M528.982781,51.4355762 C530.270085,51.4355762 531.317175,50.4171613 531.317175,49.1651115 C531.317175,47.9130617 530.270085,46.8946467 528.982781,46.8946467 L523.238504,46.8946467 C521.542942,48.5749427 519.183276,49.6192044 516.577144,49.6192044 C513.971011,49.6192044 511.611345,48.5749427 509.915783,46.8946467 L504.171506,46.8946467 C502.884202,46.8946467 501.837112,47.9130617 501.837112,49.1651115 C501.837112,50.4171613 502.884202,51.4355762 504.171506,51.4355762 L507.239567,51.4355762 C507.792162,51.4355762 508.240022,51.871171 508.240022,52.4086325 L508.240022,54.3093865 C508.761873,54.1292191 509.322805,54.0303931 509.907446,54.0303931 C512.665731,54.0303931 514.909719,56.212928 514.909719,58.8956747 C514.909719,59.9901096 514.536112,61.0011759 513.906659,61.8148436 L519.247628,61.8148436 C518.618175,61.0011759 518.244568,59.9901096 518.244568,58.8956747 C518.244568,56.212928 520.488556,54.0303931 523.246841,54.0303931 C523.831482,54.0303931 524.392414,54.1292191 524.914265,54.3093865 L524.914265,52.4086325 C524.914265,51.871171 525.362125,51.4355762 525.91472,51.4355762 L528.982781,51.4355762 Z" transform="translate(-473.465 -12)"/>
</svg>
