<svg xmlns="http://www.w3.org/2000/svg" width="72" height="73" viewBox="0 0 72 73">
  <path fill="#748592" fill-rule="evenodd" d="M71.8244534,382.708374 C71.777292,382.60907 71.7152375,382.514732 71.6382899,382.430324 C71.6184324,382.410463 71.6060215,382.38812 71.5886463,382.370742 C71.4992877,382.283851 71.4024827,382.211856 71.2932667,382.157239 L67.1579536,380.089244 L67.1579536,371.233854 C67.1579536,371.117172 67.1380961,370.998008 67.1008634,370.883809 C67.0909347,370.856501 67.0785238,370.831675 67.0685951,370.804366 C67.026398,370.697615 66.97179,370.595829 66.8998068,370.506456 C66.8824315,370.48163 66.8700206,370.459287 66.8501632,370.439426 C66.7732156,370.350053 66.6888214,370.275575 66.5895342,370.213511 C66.5696768,370.201098 66.5473371,370.196132 66.5274797,370.186202 C66.5150688,370.178754 66.5101044,370.166341 66.4952113,370.161376 L40.112112,356.966423 C40.0872902,356.95401 40.057504,356.956493 40.0302001,356.94408 C39.9557346,356.916772 39.8738227,356.894428 39.7943929,356.882015 C39.6504264,356.842294 39.4990134,356.842294 39.3575291,356.882015 C39.2756171,356.894428 39.1961873,356.916772 39.1217219,356.94408 C39.0944179,356.956493 39.0671139,356.95401 39.0398099,356.966423 L29.4461813,361.765265 C29.4337704,361.772713 29.4263238,361.782643 29.4139129,361.790091 C29.3940555,361.800021 29.3692337,361.804987 29.3518584,361.817399 C29.2550534,361.879464 29.1656949,361.956424 29.0912294,362.043315 C29.071372,362.063176 29.0564789,362.085519 29.0415858,362.110345 C28.9696026,362.202201 28.9125124,362.301504 28.8703153,362.408255 C28.8603866,362.435564 28.8479757,362.46039 28.8405292,362.487698 C28.8032965,362.601897 28.7859212,362.721061 28.7809568,362.837743 L28.7809568,366.894291 L0.662813174,380.955667 C0.593312113,380.995388 0.528775413,381.040075 0.469203075,381.092209 C0.449345629,381.104622 0.429488183,381.114552 0.409630737,381.131931 C0.305379145,381.226269 0.218502818,381.337985 0.151483937,381.459632 C0.144037395,381.472045 0.131626491,381.479493 0.12666213,381.491906 C0.116733407,381.514249 0.119215588,381.536592 0.109286865,381.556453 C0.0646076108,381.663204 0.0323392609,381.772438 0.0199283571,381.884155 C0.0149639956,381.918911 0.0075174533,381.951184 0.00503527253,381.985941 C0.00503527253,382.000836 7.09110108e-05,382.013249 7.09110108e-05,382.030627 L7.09110108e-05,409.61714 C7.09110108e-05,410.071454 0.255735529,410.486046 0.662813174,410.689618 L5.46086859,413.087797 C5.47079731,413.095245 5.48320821,413.092763 5.49313694,413.095245 C5.81085607,413.254131 6.18318319,413.254131 6.49842014,413.095245 C6.51083105,413.092763 6.52075977,413.095245 6.53317068,413.087797 L11.3287439,410.689618 C11.7358216,410.486046 11.9914862,410.071454 11.9914862,409.61714 L11.9914862,409.157861 L31.1812256,418.755545 L31.1812256,425.210272 C31.1812256,425.664586 31.4368903,426.079178 31.8439679,426.28275 L36.6420233,428.683412 C36.651952,428.688378 36.6643629,428.685895 36.6742917,428.69086 C36.9895286,428.847263 37.3618557,428.847263 37.6795749,428.69086 C37.6919858,428.685895 37.7043967,428.688378 37.7143254,428.683412 L42.5098986,426.28275 C42.9169763,426.079178 43.1751231,425.664586 43.1751231,425.210272 L43.1751231,418.755545 L59.9621116,410.359434 L59.9621116,412.01532 C59.9621116,412.469633 60.2202584,412.886708 60.6248538,413.087797 L65.4229092,415.48846 C65.432838,415.493425 65.4452489,415.490942 65.4576598,415.495907 C65.7728967,415.65231 66.147706,415.65231 66.462943,415.495907 C66.4728717,415.490942 66.4852826,415.493425 66.4952113,415.48846 L71.2932667,413.087797 C71.6978622,412.886708 71.956009,412.469633 71.956009,412.01532 L71.956009,383.229717 C71.9535268,383.085727 71.9237407,382.946702 71.8716149,382.812642 C71.859204,382.775404 71.8418287,382.74313 71.8244534,382.708374 L71.8244534,382.708374 Z M38.3770677,418.470047 L38.3770677,400.76175 L69.5557402,385.171101 L69.5557402,402.879398 L38.3770677,418.470047 Z M37.1756922,398.681342 L35.0608742,397.62376 L56.8792431,386.712787 C56.8941361,386.70534 56.9090292,386.697892 56.9239223,386.690444 L65.9590603,382.172135 L68.0738783,383.229717 L37.1756922,398.681342 Z M2.40033971,401.221029 L2.40033971,383.969528 L4.88003829,385.213305 C4.82791249,385.344882 4.79812632,385.486389 4.79564414,385.627897 L4.79564414,402.879398 L2.40033971,401.677825 L2.40033971,401.221029 Z M39.575961,359.381981 L63.2783051,371.233854 L56.3654316,374.692098 L32.6630876,362.837743 L39.575961,359.381981 Z M64.760167,373.175238 L64.760167,380.089244 L57.564325,383.686513 L57.564325,376.772507 L64.760167,373.175238 Z M31.8439679,396.548799 C31.8067352,396.576108 31.7670203,396.605899 31.7322698,396.638172 C31.6751796,396.667963 31.6230538,396.705202 31.5734102,396.747406 C31.5485884,396.76975 31.5262488,396.78961 31.5063913,396.814436 C31.4641942,396.864088 31.4244794,396.921187 31.392211,396.978287 C31.3599427,397.013043 31.3326387,397.047799 31.3078169,397.085038 C31.3003703,397.097451 31.3028525,397.109864 31.2978881,397.122277 C31.2854772,397.149585 31.2755485,397.174411 31.2656198,397.20172 C31.2432802,397.266267 31.2308693,397.33578 31.2209405,397.405292 C31.2035653,397.464874 31.1936365,397.524456 31.1886722,397.586521 C31.1886722,397.598934 31.1812256,397.608864 31.1812256,397.62376 L31.1812256,405.947876 L8.00758605,394.359157 L30.5184834,383.103105 C30.5532339,383.078279 30.5904666,383.048488 30.622735,383.02118 L44.7587544,390.089106 L31.8439679,396.548799 Z M46.1016142,389.418808 L31.1812256,381.958632 L31.1812256,364.779126 L55.1665383,376.772507 L55.1665383,384.885603 L46.1016142,389.418808 Z M28.7809568,381.288334 L7.19591294,392.082624 L7.19591294,385.627897 C7.19343076,385.486389 7.16364459,385.344882 7.11151879,385.213305 L28.7809568,374.374327 L28.7809568,381.288334 Z M7.19591294,395.295093 L31.1812256,407.288473 L31.1812256,411.945807 L7.19591294,399.949944 L7.19591294,395.295093 Z M33.5790123,399.565143 L35.9767989,400.76175 L35.9767989,418.470047 L33.5790123,417.27344 L33.5790123,399.565143 Z M28.7809568,371.693133 L5.99453745,383.08821 L3.88220162,382.030627 L28.7809568,369.577968 L28.7809568,371.693133 Z M2.40033971,404.361502 L4.79564414,405.560592 L4.79564414,410.073936 L2.40033971,408.874846 L2.40033971,404.361502 Z M9.59369955,408.874846 L7.19591294,410.073936 L7.19591294,406.759682 L9.59369955,407.958772 L9.59369955,408.874846 Z M7.19591294,404.078487 L7.19591294,401.290541 L31.1812256,413.286404 L31.1812256,416.071868 L7.19591294,404.078487 Z M33.5790123,419.954635 L35.9767989,421.153724 L35.9767989,425.667069 L33.5790123,424.467979 L33.5790123,419.954635 Z M40.7748543,424.467979 L38.3770677,425.667069 L38.3770677,421.153724 L40.7748543,419.954635 L40.7748543,424.467979 Z M62.2779862,409.200065 L64.760167,407.958772 L64.760167,412.474598 L62.3623804,411.275509 L62.3623804,409.61714 C62.3598982,409.475633 62.330112,409.334125 62.2779862,409.200065 L62.2779862,409.200065 Z M67.1579536,412.474598 L67.1579536,407.218961 C67.1554714,407.07497 67.1281674,406.933463 67.0760416,406.801886 L69.5557402,405.560592 L69.5557402,411.275509 L67.1579536,412.474598 Z" transform="translate(-.001 -356)"/>
</svg>
