<svg xmlns="http://www.w3.org/2000/svg" width="51" height="41" viewBox="0 0 51 41">
  <path fill="#748592" fill-rule="evenodd" d="M155.488416,371.947555 L155.488416,371.947555 C155.488416,371.21483 155.488416,370.099989 155.488416,368.2397 C146.057669,368.2397 137.758092,369.21629 133.259705,386.137946 C128.761318,403.059603 139.244358,405.801806 142.914087,405.176792 C147.793862,404.091905 147.793862,400.672103 144.37406,390.412698 C140.954259,380.153293 150.358713,379.298343 155.488416,379.298343 C155.488416,376.783288 155.488416,375.460824 155.488416,374.656379 L155.488416,374.65638 L155.488416,379.298343 C160.618118,379.298343 170.022573,380.153293 166.602771,390.412698 C163.18297,400.672103 163.18297,404.091905 168.062745,405.176792 C171.732474,405.801806 182.215514,403.059603 177.717127,386.137946 C173.21874,369.21629 164.919163,368.2397 155.488416,368.2397 L155.488416,366.474087 C165.747821,366.474087 175.152276,368.183987 179.427028,386.137946 C183.70178,404.091905 173.442375,406.656756 169.167623,406.656756 C164.892871,406.656756 159.763168,404.091905 164.03792,392.97755 C168.312672,381.863194 163.18297,381.008244 155.488416,381.008244 L155.488416,380.965663 C155.488416,380.979827 155.488416,380.994021 155.488416,381.008244 C147.793862,381.008244 142.66416,381.863194 146.938912,392.97755 C151.213664,404.091905 146.083961,406.656756 141.809209,406.656756 C137.534457,406.656756 127.275052,404.091905 131.549804,386.137946 C135.824556,368.183987 145.229011,366.474087 155.488416,366.474087 L155.488416,368.2397 L155.488416,371.947555 Z M173.911853,394.210388 C174.272642,394.578017 174.272642,395.164513 173.911853,395.533851 L173.571583,395.867282 L173.908433,396.205842 C174.272642,396.568341 174.272642,397.161677 173.908433,397.522466 C173.727184,397.696876 173.496347,397.79776 173.250121,397.79776 C173.000476,397.79776 172.769639,397.696876 172.58839,397.522466 L172.251539,397.182196 L171.916399,397.522466 C171.55048,397.862736 170.950305,397.862736 170.596355,397.522466 C170.230436,397.161677 170.230436,396.568341 170.596355,396.205842 L170.931496,395.867282 L170.596355,395.533851 C170.230436,395.164513 170.230436,394.578017 170.591225,394.210388 C170.960564,393.856439 171.5539,393.849599 171.916399,394.210388 L172.251539,394.550658 L172.58839,394.210388 C172.949179,393.856439 173.545934,393.849599 173.908433,394.210388 L173.911853,394.210388 Z M174.319624,383.614475 C174.685543,383.976974 174.685543,384.568599 174.319624,384.931098 L173.979354,385.271369 L174.319624,385.609929 C174.676993,385.972428 174.680413,386.558924 174.323044,386.926553 C174.138374,387.100962 173.907538,387.201847 173.661312,387.201847 C173.411667,387.201847 173.18083,387.100962 172.999581,386.926553 L172.66273,386.587992 L172.327589,386.926553 C171.961671,387.273662 171.361496,387.266823 171.007546,386.926553 C170.645047,386.558924 170.648467,385.972428 171.007546,385.609929 L171.347816,385.271369 L171.007546,384.931098 C170.641627,384.568599 170.641627,383.976974 171.007546,383.614475 C171.368335,383.260525 171.965091,383.253686 172.327589,383.614475 L172.66273,383.954745 L172.999581,383.614475 C173.36208,383.260525 173.958835,383.253686 174.319624,383.614475 Z M140.794212,394.210388 C141.155001,394.578017 141.155001,395.164513 140.794212,395.533851 L140.453942,395.867282 L140.790792,396.205842 C141.155001,396.568341 141.155001,397.161677 140.790792,397.522466 C140.609543,397.696876 140.378706,397.79776 140.13248,397.79776 C139.882835,397.79776 139.651998,397.696876 139.470749,397.522466 L139.133898,397.182196 L138.798758,397.522466 C138.432839,397.862736 137.832664,397.862736 137.478714,397.522466 C137.112796,397.161677 137.112796,396.568341 137.478714,396.205842 L137.813855,395.867282 L137.478714,395.533851 C137.112796,395.164513 137.112796,394.578017 137.473585,394.210388 C137.842923,393.856439 138.436259,393.849599 138.798758,394.210388 L139.133898,394.550658 L139.470749,394.210388 C139.831538,393.856439 140.428293,393.849599 140.790792,394.210388 L140.794212,394.210388 Z M140.474832,383.614475 C140.840751,383.976974 140.840751,384.568599 140.474832,384.931098 L140.134562,385.271369 L140.474832,385.609929 C140.832201,385.972428 140.835621,386.558924 140.478252,386.926553 C140.293583,387.100962 140.062746,387.201847 139.81652,387.201847 C139.566875,387.201847 139.336038,387.100962 139.154789,386.926553 L138.817938,386.587992 L138.482798,386.926553 C138.116879,387.273662 137.516704,387.266823 137.162754,386.926553 C136.800255,386.558924 136.803675,385.972428 137.162754,385.609929 L137.503024,385.271369 L137.162754,384.931098 C136.796835,384.568599 136.796835,383.976974 137.162754,383.614475 C137.523543,383.260525 138.120299,383.253686 138.482798,383.614475 L138.817938,383.954745 L139.154789,383.614475 C139.517288,383.260525 140.114043,383.253686 140.474832,383.614475 Z M169.189921,375.06497 C169.55584,375.427469 169.55584,376.019095 169.189921,376.381594 L168.849651,376.721864 L169.189921,377.060425 C169.547291,377.422924 169.550711,378.00942 169.193341,378.377048 C169.008672,378.551458 168.777835,378.652342 168.53161,378.652342 C168.281964,378.652342 168.051127,378.551458 167.869878,378.377048 L167.533028,378.038488 L167.197887,378.377048 C166.831968,378.724158 166.231793,378.717319 165.877844,378.377048 C165.515345,378.00942 165.518764,377.422924 165.877844,377.060425 L166.218114,376.721864 L165.877844,376.381594 C165.511925,376.019095 165.511925,375.427469 165.877844,375.06497 C166.238633,374.711021 166.835388,374.704181 167.197887,375.06497 L167.533028,375.405241 L167.869878,375.06497 C168.232377,374.711021 168.829132,374.704181 169.189921,375.06497 Z M145.604535,375.06497 C145.970453,375.427469 145.970453,376.019095 145.604535,376.381594 L145.264264,376.721864 L145.604535,377.060425 C145.961904,377.422924 145.965324,378.00942 145.607954,378.377048 C145.423285,378.551458 145.192448,378.652342 144.946223,378.652342 C144.696577,378.652342 144.465741,378.551458 144.284491,378.377048 L143.947641,378.038488 L143.6125,378.377048 C143.246581,378.724158 142.646406,378.717319 142.292457,378.377048 C141.929958,378.00942 141.933377,377.422924 142.292457,377.060425 L142.632727,376.721864 L142.292457,376.381594 C141.926538,376.019095 141.926538,375.427469 142.292457,375.06497 C142.653246,374.711021 143.250001,374.704181 143.6125,375.06497 L143.947641,375.405241 L144.284491,375.06497 C144.64699,374.711021 145.243746,374.704181 145.604535,375.06497 Z" transform="translate(-129.66 -366.33)"/>
</svg>
