<svg xmlns="http://www.w3.org/2000/svg" width="59" height="35" viewBox="0 0 59 35">
  <path fill="#748592" fill-rule="evenodd" d="M329.88203,403.690564 C329.918779,403.351059 330.021484,403.00615 330.191225,402.663406 L331.865932,399.308405 C332.30488,398.439111 332.534066,397.470336 332.536194,396.492903 L332.533576,383.823035 C332.532459,382.85317 332.302122,381.881135 331.867436,381.007485 L330.176268,377.62317 C329.965413,377.202563 329.857273,376.73763 329.860501,376.282432 C329.86047,375.432584 330.225897,374.617349 330.852991,374.055131 C331.488734,373.484264 332.332085,373.211824 333.183017,373.303759 C333.54415,373.344859 333.895554,373.449751 334.223173,373.621678 L337.579375,375.295545 C338.442213,375.728069 339.414249,375.958406 340.394926,375.961685 L343.166121,375.960703 C343.624563,375.96072 343.999764,376.335921 343.998699,376.793281 C344.001951,377.014934 343.917622,377.222527 343.756525,377.383625 C343.596508,377.543641 343.388915,377.62797 343.166181,377.625799 L340.396067,377.6257 C339.163463,377.627818 337.929768,377.336922 336.836623,376.784374 L333.480421,375.110507 C333.30634,375.027246 333.154965,374.977504 333.006836,374.965605 C332.621916,374.92018 332.254302,375.036939 331.96346,375.295343 C331.687755,375.549423 331.527746,375.910548 331.524516,376.283573 C331.526685,376.486844 331.577511,376.693361 331.66726,376.88258 L333.356265,380.264732 C333.913138,381.368689 334.202953,382.601304 334.198672,383.823095 L334.20129,396.492963 C334.201334,397.719079 333.908365,398.954916 333.362383,400.054509 L331.681189,403.413834 C331.604427,403.564122 331.552533,403.724143 331.535239,403.879839 C331.493086,404.287462 331.63366,404.683198 331.919116,404.968653 C332.206733,405.256271 332.602469,405.396845 333.010092,405.354692 C333.164707,405.336317 333.325809,405.285505 333.476097,405.208742 L336.835422,403.527549 C337.935015,402.981566 339.170852,402.688597 340.396968,402.688641 L361.976182,402.69158 C363.197974,402.687299 364.430588,402.977113 365.534545,403.533987 L368.893991,405.208935 C369.042122,405.285708 369.199984,405.333288 369.358925,405.353837 C369.769795,405.399263 370.169846,405.26088 370.454199,404.976527 C370.741796,404.688929 370.881261,404.287798 370.835834,403.876928 C370.816367,403.72988 370.768787,403.572018 370.68877,403.409831 L369.014903,400.053629 C368.461273,398.959403 368.171459,397.726789 368.173577,396.494185 L368.170298,395.504858 C368.1692,395.045335 368.544374,394.670161 369.002816,394.67234 C369.456933,394.676681 369.838621,395.04972 369.837557,395.507081 L369.837592,396.495326 C369.840871,397.476003 370.071208,398.448038 370.502651,399.309795 L372.177599,402.667079 C372.351689,402.99686 372.454418,403.346102 372.491193,403.69426 C372.592861,404.611147 372.280418,405.505314 371.631702,406.15403 C371.064076,406.721656 370.314794,407.031942 369.515764,407.030832 C369.39791,407.029747 369.285462,407.02758 369.165445,407.009195 C368.828099,406.972421 368.477776,406.870773 368.149076,406.695601 L364.790711,405.021735 C363.918142,404.588129 362.946107,404.35563 361.976242,404.356676 L340.395947,404.352656 C339.419595,404.355865 338.449739,404.58397 337.581526,405.024 L334.226525,406.698706 C333.883781,406.868447 333.538872,406.971152 333.199367,407.007901 C332.283568,407.11491 331.387216,406.804565 330.737372,406.154721 C330.087529,405.504878 329.775021,404.606364 329.88203,403.690564 Z M338.15285,395.722013 L338.471499,395.403364 L338.151495,395.083361 C337.807405,394.739271 337.805068,394.1773 338.148844,393.833524 C338.491477,393.490891 339.053448,393.493228 339.397538,393.837318 L339.717542,394.157322 L340.037333,393.837531 C340.379966,393.494897 340.938496,393.493793 341.283733,393.83903 C341.627823,394.18312 341.629013,394.743944 341.286379,395.086577 L340.966588,395.406368 L341.286592,395.726372 C341.631829,396.071609 341.633019,396.632433 341.290386,396.975066 C341.125922,397.13953 340.913222,397.226064 340.669452,397.233558 C340.435966,397.233063 340.211447,397.143313 340.040549,396.972415 L339.720546,396.652411 L339.401897,396.97106 C339.237433,397.135524 339.013302,397.2289 338.778669,397.227258 C338.547477,397.229057 338.322958,397.139307 338.153207,396.969556 C337.80797,396.624319 337.810217,396.064647 338.15285,395.722013 Z M338.133008,385.076815 L338.447088,384.762735 L338.127084,384.442731 C337.782994,384.098641 337.786373,383.533248 338.129006,383.190615 C338.472781,382.84684 339.033605,382.84803 339.377695,383.19212 L339.697699,383.512123 L340.016348,383.193474 C340.360123,382.849699 340.922094,382.852036 341.266184,383.196126 C341.610274,383.540216 341.610317,384.099893 341.266542,384.443668 L340.947893,384.762317 L341.267897,385.082321 C341.611987,385.426411 341.614323,385.988382 341.270548,386.332157 C341.101516,386.501189 340.873944,386.591125 340.639311,386.589483 C340.416124,386.587865 340.182449,386.498095 340.017285,386.332932 L339.697282,386.012928 L339.383201,386.327009 C339.218737,386.491473 339.000327,386.583717 338.763415,386.586648 C338.528782,386.585005 338.303116,386.494108 338.135659,386.326651 C337.791569,385.982561 337.789232,385.42059 338.133008,385.076815 Z M349.682301,395.740663 L350.00095,395.422014 L349.680713,395.101776 C349.336371,394.757435 349.337266,394.196411 349.679899,393.853778 C350.022533,393.511145 350.588125,393.505681 350.932466,393.850023 L351.252704,394.17026 L351.566784,393.85618 C351.909417,393.513547 352.471595,393.51609 352.815936,393.860431 C353.160277,394.204772 353.159377,394.763506 352.816744,395.106139 L352.502663,395.42022 L352.824049,395.741605 C353.16839,396.085947 353.164075,396.652687 352.821441,396.99532 C352.656977,397.159784 352.439663,397.250839 352.202671,397.255975 C351.959917,397.246212 351.734136,397.155199 351.574591,396.995654 L351.254353,396.675417 L350.935704,396.994066 C350.775809,397.153961 350.550483,397.246142 350.313491,397.251277 C350.07647,397.244963 349.848399,397.153945 349.68541,396.990957 C349.341069,396.646615 349.339668,396.083296 349.682301,395.740663 Z M349.66521,385.098215 L349.983859,384.779566 L349.662708,384.458416 C349.318618,384.114326 349.317429,383.553502 349.661204,383.209726 C350.003837,382.867093 350.564661,382.868283 350.908751,383.212373 L351.229902,383.533524 L351.548551,383.214875 C351.892326,382.871099 352.450856,382.869995 352.794946,383.214085 C353.140183,383.559322 353.141373,384.120146 352.797598,384.463922 L352.478949,384.78257 L352.798952,385.102574 C353.143042,385.446664 353.145379,386.008635 352.802746,386.351268 C352.64285,386.511164 352.417578,386.605682 352.180666,386.608613 C351.948327,386.609265 351.722661,386.518368 351.55291,386.348617 L351.232906,386.028613 L350.914257,386.347262 C350.749793,386.511726 350.52452,386.606245 350.289883,386.602313 C350.059838,386.605259 349.834172,386.514362 349.664421,386.344611 C349.320331,386.000521 349.321435,385.441991 349.66521,385.098215 Z M361.216672,395.759206 L361.530295,395.445583 L361.210174,395.125462 C360.865959,394.781247 360.869961,394.215026 361.212095,393.872892 C361.554229,393.530758 362.115888,393.531317 362.460104,393.875533 L362.780224,394.195654 L363.093847,393.882031 C363.435981,393.539897 364.001055,393.534747 364.34527,393.878963 C364.689486,394.223179 364.686631,394.790547 364.344497,395.132681 L364.030875,395.446304 L364.350995,395.766425 C364.695211,396.11064 364.695771,396.6723 364.353637,397.014434 C364.184851,397.18322 363.960928,397.276341 363.726421,397.274486 C363.491908,397.270343 363.262847,397.178135 363.101066,397.016354 L362.780945,396.696233 L362.467323,397.009856 C362.298537,397.178642 362.074613,397.271763 361.845816,397.266494 C361.606741,397.266912 361.379968,397.174712 361.214745,397.009489 C360.870529,396.665273 360.874538,396.10134 361.216672,395.759206 Z M344.7721,376.62492 C344.771908,376.400714 344.860817,376.193133 345.023337,376.030613 C345.185857,375.868093 345.394536,375.778086 345.617644,375.779376 L361.863097,375.636651 C362.847096,375.625764 363.82441,375.386374 364.702357,374.937805 L368.094834,373.219683 C368.440314,373.044659 368.79061,372.940338 369.147976,372.897993 C370.004326,372.798987 370.858516,373.066788 371.489135,373.63152 L371.60565,373.748035 C372.158015,374.3004 372.473438,375.061656 372.466346,375.862772 C372.460026,376.330835 372.35033,376.796547 372.138722,377.21745 L370.405092,380.640539 C369.955444,381.517407 369.717133,382.495801 369.705166,383.478721 L369.624862,392.550056 C369.626152,392.773164 369.539401,392.982903 369.375783,393.146521 C369.218753,393.303551 369.007917,393.3914 368.780416,393.394502 C368.318903,393.398588 367.945626,393.02531 367.949711,392.563797 L368.029996,383.494639 C368.040923,382.26031 368.345815,381.014672 368.906391,379.901731 L370.640002,376.480818 C370.733072,376.294968 370.786071,376.086617 370.78794,375.875453 C370.789945,375.526063 370.651507,375.181181 370.401217,374.930891 C370.385034,374.914708 370.37101,374.900683 370.349336,374.889991 C370.063213,374.630223 369.700685,374.518063 369.310626,374.565052 C369.165753,374.578306 368.998725,374.635293 368.832545,374.719481 L365.441166,376.436505 C364.328224,376.997081 363.082586,377.301973 361.848258,377.3129 L345.604963,377.457783 C345.374206,377.459826 345.168264,377.363694 345.016148,377.211578 C344.86511,377.06054 344.768979,376.854598 344.7721,376.62492 Z M361.19923,385.112296 L361.513311,384.798216 L361.193073,384.477978 C360.847584,384.132489 360.848484,383.573755 361.19226,383.22998 C361.534893,382.887347 362.098195,382.881878 362.443684,383.227367 L362.763922,383.547604 L363.078002,383.233524 C363.421778,382.889749 363.982807,382.891144 364.327148,383.235485 C364.672638,383.580974 364.671737,384.139708 364.327962,384.483484 L364.013881,384.797564 L364.334119,385.117802 C364.67846,385.462143 364.676435,386.028889 364.333802,386.371522 C364.169338,386.535986 363.950881,386.628184 363.713884,386.631029 C363.47113,386.621266 363.246496,386.531401 363.083508,386.368413 L362.76327,386.048175 L362.44919,386.362256 C362.280157,386.531288 362.062843,386.622344 361.824703,386.626331 C361.587688,386.622307 361.359611,386.528999 361.196623,386.366011 C360.852281,386.021669 360.856597,385.454929 361.19923,385.112296 Z M326.41337,381.937357 C326.796445,382.320067 326.796445,382.938668 326.41337,383.321378 C324.638457,385.089088 323.661125,387.445057 323.661125,389.953717 C323.661125,392.462378 324.638457,394.817368 326.41337,396.586057 C326.797427,396.968767 326.797427,397.587368 326.41337,397.970078 C326.221833,398.160944 325.970379,398.256866 325.718924,398.256866 C325.46747,398.256866 325.216016,398.160944 325.024479,397.970078 C322.878277,395.832382 321.696639,392.985057 321.696639,389.953717 C321.696639,386.922378 322.878277,384.076032 325.024479,381.937357 C325.408536,381.554647 326.029313,381.554647 326.41337,381.937357 Z M329.854168,396.029121 C329.602713,396.029121 329.351259,395.934177 329.159722,395.742333 C325.881977,392.47706 325.881977,387.161205 329.159722,383.894954 C329.543779,383.512244 330.164556,383.512244 330.548613,383.894954 C330.93267,384.277664 330.93267,384.896265 330.548613,385.278975 C328.036036,387.781763 328.036036,391.854544 330.548613,394.358311 C330.93267,394.741022 330.93267,395.359622 330.548613,395.742333 C330.357076,395.933198 330.105622,396.029121 329.854168,396.029121 Z M377.303382,381.937357 C379.449583,384.076032 380.631221,386.922378 380.631221,389.953717 C380.631221,392.985057 379.449583,395.832382 377.303382,397.970078 C377.111845,398.160944 376.86039,398.256866 376.608936,398.256866 C376.357482,398.256866 376.106028,398.160944 375.91449,397.970078 C375.530433,397.587368 375.530433,396.968767 375.91449,396.586057 C377.689404,394.817368 378.666735,392.462378 378.666735,389.953717 C378.666735,387.445057 377.689404,385.090067 375.91449,383.321378 C375.530433,382.938668 375.530433,382.320067 375.91449,381.937357 C376.298547,381.554647 376.919325,381.554647 377.303382,381.937357 Z M371.779247,383.894954 C372.162322,383.512244 372.784082,383.512244 373.168139,383.894954 C376.445884,387.160226 376.445884,392.476082 373.168139,395.742333 C372.976601,395.933198 372.725147,396.029121 372.473693,396.029121 C372.222239,396.029121 371.970785,395.933198 371.779247,395.742333 C371.39519,395.359622 371.39519,394.741022 371.779247,394.358311 C374.291825,391.855523 374.291825,387.782742 371.779247,385.278975 C371.39519,384.896265 371.39519,384.277664 371.779247,383.894954 Z" transform="translate(-321.66 -372.33)"/>
</svg>
