<svg xmlns="http://www.w3.org/2000/svg" width="36" height="54" viewBox="0 0 36 54">
  <path fill="#748592" d="M520.322794,275.016932 L520.322794,286.288735 L529.783697,286.288735 L532.936517,289.437739 C533.294902,289.841367 533.294902,290.469275 532.936517,290.828066 C532.757371,291.007414 532.488558,291.097182 532.264532,291.097182 C532.040506,291.097182 531.771694,291.007414 531.592548,290.828066 L528.680677,287.912901 L510.403019,287.912901 L507.491148,290.828066 C507.312002,291.007414 507.04319,291.097182 506.819164,291.097182 C506.595138,291.097182 506.326419,291.007414 506.147179,290.828066 C505.788888,290.424531 505.788888,289.79653 506.147179,289.437739 L509.105366,286.288735 L519.339953,286.288735 L519.339953,275.016932 L510.110007,275.016932 C509.534809,275.016932 509.070225,274.551823 509.070225,273.975974 L509.070225,260.052235 L508.391786,260.967688 C508.207428,261.211316 507.934577,261.366353 507.632229,261.388501 C507.329881,261.410649 507.034908,261.299908 506.821052,261.085811 L502.425947,256.685732 C502.042481,256.301833 502.020358,255.68907 502.366952,255.27564 L506.083618,250.868179 C508.340166,248.195648 511.636495,246.667433 515.124557,246.667433 C515.544894,246.667433 515.906237,246.918444 516.068472,247.280195 L519.272183,245.419759 L519.272183,243.278781 C519.272183,242.702932 519.291058,242.237823 519.866256,242.237823 C520.588942,242.237823 521.178889,241.647209 521.178889,240.923706 C521.178889,240.200203 520.588942,239.609588 519.866256,239.609588 C519.143571,239.609588 518.553624,240.200203 518.553624,240.923706 C518.553624,241.499555 518.089041,241.964664 517.513843,241.964664 C516.938644,241.964664 516.474061,241.499555 516.474061,240.923706 C516.474061,239.048505 518.000549,237.520289 519.873631,237.520289 C521.746713,237.520289 523.273201,239.048505 523.265826,240.923706 C523.265826,242.429773 521.881656,243.71436 520.517403,244.157321 L520.517403,245.419759 L523.671415,247.287578 C523.83365,246.925826 524.194993,246.674815 524.61533,246.674815 C528.110766,246.674815 531.407096,248.20303 533.656269,250.875561 L537.372935,255.283023 C537.719529,255.696453 537.697406,256.309215 537.299192,256.693115 L532.904086,261.093193 C532.690231,261.307291 532.395257,261.418031 532.092909,261.395883 C531.790561,261.373735 531.510336,261.218699 531.333352,260.97507 L530.654913,260.059618 L530.654913,273.975974 C530.654913,274.551823 530.19033,275.016932 529.615131,275.016932 L520.322794,275.016932 Z M528.582724,272.942398 L528.582724,256.907213 C528.582724,256.456869 528.870323,256.058204 529.298035,255.917933 C529.725747,255.777662 530.197704,255.925316 530.46318,256.287067 L532.299391,258.760266 L535.153259,255.895785 L532.048663,252.219209 C530.396811,250.262799 528.059146,249.044656 525.537122,248.801028 C525.081064,251.196391 522.747977,253.075777 520.322794,253.439834 L520.322794,272.942398 L528.582724,272.942398 Z M523.147837,249.435938 L520.322794,247.798319 L520.322794,251.31667 C521.375706,251.068815 522.655462,250.368988 523.147837,249.435938 Z M519.339953,247.888804 L516.599425,249.435938 C517.070731,250.329063 518.346341,251.008497 519.339953,251.282387 L519.339953,247.888804 Z M519.339953,253.423124 C516.96387,253.02141 514.630117,251.161813 514.180642,248.801028 C511.658618,249.044656 509.320953,250.262799 507.669101,252.219209 L504.571879,255.895785 L507.440497,258.760266 L509.276707,256.287067 C509.549557,255.925316 510.014141,255.777662 510.441852,255.917933 C510.869564,256.058204 511.157163,256.456869 511.157163,256.907213 L511.157163,272.942398 L519.339953,272.942398 L519.339953,253.423124 Z" transform="translate(-501.66 -237.33)"/>
</svg>
