<svg xmlns="http://www.w3.org/2000/svg" width="85" height="52" viewBox="0 0 85 52">
  <path fill="#F39325" fill-rule="evenodd" d="M2656.87015,26.3064666 L2681.7775,12.7921668 L2709.21143,25.3598957 L2709.22143,32.4346172 L2684.05383,46.1301423 L2652.21512,63.7609563 L2625.37875,51.2132237 L2625.27283,43.4506265 L2634.31763,38.5430726 C2634.87986,38.8465121 2635.16097,39.4312182 2635.16097,40.297191 C2635.16097,40.3154553 2635.16097,40.3335946 2635.16097,40.3516087 L2627.85294,44.294474 L2652.22312,55.7084114 L2685.58072,37.5256972 L2661.52831,26.1257573 L2660.05632,26.9199327 C2659.87469,26.957658 2659.58087,27.0806989 2659.14343,27.2995398 C2657.99819,27.8724745 2657.02648,27.2094982 2656.87015,26.3064666 Z M2700.44291,32.135919 L2688.31072,38.7254804 L2688.31871,41.2990153 L2693.60551,38.4051485 L2693.57747,38.4893231 L2706.56797,31.4905878 L2706.56797,29.4909492 L2706.5078,29.5150306 L2706.50541,28.7332861 L2701.42912,31.5307805 L2701.42922,31.5720042 L2700.44291,32.135919 Z M2671.60641,20.5311836 L2663.65076,24.8939799 L2687.78511,36.1859393 L2699.3223,30.1163172 L2701.68662,28.9335104 L2701.69493,28.9372492 L2701.83848,28.8575344 L2702.57089,28.4911298 L2702.55276,28.4608984 L2706.41947,26.3137233 L2681.96536,14.9497769 L2681.85145,14.8957866 L2680.68594,15.5429896 L2680.58697,15.4934786 L2671.59355,20.4925752 L2671.60641,20.5311836 Z M2627.87093,49.9774471 L2650.69823,60.5795312 L2650.70023,57.8060324 L2627.86893,47.2799345 L2627.87093,49.9774471 Z M2653.00854,60.7554994 L2685.89849,42.5367917 L2685.89249,39.7832892 L2653.00854,58.0919807 L2653.00854,60.7554994 Z M2655.97837,24.5642602 C2656.10693,31.3005313 2656.28276,40.5262586 2645.05611,44.4195998 C2644.95669,44.4541339 2644.85277,44.4714009 2644.74897,44.4714009 C2644.64518,44.4714009 2644.54138,44.4541339 2644.44184,44.4195998 C2633.21606,40.5263837 2633.39214,31.3009067 2633.5207,24.5647606 C2633.53458,23.8407964 2633.54758,23.1567465 2633.54758,22.4950937 C2633.54758,21.9768323 2633.96752,21.5566678 2634.48549,21.5566678 C2638.49637,21.5566678 2641.54983,20.4032799 2644.09519,17.9268365 C2644.45922,17.5726121 2645.03872,17.5724869 2645.40288,17.9268365 C2647.94849,20.4032799 2651.00245,21.5566678 2655.01358,21.5566678 C2655.53168,21.5566678 2655.95149,21.9768323 2655.95149,22.4950937 C2655.95149,23.1566214 2655.96462,23.840421 2655.97837,24.5642602 Z M2644.7491,42.5371175 C2654.37743,39.0376649 2654.23199,31.3717265 2654.10293,24.5999203 C2654.09518,24.1937696 2654.08767,23.8001312 2654.08242,23.4141254 C2650.32553,23.255594 2647.32097,22.1164701 2644.7491,19.8750086 C2642.17748,22.1164701 2639.17341,23.2554689 2635.41677,23.4141254 C2635.41152,23.8002564 2635.40402,24.194145 2635.39627,24.600546 C2635.26708,31.3721019 2635.12152,39.03779 2644.7491,42.5371175 Z M2647.97888,27.8063338 C2648.34517,27.4398473 2648.93905,27.4399724 2649.30521,27.806459 C2649.6715,28.1728204 2649.6715,28.7670317 2649.30509,29.1335183 L2644.1152,34.3261414 C2643.93212,34.5093221 2643.69201,34.6009125 2643.45203,34.6009125 C2643.21205,34.6009125 2642.97195,34.5093221 2642.78887,34.3261414 L2640.19398,31.7298298 C2639.8277,31.3633433 2639.8277,30.7692571 2640.19398,30.4026454 C2640.56014,30.036284 2641.15403,30.036284 2641.52031,30.4026454 L2643.45203,32.3354273 L2647.97888,27.8063338 Z" transform="translate(-2624.465 -12)"/>
</svg>
