<svg xmlns="http://www.w3.org/2000/svg" width="29" height="55" viewBox="0 0 29 55">
  <path fill="#748592" fill-rule="evenodd" d="M918.180507,162.614848 C917.875371,162.463466 917.682298,162.154003 917.682298,161.816408 L917.682298,123.418925 C917.683648,123.330507 917.6985,123.243429 917.725503,123.15903 C917.732254,123.137596 917.741705,123.12018 917.749806,123.100085 C917.780859,123.019705 917.824064,122.944684 917.878071,122.876361 C917.888872,122.858945 917.899673,122.842869 917.913175,122.826793 C917.969882,122.762489 918.03604,122.706224 918.108948,122.660675 C918.12515,122.649958 918.141352,122.647278 918.157554,122.637901 C918.165655,122.633882 918.171056,122.624504 918.180507,122.620485 L927.179324,118.155381 C927.431804,118.030792 927.73019,118.030792 927.98537,118.155381 L945.983005,127.085589 C945.992456,127.089608 945.997856,127.098986 946.005957,127.103005 C946.022159,127.111043 946.039711,127.115061 946.054563,127.124439 C946.127472,127.169988 946.19363,127.227593 946.250336,127.291897 C946.263838,127.307973 946.273289,127.324049 946.286791,127.341465 C946.339447,127.408448 946.382652,127.484809 946.413706,127.563849 C946.421807,127.585284 946.431258,127.6027 946.438009,127.624134 C946.465012,127.707193 946.479871,127.795611 946.479871,127.884029 L946.479871,166.281512 C946.481214,166.619107 946.288141,166.92857 945.983005,167.079952 L936.984187,171.545056 C936.970686,171.550415 936.957184,171.547735 936.943682,171.553094 C936.831619,171.60668 936.707404,171.636153 936.58319,171.637493 L936.58184,171.638832 L936.580489,171.638832 C936.50488,171.637493 936.429271,171.626775 936.355013,171.60802 C936.33206,171.601322 936.310457,171.590604 936.286154,171.582566 C936.2497,171.571849 936.214596,171.559792 936.179492,171.545056 L918.180507,162.614848 Z M919.482061,124.864424 L919.482061,161.264466 L935.681283,169.301117 L935.681283,132.901075 L919.482061,124.864424 Z M944.68145,165.72823 L944.68145,129.329528 L937.481046,132.901075 L937.481046,169.301117 L944.68145,165.72823 Z M927.581672,119.953212 L920.594593,123.418925 L936.58184,131.351083 L943.568918,127.884029 L927.581672,119.953212 Z M934.082963,133.735687 C934.235531,133.810708 934.331393,133.966109 934.331393,134.134907 L934.331393,166.281512 C934.331393,166.435573 934.251733,166.578917 934.118067,166.660637 C933.985752,166.742356 933.819682,166.749055 933.680615,166.680732 L921.080921,160.429854 C920.928353,160.354833 920.832491,160.199432 920.832491,160.030634 L920.832491,127.884029 C920.832491,127.729968 920.913501,127.585284 921.045817,127.504904 C921.179482,127.423184 921.344202,127.416486 921.484619,127.484809 L934.082963,133.735687 Z M921.733048,128.606109 L921.733048,159.754663 L927.132339,162.433993 L927.132339,131.285439 L921.733048,128.606109 Z M933.432186,165.558092 L933.432186,134.410878 L928.031545,131.731548 L928.031545,162.878762 L933.432186,165.558092 Z M929.3813,147.082502 C929.262486,147.082502 929.147723,147.035614 929.064013,146.951215 C928.978953,146.868156 928.931697,146.754285 928.931697,146.636394 L928.931697,144.85062 C928.931697,144.602782 929.132871,144.404512 929.3813,144.404512 C929.63108,144.404512 929.832254,144.602782 929.832254,144.85062 L929.832254,146.636394 C929.832254,146.754285 929.784998,146.868156 929.699938,146.951215 C929.614878,147.035614 929.501465,147.082502 929.3813,147.082502 Z M925.781908,142.617934 C925.902073,142.617934 926.015486,142.664823 926.100546,142.747882 C926.184256,142.832281 926.231512,142.946152 926.231512,143.064043 L926.231512,144.849817 C926.231512,145.096315 926.030338,145.297265 925.781908,145.297265 C925.533479,145.297265 925.332305,145.096315 925.332305,144.849817 L925.332305,143.064043 C925.332305,142.946152 925.379561,142.832281 925.464621,142.747882 C925.548331,142.664823 925.663094,142.617934 925.781908,142.617934 Z" transform="translate(-917.66 -117.33)"/>
</svg>
