<svg xmlns="http://www.w3.org/2000/svg" width="56" height="49" viewBox="0 0 56 49">
  <path fill="#748592" fill-rule="evenodd" d="M1118.41553,371.477045 L1119.83253,370.725659 L1119.93185,370.67271 L1119.75498,363.794854 C1119.75362,363.721541 1119.76314,363.649586 1119.78491,363.57763 C1119.78763,363.568127 1119.79171,363.558623 1119.80532,363.527397 C1119.82709,363.463587 1119.8611,363.399778 1119.90464,363.341399 L1119.93185,363.299312 C1119.98083,363.243648 1120.03254,363.197488 1120.08696,363.160831 L1120.11553,363.147255 C1120.12642,363.143182 1120.14682,363.132321 1120.16451,363.114671 L1123.76594,361.204457 C1123.77955,361.200385 1123.79859,361.194954 1123.81356,361.188166 C1123.99724,361.113495 1124.1986,361.108064 1124.3782,361.170516 C1124.40405,361.181377 1124.4231,361.18545 1124.44078,361.186808 L1142.08466,369.426387 C1142.11051,369.444037 1142.135,369.461686 1142.18534,369.501058 C1142.22071,369.520065 1142.25609,369.543145 1142.28194,369.562152 L1142.31187,369.590663 C1142.33908,369.621889 1142.36493,369.654473 1142.40575,369.71964 C1142.41936,369.733216 1142.4316,369.74815 1142.44385,369.761727 L1142.45337,369.787522 C1142.45745,369.794311 1142.46017,369.802456 1142.4697,369.822821 C1142.4833,369.863551 1142.49283,369.905638 1142.50507,369.96809 C1142.51596,370.006104 1142.5214,370.041403 1142.5282,370.076702 C1142.52956,370.087563 1142.53092,370.095709 1142.53364,370.103855 L1143.04157,389.797929 C1143.04794,390.077605 1142.89828,390.334201 1142.65065,390.464535 L1139.05058,392.381538 L1139.0016,392.395114 L1138.98664,392.401902 C1138.8397,392.475215 1138.67507,392.49558 1138.49819,392.452135 L1138.46826,392.442632 L1138.44649,392.434486 C1138.4152,392.427698 1138.38527,392.416836 1138.36622,392.408691 L1133.72531,390.241881 L1133.6015,390.161779 L1111.18203,402.076518 L1111.30176,406.642296 C1111.29768,406.677594 1111.29087,406.712893 1111.27863,406.775345 C1111.27319,406.829651 1111.26502,406.883957 1111.25958,406.904322 C1111.21604,406.998 1111.16298,407.091678 1111.11944,407.156845 C1111.07862,407.198932 1111.03781,407.231516 1110.97114,407.277676 C1110.94665,407.302114 1110.91944,407.322478 1110.90991,407.331982 L1107.24998,409.272064 C1107.23773,409.276137 1107.22413,409.281568 1107.19556,409.293787 L1107.16154,409.306005 C1107.15338,409.310078 1107.14658,409.312794 1107.13569,409.315509 C1107.02413,409.353523 1106.89079,409.357596 1106.76834,409.323655 C1106.76154,409.322297 1106.75473,409.319582 1106.74385,409.314151 L1106.65133,409.284283 C1106.63908,409.281568 1106.62684,409.277495 1106.62412,409.277495 L1102.92337,407.549206 C1102.89207,407.528841 1102.86214,407.508476 1102.80772,407.463674 C1102.76554,407.440594 1102.722,407.406653 1102.70568,407.397149 C1102.64445,407.317048 1102.58459,407.227443 1102.54105,407.155487 C1102.52472,407.10797 1102.51247,407.053664 1102.50023,406.968132 C1102.48935,406.93419 1102.48254,406.901607 1102.47982,406.892103 L1102.36009,402.301888 L1097.58449,400.071268 L1097.33823,399.958583 L1097.31918,400.257267 C1097.31646,400.304784 1097.30829,400.35909 1097.30421,400.383528 C1097.26067,400.471775 1097.20761,400.565453 1097.16271,400.633336 C1097.12054,400.67678 1097.07836,400.710722 1097.01577,400.754167 C1096.98856,400.779962 1096.96135,400.803042 1096.95182,400.80983 L1093.32727,402.736336 L1093.18169,402.793357 L1093.18032,402.794715 C1093.06059,402.831371 1092.93814,402.834087 1092.81569,402.802861 L1088.96528,401.028412 C1088.93262,401.008047 1088.90405,400.984967 1088.84963,400.94288 C1088.80473,400.918442 1088.76391,400.885859 1088.74895,400.874997 C1088.68908,400.796254 1088.62786,400.708006 1088.58568,400.636051 C1088.56663,400.585818 1088.55439,400.531512 1088.54214,400.44598 C1088.53126,400.413396 1088.52445,400.379455 1088.52037,400.369952 L1088.12554,385.017643 C1088.12445,384.94433 1088.13261,384.879162 1088.15302,384.809922 L1088.16798,384.761047 L1088.15302,384.713529 C1088.06322,384.387693 1088.20744,384.049638 1088.50405,383.889435 L1091.67145,382.207307 C1091.6905,382.204591 1091.70683,382.199161 1091.72315,382.192372 C1091.90139,382.114986 1092.10275,382.112271 1092.28507,382.176081 C1092.3082,382.184227 1092.32861,382.189657 1092.3463,382.192372 L1095.38173,383.608402 L1095.46336,383.647774 L1097.97627,382.315266 L1097.97627,377.15593 L1099.56486,376.363293 L1099.56486,376.337091 C1106.64481,372.831398 1111.71314,370.334437 1114.76987,368.846207 C1116.24494,368.122549 1117.46016,367.529194 1118.41553,367.066142 L1118.41553,371.477045 Z M1117.69011,371.86171 L1117.69011,368.134841 L1115.61606,369.170305 L1115.61606,372.961504 L1117.69011,371.86171 Z M1114.86693,373.358745 L1114.86693,369.544077 L1112.79288,370.578875 L1112.79288,374.458539 L1114.86693,373.358745 L1114.86693,373.358745 Z M1112.0451,374.855058 L1112.0451,370.951282 L1109.97106,371.98608 L1109.97106,375.954852 L1112.0451,374.855058 L1112.0451,374.855058 Z M1109.22192,376.352093 L1109.22192,372.361185 L1107.14787,373.393989 L1107.14787,377.451887 L1109.22192,376.352093 L1109.22192,376.352093 Z M1106.4001,377.848406 L1106.4001,373.767054 L1104.32469,374.803196 L1104.32469,378.948922 L1106.4001,377.848406 L1106.4001,377.848406 Z M1103.57828,379.344719 L1103.57828,375.176289 L1101.50423,376.211087 L1101.50423,380.444513 L1103.57828,379.344719 L1103.57828,379.344719 Z M1100.77272,380.832409 L1100.77272,376.576059 L1098.68089,377.619726 L1098.65705,381.954274 L1100.77272,380.832409 L1100.77272,380.832409 Z M1092.89233,386.067555 L1106.43772,392.397829 L1106.51935,392.435844 L1108.52347,391.371446 L1092.12724,383.710225 L1092.04425,383.670854 L1090.04149,384.735251 L1092.74851,386.000343 L1093.02118,386.000343 L1092.89233,386.067555 L1092.89233,386.067555 Z M1141.55811,389.382488 L1141.46968,385.981574 L1139.29413,387.135577 L1139.38256,390.537848 L1141.55811,389.382488 Z M1141.4275,384.340175 L1141.09144,371.314879 L1138.91589,372.470239 L1139.25331,385.494178 L1141.4275,384.340175 Z M1120.70058,371.927179 L1117.27874,373.742357 L1119.12776,374.607181 L1119.20531,374.571882 C1120.17131,374.132003 1121.20127,373.888984 1122.26387,373.846896 L1131.24227,378.013525 L1131.22322,378.051539 L1131.41779,378.116706 C1131.67221,378.203596 1131.88582,378.385521 1131.99875,378.604103 C1132.18107,379.152594 1132.02324,379.760821 1131.59738,380.155897 L1131.39874,380.340538 L1133.76613,381.447023 L1133.84776,381.486394 L1137.27096,379.669858 L1120.78221,371.966551 L1120.70058,371.927179 Z M1127.31567,379.395613 C1125.2408,380.377194 1123.98771,381.73756 1124.25166,382.296912 C1124.36187,382.523639 1124.75235,382.645828 1125.32651,382.630894 C1125.41495,382.629536 1125.50747,382.624105 1125.60135,382.614602 C1126.59729,382.491056 1127.55377,382.205949 1128.44358,381.763355 C1130.51845,380.777701 1131.77289,379.418693 1131.50758,378.859341 C1131.39874,378.631256 1131.00553,378.510425 1130.42593,378.525359 C1130.3443,378.528075 1130.25722,378.532147 1130.1579,378.541651 C1129.16468,378.66384 1128.20684,378.950304 1127.31567,379.395613 Z M1123.71288,381.831238 C1123.96458,380.895817 1125.28706,379.744529 1127.08029,378.89464 C1127.81091,378.544366 1128.57964,378.279625 1129.37013,378.105845 L1129.89803,377.991803 L1122.25163,374.410321 L1122.20809,374.392672 L1122.16183,374.395387 C1120.98357,374.478204 1119.84886,374.797252 1118.79306,375.343027 C1116.83656,376.274375 1115.76443,377.356422 1115.62837,377.824812 L1115.58483,377.971438 L1123.45301,381.94528 L1123.65437,382.047104 L1123.71288,381.831238 Z M1116.77397,374.008457 L1108.1983,378.556585 L1124.68432,386.259893 L1124.76732,386.297907 L1133.23687,381.808157 L1131.05451,380.787204 L1131.00553,380.764124 L1130.91846,380.841511 C1130.23681,381.410366 1129.48306,381.888259 1128.6776,382.260255 C1127.7184,382.735433 1126.69797,383.039546 1125.64489,383.16445 C1125.5374,383.172596 1125.43672,383.179384 1125.32515,383.183457 C1124.84759,383.23369 1124.37003,383.106071 1123.96866,382.822322 L1115.17258,378.380091 L1115.13176,378.294559 C1114.70046,377.368641 1116.37532,375.972977 1118.11549,375.066066 L1118.44339,374.897718 L1116.96037,374.201243 C1116.92499,374.186309 1116.89234,374.161871 1116.86921,374.132003 L1116.77397,374.008457 Z M1133.55932,382.261613 L1125.03671,386.779873 L1125.09114,388.893734 L1133.61375,384.365971 L1133.55932,382.261613 Z M1107.70305,378.821327 L1104.5683,380.481733 L1121.05296,388.185041 L1121.1346,388.223055 L1124.15642,386.622385 L1107.89217,379.023617 C1107.85407,379.00461 1107.82142,378.978814 1107.79693,378.944873 L1107.70305,378.821327 Z M1124.49112,387.069052 L1121.40943,388.702305 L1121.46386,390.821597 L1124.54555,389.185629 L1124.49112,387.069052 Z M1092.2116,400.9198 L1092.12452,397.521601 L1089.89319,396.477568 L1089.98026,399.878482 L1092.2116,400.9198 Z M1095.85929,399.727783 L1095.84704,399.259394 L1093.61571,398.218076 L1093.68374,400.883143 L1095.85929,399.727783 Z M1106.17105,407.441952 L1106.08261,404.042395 L1103.84992,403.001078 L1103.93835,406.400634 L1106.17105,407.441952 Z M1106.04043,402.400996 L1105.8173,393.729684 L1089.62788,386.164857 L1089.85101,394.836169 L1106.04043,402.400996 Z M1109.81738,406.249935 L1109.72894,402.850378 L1107.55339,404.004381 L1107.64182,407.403937 L1109.81738,406.249935 Z M1109.68676,401.207622 L1109.46363,392.53631 L1107.28808,393.69167 L1107.51257,402.362982 L1109.68676,401.207622 Z M1110.86501,391.101273 C1110.88814,391.170514 1110.90175,391.241111 1110.90447,391.310351 L1110.96434,393.615642 L1120.38084,388.623562 L1120.52506,388.547533 L1104.26081,380.948765 C1104.22543,380.931115 1104.19278,380.90532 1104.16965,380.872736 L1104.07577,380.742402 L1097.13142,384.427065 L1110.45684,390.650533 C1110.46909,390.661395 1110.48405,390.672256 1110.50582,390.681759 L1110.53576,390.693978 C1110.5997,390.730635 1110.65277,390.776795 1110.71535,390.846035 L1110.73168,390.869115 C1110.77658,390.922064 1110.81331,390.9818 1110.84325,391.053756 L1110.86365,391.101273 L1110.86501,391.101273 Z M1120.86248,388.992843 L1111.0242,394.207577 L1110.9793,394.230657 L1111.03373,396.363526 L1120.91691,391.112135 L1120.86248,388.992843 Z M1137.91043,390.574505 L1137.8424,387.910795 L1135.20425,389.310533 L1137.91043,390.574505 Z M1137.80022,386.266681 L1137.71042,382.812819 L1111.05141,396.979899 L1111.13985,400.435119 L1137.80022,386.266681 Z M1137.6941,382.196445 L1137.64103,380.098876 L1134.10627,381.971076 L1134.15933,384.074076 L1137.6941,382.196445 Z M1137.59205,378.198165 L1137.44511,372.506896 L1121.25705,364.942069 L1121.40399,370.636054 L1137.59205,378.198165 Z M1138.14853,371.213055 L1140.15265,370.148657 L1124.22037,362.704661 L1124.13874,362.666647 L1122.13462,363.731045 L1138.06553,371.175041 L1138.14853,371.213055 Z M1089.84421,387.367815 L1090.22473,387.367815 L1089.84421,387.5663 L1089.84421,387.367815 Z" transform="translate(-1087.66 -360.33)"/>
</svg>
