<svg xmlns="http://www.w3.org/2000/svg" width="39" height="44" viewBox="0 0 39 44">
  <path fill="#F39325" fill-rule="evenodd" d="M732.625442,266.090474 L732.623272,266.914101 L732.625442,284.787788 C732.625442,285.058269 732.48874,285.305601 732.272838,285.426221 L729.728658,286.855385 C729.723234,286.85904 717.46524,293.329098 717.29816,293.422913 C717.131079,293.516729 716.522304,293.913147 716.367649,293.999986 L713.822385,295.42915 C713.816961,295.432805 713.810451,295.430368 713.805026,295.434023 C713.636861,295.527839 713.439402,295.527839 713.271237,295.434023 C713.265812,295.430368 713.259303,295.432805 713.252793,295.42915 L712.958408,295.250488 C702.674889,289.719545 697.477074,286.922802 697.364964,286.860258 C697.359539,286.857821 697.35303,286.85904 697.347605,286.855385 L694.803426,285.426221 C694.587523,285.305601 694.451906,285.058269 694.451906,284.787788 L694.451906,264.067957 C694.455161,264.00582 694.46601,263.944901 694.483369,263.886418 C694.404169,263.563547 694.537616,263.222399 694.803426,263.07132 L713.252793,252.711405 C713.267982,252.702876 713.282086,252.704094 713.297276,252.698002 C713.337418,252.680945 713.378646,252.667543 713.422043,252.660232 C713.497989,252.637083 713.578274,252.637083 713.65422,252.660232 C713.697618,252.667543 713.73993,252.680945 713.780073,252.698002 C713.794177,252.704094 713.808281,252.702876 713.822385,252.711405 L732.272838,263.07132 C732.538647,263.222399 732.672095,263.563547 732.591809,263.886418 C732.610253,263.944901 732.621103,264.00582 732.625442,264.067957 L732.625442,266.090474 Z M713.857103,275.950852 L731.35281,266.125807 L731.35281,264.466369 L713.857103,274.290195 L713.857103,275.950852 Z M695.723453,266.125807 L713.220245,275.950852 L713.220245,274.290195 L695.723453,264.466369 L695.723453,266.125807 Z M713.538132,254.149097 L696.154173,263.909568 L713.538132,273.671256 L730.92209,263.909568 L713.538132,254.149097 Z M695.599404,267.836859 L695.599404,284.285037 L712.902358,293.633252 L712.902358,277.369051 L695.599404,267.836859 Z M714.17499,293.633252 L731.402351,284.285037 L731.402351,267.836859 L714.17499,277.369051 L714.17499,293.633252 Z M704.855077,264.620895 L704.855077,264.268863 L704.536811,264.268863 C704.194589,264.268863 703.915107,263.950115 703.915107,263.56608 C703.915107,263.180766 704.194589,262.867138 704.536811,262.867138 L704.855077,262.867138 L704.855077,262.509986 C704.855077,262.124671 705.135699,261.811043 705.477921,261.811043 C705.820143,261.811043 706.098484,262.124671 706.098484,262.509986 L706.098484,262.867138 L706.41675,262.867138 C706.758972,262.867138 707.039594,263.180766 707.039594,263.56608 C707.039594,263.755537 706.97115,263.933473 706.853654,264.064045 C706.741861,264.188216 706.581017,264.268863 706.41675,264.268863 L706.098484,264.268863 L706.098484,264.620895 C706.098484,264.805231 706.035743,264.979327 705.919388,265.113739 C705.801891,265.244311 705.644469,265.319837 705.477921,265.319837 C705.135699,265.319837 704.855077,265.006209 704.855077,264.620895 Z M712.978289,269.38685 L712.978289,269.029698 L712.65979,269.029698 C712.317317,269.029698 712.038774,268.71479 712.038774,268.330756 C712.038774,267.946721 712.317317,267.626693 712.65979,267.626693 L712.978289,267.626693 L712.978289,267.274661 C712.978289,266.890627 713.259116,266.576999 713.601588,266.576999 C713.94406,266.576999 714.221462,266.890627 714.221462,267.274661 L714.221462,267.626693 L714.541103,267.626693 C714.883575,267.626693 715.163261,267.946721 715.163261,268.330756 C715.163261,268.515092 715.100474,268.687908 714.985175,268.8236 C714.859602,268.954172 714.702065,269.029698 714.543386,269.029698 L714.224887,269.029698 L714.224887,269.38685 C714.224887,269.566066 714.158676,269.744002 714.043377,269.879695 C713.92237,270.008986 713.763691,270.085793 713.601588,270.085793 C713.259116,270.085793 712.978289,269.770885 712.978289,269.38685 Z M712.979884,260.965744 L712.979884,260.608592 L712.660477,260.608592 C712.318255,260.608592 712.038774,260.294964 712.038774,259.909649 C712.038774,259.525615 712.318255,259.211987 712.660477,259.211987 L712.979884,259.211987 L712.979884,258.854835 C712.979884,258.46952 713.257084,258.155892 713.599306,258.155892 C713.942669,258.155892 714.22215,258.46952 714.22215,258.854835 L714.22215,259.211987 L714.540416,259.211987 C714.882638,259.211987 715.163261,259.525615 715.163261,259.909649 C715.163261,260.088866 715.098238,260.268082 714.981883,260.402494 C714.866668,260.533065 714.709246,260.608592 714.540416,260.608592 L714.22215,260.608592 L714.22215,260.965744 C714.22215,261.150081 714.157128,261.329297 714.038491,261.458588 C713.925558,261.58916 713.768135,261.664687 713.599306,261.664687 C713.257084,261.664687 712.979884,261.351059 712.979884,260.965744 Z M721.101955,264.615774 L721.101955,264.263743 L720.783456,264.263743 C720.439842,264.263743 720.16244,263.950115 720.16244,263.5648 C720.16244,263.180766 720.439842,262.862017 720.783456,262.862017 L721.101955,262.862017 L721.101955,262.509986 C721.101955,262.124671 721.38164,261.811043 721.724112,261.811043 C722.067726,261.811043 722.345129,262.124671 722.345129,262.509986 L722.345129,262.862017 L722.663628,262.862017 C723.0061,262.862017 723.286927,263.180766 723.286927,263.5648 C723.286927,263.749137 723.22414,263.923232 723.1077,264.057644 C722.982127,264.188216 722.825731,264.263743 722.663628,264.263743 L722.345129,264.263743 L722.345129,264.615774 C722.345129,264.805231 722.282342,264.978047 722.165901,265.113739 C722.046036,265.244311 721.886216,265.319837 721.724112,265.319837 C721.38164,265.319837 721.101955,264.999809 721.101955,264.615774 Z" transform="translate(-693.66 -252.33)"/>
</svg>
