<svg xmlns="http://www.w3.org/2000/svg" width="74" height="73" viewBox="0 0 74 73">
  <path fill="#748592" fill-rule="evenodd" d="M252.465623,389.351127 L249.490564,387.884677 L249.490564,376.031943 C249.487961,375.91339 249.469741,375.797414 249.430698,375.684015 C249.42289,375.655666 249.409876,375.629893 249.399464,375.604121 C249.357819,375.495877 249.297953,375.395364 249.227676,375.302584 C249.212059,375.281966 249.196442,375.25877 249.178222,375.238153 C249.100136,375.150526 249.011639,375.075786 248.912731,375.013933 C248.891908,375.001046 248.868483,374.995892 248.84766,374.983006 C248.837248,374.977851 248.82944,374.967542 248.819028,374.95981 L212.342667,356.970665 C211.99909,356.803144 211.598251,356.803144 211.254675,356.970665 L203.958882,360.568494 C203.945868,360.576226 203.940662,360.586535 203.927648,360.591689 C203.906825,360.604575 203.883399,360.60973 203.865179,360.622616 C203.763668,360.68447 203.677774,360.75921 203.599688,360.846836 C203.581468,360.867454 203.565851,360.890649 203.550234,360.911267 C203.479957,361.004048 203.420092,361.10456 203.378446,361.212804 C203.368035,361.238577 203.352417,361.264349 203.347212,361.292699 C203.308169,361.406097 203.289949,361.522073 203.284743,361.643204 L203.284743,366.297702 L180.855972,377.359222 C180.819532,377.384995 180.785695,377.413344 180.749255,377.441694 C180.691992,377.475198 180.632126,377.513857 180.580069,377.55767 C180.556644,377.578288 180.535821,377.598906 180.514998,377.622101 C180.473352,377.673646 180.431707,377.727768 180.400472,377.784467 C180.369238,377.820549 180.340607,377.85663 180.314578,377.895289 C180.309373,377.905597 180.309373,377.921061 180.304167,377.93137 C180.291153,377.957142 180.283344,377.982915 180.272933,378.008687 C180.249507,378.075695 180.236493,378.145281 180.226081,378.212289 C180.210464,378.274143 180.19745,378.33342 180.192244,378.395273 C180.192244,378.40816 180.184436,378.418469 180.184436,378.431355 L180.184436,404.216656 C180.184436,404.67025 180.447324,405.085186 180.855972,405.288788 L185.720701,407.685623 C185.738921,407.695932 185.757141,407.693355 185.772758,407.698509 C185.926326,407.770672 186.092909,407.809331 186.262094,407.811908 L186.264697,407.814485 L186.2673,407.814485 C186.368811,407.811908 186.470322,407.799022 186.569231,407.773249 C186.603068,407.76294 186.631699,407.750054 186.662933,407.739745 C186.712387,407.724282 186.761842,407.708818 186.808693,407.685623 L192.886351,404.688291 C192.907174,404.680559 192.920188,404.662519 192.938408,404.649632 L222.741059,419.347641 L222.741059,425.203133 C222.748867,425.259833 222.759279,425.313955 222.777499,425.368077 C222.782704,425.455703 222.800924,425.540752 222.826953,425.625801 C222.89723,425.759817 222.980521,425.88868 223.071621,426.012387 C223.131486,426.071664 223.199161,426.123209 223.27204,426.167022 C223.316289,426.208258 223.36314,426.244339 223.412594,426.275266 L228.277324,428.674678 C228.292941,428.682409 228.308558,428.684987 228.324175,428.690141 C228.347601,428.70045 228.368424,428.708182 228.391849,428.715913 L228.420481,428.726222 C228.454318,428.736531 228.482949,428.751995 228.516786,428.759727 C228.615695,428.785499 228.717206,428.800962 228.818717,428.800962 L228.82132,428.800962 L228.82132,428.800962 C228.925434,428.800962 229.026945,428.785499 229.125854,428.759727 C229.157088,428.751995 229.185719,428.736531 229.219556,428.726222 L229.248188,428.715913 C229.271613,428.708182 229.295039,428.70045 229.315862,428.690141 C229.331479,428.684987 229.349699,428.682409 229.365316,428.674678 L234.227443,426.275266 C234.276897,426.244339 234.326351,426.208258 234.367997,426.167022 C234.440876,426.123209 234.508551,426.071664 234.571019,426.012387 C234.662119,425.88868 234.742807,425.759817 234.813084,425.625801 C234.839113,425.540752 234.857333,425.455703 234.865141,425.368077 C234.880758,425.313955 234.893773,425.259833 234.898978,425.203133 L234.898978,419.347641 L241.005268,416.337423 C241.005268,416.350309 241.010474,416.360618 241.013077,416.376081 C241.023488,416.46113 241.039105,416.546179 241.065134,416.628651 C241.135411,416.765245 241.218702,416.894107 241.309802,417.017814 C241.37227,417.077091 241.437341,417.128636 241.510221,417.172449 C241.55447,417.211107 241.601321,417.249766 241.653378,417.280693 L246.515505,419.680105 C246.531122,419.687837 246.546739,419.690414 246.562356,419.698146 C246.585782,419.705877 246.606605,419.713609 246.63003,419.721341 L246.658662,419.73165 C246.689896,419.741959 246.72113,419.754845 246.754967,419.765154 C246.853875,419.790926 246.955387,419.80639 247.059501,419.80639 L247.059501,419.80639 C247.163615,419.80639 247.262523,419.790926 247.364034,419.765154 C247.395269,419.754845 247.4239,419.741959 247.457737,419.73165 L247.488971,419.721341 C247.509794,419.713609 247.530617,419.705877 247.554043,419.698146 C247.56966,419.690414 247.58788,419.687837 247.600894,419.680105 L252.465623,417.280693 C252.515078,417.249766 252.564532,417.211107 252.606177,417.172449 C252.679057,417.128636 252.746731,417.077091 252.8092,417.017814 C252.9003,416.894107 252.980988,416.765245 253.051265,416.628651 C253.077293,416.546179 253.095513,416.46113 253.103322,416.376081 C253.118939,416.319382 253.129351,416.26526 253.139762,416.208561 L253.139762,391.023757 C253.137159,390.910358 253.118939,390.794382 253.085102,390.686138 C253.217847,390.152649 252.962768,389.601119 252.465623,389.351127 L252.465623,389.351127 Z M230.036852,419.064144 L230.036852,403.15741 L250.706096,392.96442 L250.706096,408.871154 L230.036852,419.064144 Z M182.618102,380.372018 L185.049165,381.570435 L185.049165,398.077667 L182.618102,396.879249 L182.618102,380.372018 Z M234.076477,370.372321 L229.500664,372.629984 L218.701433,367.302826 L223.277246,365.045162 L234.076477,370.372321 Z M245.555053,376.031943 L240.979239,378.289606 L230.859353,373.29749 L235.435166,371.042403 L245.555053,376.031943 Z M223.412594,398.946197 C223.402183,398.951352 223.394374,398.96166 223.38136,398.969392 C223.36314,398.979701 223.337112,398.984856 223.318892,398.997742 C223.219983,399.059596 223.128884,399.136913 223.053401,399.221962 C223.035181,399.245157 223.022167,399.265775 223.003947,399.28897 C222.93367,399.381751 222.876407,399.479686 222.832158,399.58793 C222.821747,399.61628 222.808733,399.639475 222.798321,399.670402 C222.761881,399.781223 222.743662,399.899776 222.741059,400.018329 L222.741059,407.144402 L211.941828,401.817244 L228.82132,393.492754 L231.645414,394.884464 L223.412594,398.946197 Z M205.046874,381.902899 C205.085917,381.879704 205.124959,381.853931 205.161399,381.825582 L215.302109,386.82543 L198.422617,395.14992 L188.305333,390.160381 L205.046874,381.902899 Z M216.660797,387.49809 L227.460029,392.822671 L210.583139,401.147161 L199.781305,395.820003 L216.660797,387.49809 Z M217.267262,386.454308 L217.267262,369.27957 L228.212253,374.673737 L228.212253,391.853628 L217.267262,386.454308 Z M233.004102,394.214382 L229.427784,392.451548 L229.427784,375.276811 L239.763708,380.372018 L239.763708,390.882008 L233.004102,394.214382 Z M247.059501,387.284179 L242.194771,389.683591 L242.194771,380.372018 L247.059501,377.975183 L247.059501,387.284179 Z M216.054333,385.856387 L205.71841,380.758604 L205.71841,363.581289 L216.054333,368.679073 L216.054333,385.856387 Z M203.284743,380.088521 L187.480229,387.884677 L187.480229,381.570435 L203.284743,373.776857 L203.284743,380.088521 Z M187.480229,391.095919 L222.741059,408.484568 L222.741059,411.940649 L187.480229,394.552 L187.480229,391.095919 Z M225.174725,401.958992 L227.603185,403.15741 L227.603185,419.064144 L225.174725,417.865727 L225.174725,401.958992 Z M228.82132,401.074998 L226.67657,400.018329 L247.665965,389.66555 L249.810715,390.724797 L228.82132,401.074998 Z M243.410303,415.149314 L245.841366,413.950897 L245.841366,416.66731 L243.410303,415.468892 L243.410303,415.149314 Z M248.27243,412.75248 L250.706096,411.554062 L250.706096,415.468892 L248.27243,416.66731 L248.27243,412.75248 Z M211.798671,359.38554 L221.918558,364.37508 L217.340142,366.632743 L207.222858,361.643204 L211.798671,359.38554 Z M203.284743,371.093948 L186.264697,379.488024 L184.119947,378.431355 L203.284743,368.978033 L203.284743,371.093948 Z M182.618102,403.47441 L182.618102,399.559581 L185.049165,400.760575 L185.049165,404.672828 L182.618102,403.47441 Z M187.480229,404.672828 L187.480229,401.958992 L190.231443,403.317199 L187.480229,404.672828 Z M187.480229,399.278661 L187.480229,395.892166 L222.741059,413.280814 L222.741059,416.66731 L187.480229,399.278661 Z M227.603185,421.747052 L227.603185,425.661882 L225.174725,424.460888 L225.174725,420.548635 L227.603185,421.747052 Z M232.467915,424.460888 L230.036852,425.661882 L230.036852,421.747052 L232.467915,420.548635 L232.467915,424.460888 Z" transform="translate(-180.001 -356)"/>
</svg>
