<svg xmlns="http://www.w3.org/2000/svg" width="28" height="55" viewBox="0 0 28 55">
  <path fill="#748592" d="M26.7837153,408.084383 C26.7837153,409.563764 25.5844825,410.763227 24.1053851,410.763227 L2.67874307,410.763227 C1.19964568,410.763227 0.000412847439,409.563764 0.000412847439,408.084383 L0.000412847439,374.15235 C0.00302840991,374.135782 0.00695173966,374.119214 0.0113109453,374.103081 C0.0152343644,374.018059 0.0317995022,373.934345 0.061006582,373.85412 C0.0732125141,373.820983 0.0871621509,373.789154 0.102855492,373.757761 C0.135549981,373.693668 0.175655187,373.633498 0.222735211,373.578997 C0.244095564,373.551965 0.266763724,373.525804 0.291611486,373.501388 C0.302945622,373.490487 0.309484542,373.476535 0.321690363,373.466507 L5.82743767,368.877503 L1.04053266,369.674965 C0.991708936,369.683685 0.942449197,369.687609 0.89318957,369.687609 C0.583682061,369.687609 0.296406702,369.527594 0.133370267,369.264244 C-0.0292301585,369.00133 -0.0440515917,368.672578 0.0941369692,368.395712 L1.68047225,365.222868 L0.0941369692,362.050024 C-0.0558216256,361.749613 -0.024434943,361.390341 0.175219177,361.120451 C0.374873408,360.850125 0.709228792,360.714962 1.04053266,360.770771 L6.24985008,361.638431 L6.24985008,359.865179 C6.24985008,358.385797 7.44908294,357.186334 8.92818033,357.186334 L17.8559478,357.186334 C19.3350452,357.186334 20.5342781,358.385797 20.5342781,359.865179 L20.5342781,361.638431 L25.7479548,360.770771 C26.0792587,360.714962 26.4136141,360.850125 26.6132682,361.120451 C26.8133583,361.390341 26.8443091,361.749613 26.6943505,362.050024 L25.103656,365.222868 L26.6943505,368.395712 C26.832975,368.673014 26.8177176,369.002638 26.6538094,369.266424 C26.4899012,369.529774 26.201318,369.689353 25.8909386,369.687609 C25.841679,369.687173 25.7919834,369.682377 25.7435956,369.673221 L20.9566905,368.875759 L26.4624378,373.464763 C26.4746437,373.474791 26.4811827,373.488743 26.4925167,373.499644 C26.5173646,373.52406 26.5400326,373.549785 26.5613931,373.577253 C26.6084731,373.631755 26.6485783,373.691924 26.6808368,373.756017 C26.696966,373.78741 26.7109156,373.819239 26.7231217,373.852375 C26.7518928,373.932165 26.7688939,374.016315 26.7728172,374.101337 C26.7776124,374.118341 26.7810998,374.135346 26.7837153,374.15235 L26.7837153,408.084383 Z M23.1612407,365.621817 L23.1662091,365.621817 C23.0231165,365.370675 23.0231165,365.075061 23.1662091,364.823919 L24.3089626,362.820018 L14.9190064,364.193449 L14.9190064,366.252287 L24.3039941,367.625719 L23.1612407,365.621817 Z M8.03540358,359.865179 L8.03540358,361.936662 L11.6806181,362.544023 L15.1035102,362.544023 L18.7487246,361.936662 L18.7487246,359.865179 C18.7487246,359.372052 18.3489803,358.972231 17.8559478,358.972231 L8.92818033,358.972231 C8.43514794,358.972231 8.03540358,359.372052 8.03540358,359.865179 Z M12.4992873,364.222646 L12.4992873,366.223091 L14.2848408,366.223091 L14.2848408,364.222646 L12.4992873,364.222646 Z M3.62288762,364.823919 C3.76598024,365.075061 3.76598024,365.370675 3.62288762,365.621817 L2.47516564,367.625719 L11.8651218,366.252287 L11.8651218,364.193449 L2.47516564,362.820018 L3.62288762,364.823919 Z M9.31833426,368.296302 L3.35922376,373.259402 L23.4249044,373.259402 L17.4701532,368.296302 L15.1035102,367.901713 L11.6806181,367.901713 L9.31833426,368.296302 Z M24.9981618,408.056871 L24.9981618,373.99986 L1.78596632,373.99986 L1.78596632,408.056871 C1.78596632,408.565191 2.18571068,408.977331 2.67874307,408.977331 L24.1053851,408.977331 C24.5984176,408.977331 24.9981618,408.565191 24.9981618,408.056871 Z M6.24985008,393.797211 C5.75681769,393.797211 5.35707332,393.39739 5.35707332,392.904263 L5.35707332,383.081832 C5.35707332,382.588705 5.75681769,382.188884 6.24985008,382.188884 L20.5342781,382.188884 C21.0273106,382.188884 21.4270548,382.588705 21.4270548,383.081832 L21.4270548,392.904263 C21.4270548,393.39739 21.0273106,393.797211 20.5342781,393.797211 L6.24985008,393.797211 Z M6.20936489,383.077886 L6.20936489,393.070999 L20.6174179,393.070999 L20.6174179,383.077886 L6.20936489,383.077886 Z" transform="translate(.34 -356.33)"/>
</svg>
