<svg xmlns="http://www.w3.org/2000/svg" width="20" height="44" viewBox="0 0 20 44">
  <path fill="#F39325" fill-rule="evenodd" d="M1786.09766,171.665725 L1771.32238,164.1704 C1771.0719,164.043341 1770.91341,163.783602 1770.91341,163.500251 L1770.91341,131.272377 C1770.91451,131.198166 1770.92671,131.125079 1770.94887,131.054241 C1770.95441,131.036251 1770.96217,131.021633 1770.96882,131.004767 C1770.99431,130.937303 1771.02978,130.874336 1771.07411,130.816991 C1771.08298,130.802373 1771.09185,130.78888 1771.10293,130.775387 C1771.14948,130.721416 1771.20379,130.67419 1771.26364,130.63596 C1771.27694,130.626965 1771.29024,130.624716 1771.30354,130.616845 C1771.31019,130.613472 1771.31462,130.605601 1771.32238,130.602228 L1774.49112,128.961347 C1774.69838,128.856776 1774.94332,128.856776 1775.1528,128.961347 L1789.92697,136.456672 C1789.93473,136.460045 1789.93916,136.467916 1789.94581,136.471289 C1789.95911,136.478036 1789.97352,136.481409 1789.98571,136.48928 C1790.04556,136.52751 1790.09987,136.575859 1790.14642,136.629831 C1790.15751,136.643324 1790.16527,136.656817 1790.17635,136.671434 C1790.21957,136.727655 1790.25504,136.791746 1790.28053,136.858086 C1790.28718,136.876077 1790.29494,136.890694 1790.30048,136.908685 C1790.32265,136.978398 1790.33503,137.05261 1790.33503,137.126821 L1790.33503,169.354694 C1790.33595,169.638046 1790.17746,169.897785 1789.92697,170.024843 L1786.75823,171.665725 C1786.74715,171.670222 1786.73607,171.667973 1786.72498,171.672471 C1786.63299,171.717448 1786.53102,171.742185 1786.42684,171.744433 C1786.36477,171.743309 1786.30271,171.734314 1786.24175,171.718572 C1786.22291,171.71295 1786.20517,171.703955 1786.18522,171.697208 C1786.1553,171.688213 1786.12648,171.678093 1786.09766,171.665725 Z M1772.39082,132.485617 L1772.39082,163.036993 L1785.68869,169.782336 L1785.68869,139.23096 L1772.39082,132.485617 Z M1788.85853,168.890312 L1788.85853,138.34006 L1787.1661,139.23096 L1787.1661,169.782336 L1788.85853,168.890312 Z M1774.82141,130.470307 L1773.30409,131.272377 L1786.42795,137.930016 L1787.94526,137.126821 L1774.82141,130.470307 Z M1778.66957,137.930016 L1774.23865,135.626097 L1774.23865,161.769782 L1777.00806,163.214007 L1777.00706,163.229268 L1777.71169,163.580942 L1778.1154,163.791473 L1778.11559,163.782526 L1783.84241,166.640731 L1783.84241,140.498171 L1778.66957,137.930016 Z M1774.03471,134.684965 L1784.37663,139.931468 C1784.50188,139.994435 1784.58057,140.124866 1784.58057,140.266542 L1784.58057,167.247913 C1784.58057,167.37722 1784.51518,167.497532 1784.40545,167.566121 C1784.29683,167.634711 1784.16051,167.640333 1784.04635,167.582988 L1773.70332,162.336485 C1773.57808,162.273518 1773.49938,162.143086 1773.49938,162.00141 L1773.49938,135.02004 C1773.49938,134.890732 1773.56588,134.769296 1773.6745,134.701831 C1773.78423,134.633242 1773.91945,134.62762 1774.03471,134.684965 Z M1782.91917,142.138687 L1775.16079,153.382799 L1775.16079,154.50721 L1782.91917,143.263098 L1782.91917,142.138687 Z M1782.91917,148.885154 L1775.16079,160.129266 L1775.16079,161.253677 L1782.91917,150.009565 L1782.91917,148.885154 Z" transform="translate(-1770.66 -128.33)"/>
</svg>
