<svg xmlns="http://www.w3.org/2000/svg" width="77" height="65" viewBox="0 0 77 65">
  <path fill="#F39325" fill-rule="evenodd" d="M1970.47323,405.764413 C1971.26386,406.658878 1971.51073,407.372987 1971.21383,407.906741 L1956.06788,422.972949 C1955.22219,423.820043 1954.5776,424.856003 1954.20549,425.987332 L1952.74528,430.33687 C1952.59494,430.780051 1952.38446,431.167134 1952.12135,431.492508 C1951.4185,432.377001 1950.36985,432.883762 1949.24039,432.883762 C1948.11093,432.883762 1947.05853,432.377001 1946.35567,431.492508 C1946.09257,431.167134 1945.88209,430.780051 1945.73174,430.33687 L1944.27153,425.987332 C1943.89755,424.856003 1943.25483,423.820043 1942.40727,422.972949 L1931.39459,412.018695 C1930.55078,411.180951 1929.5059,410.539553 1928.36892,410.15995 L1923.95821,408.695768 C1923.40946,408.514382 1922.91144,408.205837 1922.51867,407.809405 C1921.78011,407.074509 1921.38921,406.053508 1921.44559,405.025027 C1921.50197,403.981587 1921.9981,403.016685 1922.81748,402.360328 C1923.16703,402.083573 1923.56356,401.870397 1923.99768,401.735759 L1928.36892,400.280927 C1929.49462,399.908804 1930.53951,399.267406 1931.39459,398.422182 L1933.80197,396.024887 C1934.20038,395.628455 1934.8525,395.628455 1935.24903,396.024887 C1935.44447,396.213754 1935.55159,396.466199 1935.55159,396.744824 C1935.55159,397.021578 1935.44447,397.274024 1935.24903,397.46476 L1932.84165,399.860185 C1931.77233,400.927935 1930.44742,401.743239 1929.01728,402.210731 L1924.64603,403.665563 C1924.4224,403.744102 1924.24762,403.83199 1924.10855,403.949798 C1923.73457,404.243382 1923.51658,404.662254 1923.48839,405.137225 C1923.46959,405.595367 1923.64437,406.046028 1923.96573,406.371402 C1924.14426,406.545309 1924.3679,406.679946 1924.61033,406.765965 L1929.01728,408.230147 C1930.46058,408.703248 1931.7836,409.518553 1932.84165,410.578823 L1943.85433,421.533076 C1944.91989,422.593346 1945.73926,423.915411 1946.22036,425.338454 L1947.6787,429.697342 C1947.74259,429.893688 1947.83656,430.076945 1947.95683,430.226542 C1948.27443,430.615494 1948.7405,430.83615 1949.23663,430.83615 C1949.73653,430.83615 1950.20259,430.615494 1950.52019,430.226542 C1950.63859,430.076945 1950.73443,429.893688 1950.79833,429.697342 L1952.25666,425.338454 C1952.73776,423.915411 1953.55714,422.593346 1954.6227,421.533076 L1970.47323,405.764413 Z M1976.63243,400.732936 C1976.82008,400.658003 1977.0102,400.588912 1977.20245,400.525892 L1981.57745,399.06919 C1981.7729,399.007481 1981.95143,398.912113 1982.10742,398.792435 C1982.50395,398.476411 1982.73134,398.01079 1982.73134,397.518989 C1982.73134,397.021578 1982.50395,396.554087 1982.10742,396.238063 C1981.96271,396.127735 1981.78418,396.032367 1981.5737,395.961308 L1977.20245,394.506476 C1975.77043,394.038985 1974.4474,393.22368 1973.37808,392.15593 L1972.51548,391.303226 C1972.11519,390.906794 1972.11519,390.257916 1972.51548,389.863354 C1972.9139,389.474401 1973.56977,389.466921 1973.9663,389.863354 L1974.82514,390.717927 C1975.68022,391.563151 1976.72511,392.204549 1977.84893,392.576672 L1982.22205,394.031505 C1982.65993,394.166142 1983.0527,394.379318 1983.38722,394.648593 C1984.27237,395.35357 1984.7779,396.39701 1984.7779,397.518989 C1984.7779,398.500721 1984.3964,399.417003 1983.70106,400.10702 C1983.5977,400.207998 1983.4981,400.303367 1983.37782,400.391255 C1983.0527,400.65118 1982.65993,400.866226 1982.22205,400.998993 L1977.84893,402.455696 C1977.80801,402.469379 1977.76722,402.483399 1977.72654,402.497754 C1976.51273,402.331925 1976.14803,401.743652 1976.63243,400.732936 Z M1947.63923,418.520563 C1947.07356,418.520563 1946.61689,418.060551 1946.61689,417.499562 L1946.61689,416.977842 L1946.09257,416.977842 C1945.52878,416.977842 1945.06647,416.5197 1945.06647,415.956841 C1945.06647,415.395852 1945.52878,414.93771 1946.09257,414.93771 L1946.61689,414.93771 L1946.61689,414.41412 C1946.61689,413.853131 1947.07356,413.394989 1947.63923,413.394989 C1948.20302,413.394989 1948.66345,413.853131 1948.66345,414.41412 L1948.66345,414.93771 L1949.18777,414.93771 C1949.75344,414.93771 1950.21387,415.395852 1950.21387,415.956841 C1950.21387,416.226116 1950.11051,416.471081 1949.91694,416.676777 C1949.72525,416.867514 1949.46779,416.977842 1949.18777,416.977842 L1948.66345,416.977842 L1948.66345,417.499562 C1948.66345,417.768837 1948.55633,418.028762 1948.36276,418.219498 C1948.17483,418.410235 1947.91737,418.520563 1947.63923,418.520563 Z M1938.49269,409.415705 C1937.9289,409.415705 1937.4666,408.957563 1937.4666,408.394704 L1937.4666,407.880464 L1936.94227,407.880464 C1936.37848,407.880464 1935.91806,407.414842 1935.91806,406.853853 C1935.91806,406.290994 1936.37848,405.832852 1936.94227,405.832852 L1937.4666,405.832852 L1937.4666,405.311132 C1937.4666,404.748273 1937.9289,404.290131 1938.49269,404.290131 C1939.05648,404.290131 1939.51503,404.748273 1939.51503,405.311132 L1939.51503,405.832852 L1940.03935,405.832852 C1940.60314,405.832852 1941.06545,406.290994 1941.06545,406.853853 C1941.06545,407.130608 1940.95269,407.390533 1940.75913,407.581269 C1940.57495,407.762656 1940.30997,407.880464 1940.03935,407.880464 L1939.51503,407.880464 L1939.51503,408.394704 C1939.51503,408.663979 1939.41167,408.918294 1939.21998,409.11464 C1939.02641,409.305377 1938.76707,409.415705 1938.49269,409.415705 Z M1957.70662,408.506902 C1957.14284,408.506902 1956.68053,408.04689 1956.68053,407.485901 L1956.68053,406.964181 L1956.1562,406.964181 C1955.59242,406.964181 1955.13387,406.504169 1955.13387,405.94318 C1955.13387,405.382191 1955.59242,404.914699 1956.1562,404.914699 L1956.68053,404.914699 L1956.68053,404.400459 C1956.68053,403.83947 1957.14284,403.381328 1957.70662,403.381328 C1958.27041,403.381328 1958.72708,403.83947 1958.72708,404.400459 L1958.72708,404.914699 L1959.25329,404.914699 C1959.81708,404.914699 1960.2775,405.382191 1960.2775,405.94318 C1960.2775,406.212455 1960.17414,406.4649 1959.98433,406.663116 C1959.77761,406.853853 1959.51827,406.964181 1959.25704,406.964181 L1958.73272,406.964181 L1958.73272,407.485901 C1958.73272,407.747696 1958.62372,408.007621 1958.43391,408.205837 C1958.23471,408.394704 1957.97349,408.506902 1957.70662,408.506902 Z M1948.55633,399.402044 C1947.99254,399.402044 1947.53587,398.943902 1947.53587,398.381043 L1947.53587,397.859323 L1947.00967,397.859323 C1946.44588,397.859323 1945.98545,397.401181 1945.98545,396.838322 C1945.98545,396.277332 1946.44588,395.819191 1947.00967,395.819191 L1947.53587,395.819191 L1947.53587,395.297471 C1947.53587,394.734612 1947.99254,394.27647 1948.55633,394.27647 C1949.122,394.27647 1949.58242,394.734612 1949.58242,395.297471 L1949.58242,395.819191 L1950.10675,395.819191 C1950.67054,395.819191 1951.13284,396.277332 1951.13284,396.838322 C1951.13284,397.100117 1951.02572,397.361912 1950.83404,397.558258 C1950.64423,397.748995 1950.38488,397.859323 1950.10675,397.859323 L1949.58242,397.859323 L1949.58242,398.381043 C1949.58242,398.650318 1949.4753,398.912113 1949.27986,399.100979 C1949.09381,399.291716 1948.83446,399.402044 1948.55633,399.402044 Z M1967.77026,398.491371 C1967.20647,398.491371 1966.74792,398.025749 1966.74792,397.46476 L1966.74792,396.95052 L1966.2236,396.95052 C1965.65981,396.95052 1965.19938,396.483029 1965.19938,395.922039 C1965.19938,395.36105 1965.65981,394.901038 1966.2236,394.901038 L1966.74792,394.901038 L1966.74792,394.386798 C1966.74792,393.825809 1967.20647,393.358318 1967.77026,393.358318 C1968.33405,393.358318 1968.79636,393.825809 1968.79636,394.386798 L1968.79636,394.901038 L1969.32068,394.901038 C1969.88447,394.901038 1970.3449,395.36105 1970.3449,395.922039 C1970.3449,396.198794 1970.23778,396.458719 1970.04421,396.649455 C1969.84876,396.838322 1969.58566,396.95052 1969.32068,396.95052 L1968.79636,396.95052 L1968.79636,397.46476 C1968.79636,397.741515 1968.68924,398.00144 1968.49755,398.184696 C1968.3021,398.381043 1968.04088,398.491371 1967.77026,398.491371 Z M1936.84831,395.447068 C1936.58521,395.447068 1936.32211,395.35357 1936.12478,395.155354 C1935.92933,394.964617 1935.82597,394.712172 1935.82597,394.435417 C1935.82597,394.158662 1935.92933,393.904347 1936.12478,393.715481 L1950.14997,379.761804 C1950.99753,378.91471 1951.64025,377.87875 1952.01423,376.749291 L1953.47257,372.397883 C1953.62103,371.954702 1953.83527,371.567619 1954.10965,371.227285 C1954.76928,370.413851 1955.74652,369.91457 1956.78765,369.858471 L1956.99061,369.858471 C1957.95281,369.858471 1958.89058,370.238074 1959.58216,370.926221 C1959.98433,371.330133 1960.29442,371.820064 1960.47671,372.358614 L1961.9482,376.749291 C1962.3203,377.87875 1962.9649,378.91471 1963.81058,379.761804 L1971.64161,387.553947 C1971.83706,387.742814 1971.94418,387.995259 1971.94418,388.273884 C1971.94418,388.541288 1971.83706,388.795604 1971.64161,388.99195 C1971.2432,389.388383 1970.59296,389.388383 1970.19455,388.99195 L1962.3654,381.201677 C1961.29984,380.141407 1960.48047,378.821212 1959.99937,377.396299 L1958.52976,373.007492 C1958.44895,372.770006 1958.31364,372.54748 1958.13135,372.366094 C1957.82878,372.066899 1957.40782,371.891123 1956.97182,371.891123 C1956.94363,371.891123 1956.9192,371.891123 1956.89101,371.900473 C1956.41555,371.922912 1956.0021,372.136088 1955.70329,372.508211 C1955.58866,372.642849 1955.49281,372.833585 1955.4214,373.046761 L1953.96307,377.396299 C1953.48197,378.821212 1952.66259,380.141407 1951.59703,381.201677 L1937.5756,395.155354 C1937.37639,395.35357 1937.11329,395.447068 1936.84831,395.447068 Z M1958.62372,389.388383 C1958.05993,389.388383 1957.5995,388.920891 1957.5995,388.359902 L1957.5995,387.845662 L1957.07518,387.845662 C1956.50951,387.845662 1956.05284,387.38752 1956.05284,386.824661 C1956.05284,386.263671 1956.50951,385.79805 1957.07518,385.79805 L1957.5995,385.79805 L1957.5995,385.28381 C1957.5995,384.720951 1958.05993,384.262809 1958.62372,384.262809 C1959.18939,384.262809 1959.64606,384.720951 1959.64606,385.28381 L1959.64606,385.79805 L1960.17038,385.79805 C1960.73417,385.79805 1961.19648,386.263671 1961.19648,386.824661 C1961.19648,387.093936 1961.09312,387.348251 1960.90143,387.544597 C1960.69471,387.735334 1960.43724,387.845662 1960.17038,387.845662 L1959.64606,387.845662 L1959.64606,388.359902 C1959.64606,388.636657 1959.5427,388.889102 1959.35101,389.087318 C1959.15368,389.278055 1958.89058,389.388383 1958.62372,389.388383 Z M1994.31647,416.075005 C1996.56426,416.075005 1998.39311,417.859235 1998.39311,420.052176 C1998.39311,422.245117 1996.56426,424.029347 1994.31647,424.029347 L1992.37223,424.029347 L1992.37223,426.114732 C1993.15007,426.933589 1993.62658,428.028506 1993.62658,429.230262 C1993.62658,431.760689 1991.51648,433.819305 1988.92276,433.819305 L1976.37925,433.819305 C1973.78554,433.819305 1971.67544,431.760689 1971.67544,429.230262 C1971.67544,428.028506 1972.15194,426.933589 1972.92979,426.114732 L1972.92979,424.029347 L1970.98554,424.029347 C1968.73776,424.029347 1966.9089,422.245117 1966.9089,420.052176 C1966.9089,417.859235 1968.73776,416.075005 1970.98554,416.075005 L1974.97815,416.075005 C1974.27307,414.842178 1973.87055,413.423399 1973.87055,411.914273 C1973.87055,411.19365 1973.96193,410.482826 1974.14249,409.792319 C1973.01578,409.066198 1972.30261,407.817596 1972.30261,406.468609 C1972.30261,404.275667 1974.13147,402.491438 1976.37925,402.491438 C1977.60519,402.491438 1978.73998,403.02109 1979.50484,403.914519 C1980.50538,403.538313 1981.56007,403.348059 1982.65101,403.348059 C1983.74195,403.348059 1984.79663,403.538313 1985.79718,403.914519 C1986.56204,403.02109 1987.69683,402.491438 1988.92276,402.491438 C1991.17055,402.491438 1992.9994,404.275667 1992.9994,406.468609 C1992.9994,407.817596 1992.28624,409.066198 1991.15953,409.792319 C1991.34008,410.482826 1991.43147,411.19365 1991.43147,411.914273 C1991.43147,413.423399 1991.02895,414.842178 1990.32386,416.075005 L1994.31647,416.075005 Z M1974.18414,406.468609 C1974.18414,407.353672 1974.75448,408.158906 1975.60312,408.472013 C1976.0833,408.64936 1976.32928,409.169213 1976.15582,409.640546 C1975.8878,410.368817 1975.75208,411.133897 1975.75208,411.914273 C1975.75208,415.314228 1978.34971,418.132904 1981.71025,418.582009 L1981.71025,416.519808 L1980.97601,416.161528 C1980.51126,415.934944 1980.32286,415.383542 1980.55536,414.930135 C1980.78761,414.476967 1981.3528,414.293166 1981.81731,414.51975 L1982.65101,414.926549 L1983.48471,414.519989 C1983.94946,414.293166 1984.51441,414.476967 1984.74666,414.930374 C1984.97915,415.383781 1984.79076,415.934944 1984.32601,416.161767 L1983.59177,416.519808 L1983.59177,418.582009 C1986.95231,418.132904 1989.54994,415.314228 1989.54994,411.914273 C1989.54994,411.133897 1989.41421,410.368817 1989.1462,409.640546 C1988.97274,409.169213 1989.21871,408.64936 1989.69865,408.472013 C1990.54754,408.158906 1991.11788,407.353672 1991.11788,406.468609 C1991.11788,405.287647 1990.13326,404.327055 1988.92276,404.327055 C1988.09984,404.327055 1987.35262,404.770902 1986.97288,405.48531 C1986.73671,405.929874 1986.17838,406.107699 1985.71878,405.884462 C1984.76062,405.419582 1983.72848,405.183676 1982.65101,405.183676 C1981.57354,405.183676 1980.5414,405.419582 1979.58324,405.884462 C1979.12364,406.10746 1978.5653,405.929874 1978.32913,405.48531 C1977.9494,404.770902 1977.20218,404.327055 1976.37925,404.327055 C1975.16876,404.327055 1974.18414,405.287647 1974.18414,406.468609 Z M1973.55696,429.230262 C1973.55696,430.74847 1974.82307,431.983688 1976.37925,431.983688 C1977.93543,431.983688 1979.20154,430.74847 1979.20154,429.230262 C1979.20154,427.712054 1977.93543,426.476836 1976.37925,426.476836 C1974.82307,426.476836 1973.55696,427.712054 1973.55696,429.230262 Z M1988.92276,431.983688 C1990.47894,431.983688 1991.74505,430.74847 1991.74505,429.230262 C1991.74505,427.712054 1990.47894,426.476836 1988.92276,426.476836 C1987.36658,426.476836 1986.10047,427.712054 1986.10047,429.230262 C1986.10047,430.74847 1987.36658,431.983688 1988.92276,431.983688 Z M1994.31647,422.193729 C1995.52697,422.193729 1996.51159,421.233137 1996.51159,420.052176 C1996.51159,418.871214 1995.52697,417.910622 1994.31647,417.910622 L1988.91492,417.910622 C1987.32053,419.495515 1985.10165,420.480487 1982.65101,420.480487 C1980.20037,420.480487 1977.98149,419.495515 1976.38709,417.910622 L1970.98554,417.910622 C1969.77505,417.910622 1968.79043,418.871214 1968.79043,420.052176 C1968.79043,421.233137 1969.77505,422.193729 1970.98554,422.193729 L1973.87055,422.193729 C1974.39018,422.193729 1974.81131,422.604592 1974.81131,423.111538 L1974.81131,424.904372 C1975.30203,424.734434 1975.82949,424.641219 1976.37925,424.641219 C1978.97297,424.641219 1981.08307,426.699835 1981.08307,429.230262 C1981.08307,430.262558 1980.73175,431.216218 1980.13986,431.983688 L1985.16216,431.983688 C1984.57026,431.216218 1984.21895,430.262558 1984.21895,429.230262 C1984.21895,426.699835 1986.32905,424.641219 1988.92276,424.641219 C1989.47252,424.641219 1989.99999,424.734434 1990.4907,424.904372 L1990.4907,423.111538 C1990.4907,422.604592 1990.91184,422.193729 1991.43147,422.193729 L1994.31647,422.193729 Z M1987.28104,412.626924 C1987.28104,413.135858 1986.86651,413.548332 1986.35503,413.548332 C1985.84356,413.548332 1985.42903,413.135858 1985.42903,412.626924 C1985.42903,412.11799 1985.84356,411.705516 1986.35503,411.705516 C1986.86651,411.705516 1987.28104,412.11799 1987.28104,412.626924 Z M1979.87299,412.626924 C1979.87299,413.135858 1979.45846,413.548332 1978.94698,413.548332 C1978.43551,413.548332 1978.02098,413.135858 1978.02098,412.626924 C1978.02098,412.11799 1978.43551,411.705516 1978.94698,411.705516 C1979.45846,411.705516 1979.87299,412.11799 1979.87299,412.626924 Z" transform="translate(-1921.465 -369)"/>
</svg>
