<svg xmlns="http://www.w3.org/2000/svg" width="82" height="65" viewBox="0 0 82 65">
  <path fill="#748592" fill-rule="evenodd" d="M34.4550245,259.425794 C33.3154205,259.425794 32.2535598,258.911511 31.5443885,258.013889 C31.2789234,257.683685 31.0665512,257.290856 30.9148568,256.841096 L29.4415251,252.426994 C29.0641853,251.278872 28.4156919,250.227534 27.5605148,249.367866 L16.4489011,238.251008 C15.5975164,237.400829 14.5432404,236.74991 13.3960517,236.364672 L8.94571768,234.878756 C8.39203318,234.694676 7.88954553,234.381552 7.49324395,233.979235 C6.74804529,233.23343 6.35363989,232.197274 6.41052529,231.153527 C6.46741068,230.094598 6.96800215,229.115373 7.79473654,228.449272 C8.14742598,228.168409 8.54751992,227.952069 8.98553745,227.815433 L13.3960517,226.339005 C14.5318634,225.961358 15.5861393,225.310439 16.4489011,224.452669 L18.8779075,222.019789 C19.2798976,221.617472 19.937872,221.617472 20.3379659,222.019789 C20.5351686,222.211459 20.6432509,222.467651 20.6432509,222.750412 C20.6432509,223.031275 20.5351686,223.287467 20.3379659,223.481035 L17.9089596,225.912017 C16.8300333,226.995617 15.4932265,227.823024 14.0502337,228.297454 L9.63971948,229.773882 C9.41407409,229.853587 9.23772937,229.94278 9.09741206,230.062336 C8.72007228,230.360279 8.50011542,230.785368 8.47167273,231.26739 C8.45271093,231.732332 8.62905565,232.189683 8.9533024,232.519887 C9.13343948,232.696375 9.35908487,232.833011 9.60369207,232.920306 L14.0502337,234.406223 C15.5064998,234.886346 16.8414104,235.713753 17.9089596,236.789762 L29.0205732,247.906619 C30.0957072,248.982628 30.9224416,250.324318 31.4078636,251.768484 L32.8792991,256.192075 C32.9437692,256.391336 33.0385782,256.577313 33.1599337,256.729131 C33.4803881,257.123857 33.9506407,257.347788 34.4512322,257.347788 C34.955616,257.347788 35.4258686,257.123857 35.746323,256.729131 C35.8657823,256.577313 35.9624875,256.391336 36.0269576,256.192075 L37.4983931,251.768484 C37.9838151,250.324318 38.8105495,248.982628 39.8856835,247.906619 L58.8095579,228.971146 C59.8771071,227.895137 61.2120177,227.06773 62.6682838,226.587607 L67.0825903,225.109281 C67.279793,225.046656 67.4599301,224.949872 67.617313,224.828418 C68.017407,224.507703 68.2468447,224.03517 68.2468447,223.536069 C68.2468447,223.031275 68.017407,222.556844 67.617313,222.236129 C67.4713072,222.124164 67.2911701,222.02738 67.078798,221.955266 L62.6682838,220.478838 C61.2233947,220.004408 59.8884842,219.177001 58.8095579,218.093401 L57.9392113,217.22804 C57.535325,216.825723 57.535325,216.167213 57.9392113,215.766794 C58.3412014,215.372068 59.0029682,215.364477 59.4030621,215.766794 L60.2696163,216.634053 C61.1323781,217.491823 62.1866541,218.142742 63.3205696,218.520389 L67.73298,219.996817 C68.1747899,220.133453 68.5710915,220.349793 68.9086115,220.623065 C69.8017122,221.338507 70.3117845,222.397436 70.3117845,223.536069 C70.3117845,224.532373 69.92686,225.462257 69.2252735,226.162517 C69.1209836,226.264994 69.0204861,226.361778 68.8991306,226.450971 C68.5710915,226.714754 68.1747899,226.932992 67.73298,227.06773 L63.3205696,228.546056 C62.175277,228.931294 61.1191049,229.580315 60.2696163,230.432392 L41.3438457,249.367866 C40.4905648,250.227534 39.8401751,251.278872 39.4647315,252.426994 L37.9913998,256.841096 C37.8397055,257.290856 37.6273333,257.683685 37.3618682,258.013889 C36.6526969,258.911511 35.5946286,259.425794 34.4550245,259.425794 Z M32.8394793,244.849389 C32.2687292,244.849389 31.8079575,244.382549 31.8079575,243.813232 L31.8079575,243.283768 L31.2789234,243.283768 C30.7100694,243.283768 30.2436092,242.818826 30.2436092,242.247611 C30.2436092,241.678295 30.7100694,241.213353 31.2789234,241.213353 L31.8079575,241.213353 L31.8079575,240.68199 C31.8079575,240.112674 32.2687292,239.647732 32.8394793,239.647732 C33.4083333,239.647732 33.8728973,240.112674 33.8728973,240.68199 L33.8728973,241.213353 L34.4019315,241.213353 C34.9726816,241.213353 35.4372457,241.678295 35.4372457,242.247611 C35.4372457,242.520883 35.3329558,242.769485 35.1376492,242.978235 C34.9442389,243.171802 34.6844623,243.283768 34.4019315,243.283768 L33.8728973,243.283768 L33.8728973,243.813232 C33.8728973,244.086504 33.7648151,244.350288 33.5695086,244.543855 C33.3798906,244.737423 33.1201139,244.849389 32.8394793,244.849389 Z M23.6107722,235.609379 C23.0419183,235.609379 22.5754581,235.144437 22.5754581,234.573222 L22.5754581,234.051349 L22.0464239,234.051349 C21.47757,234.051349 21.0130059,233.578816 21.0130059,233.009499 C21.0130059,232.438285 21.47757,231.973343 22.0464239,231.973343 L22.5754581,231.973343 L22.5754581,231.443878 C22.5754581,230.872664 23.0419183,230.407722 23.6107722,230.407722 C24.1796262,230.407722 24.6422941,230.872664 24.6422941,231.443878 L24.6422941,231.973343 L25.1713282,231.973343 C25.7401822,231.973343 26.2066424,232.438285 26.2066424,233.009499 C26.2066424,233.290362 26.0928716,233.554145 25.8975651,233.747713 C25.7117395,233.931792 25.4443781,234.051349 25.1713282,234.051349 L24.6422941,234.051349 L24.6422941,234.573222 C24.6422941,234.846494 24.5380042,235.104585 24.3445938,235.303845 C24.1492873,235.497413 23.8876145,235.609379 23.6107722,235.609379 Z M42.9973145,234.687086 C42.4284606,234.687086 41.9620003,234.220246 41.9620003,233.650929 L41.9620003,233.121465 L41.4329662,233.121465 C40.8641122,233.121465 40.4014444,232.654625 40.4014444,232.085308 C40.4014444,231.515992 40.8641122,231.041561 41.4329662,231.041561 L41.9620003,231.041561 L41.9620003,230.519687 C41.9620003,229.950371 42.4284606,229.485429 42.9973145,229.485429 C43.5661685,229.485429 44.0269401,229.950371 44.0269401,230.519687 L44.0269401,231.041561 L44.5578705,231.041561 C45.1267244,231.041561 45.5912885,231.515992 45.5912885,232.085308 C45.5912885,232.35858 45.4869986,232.614773 45.2954844,232.815931 C45.0869047,233.009499 44.8252318,233.121465 44.5616628,233.121465 L44.0326287,233.121465 L44.0326287,233.650929 C44.0326287,233.91661 43.9226503,234.180394 43.7311361,234.381552 C43.530141,234.573222 43.266572,234.687086 42.9973145,234.687086 Z M33.7648151,225.447076 C33.1959611,225.447076 32.7351894,224.982134 32.7351894,224.410919 L32.7351894,223.881455 L32.2042591,223.881455 C31.6354052,223.881455 31.1708411,223.416513 31.1708411,222.845298 C31.1708411,222.275981 31.6354052,221.811039 32.2042591,221.811039 L32.7351894,221.811039 L32.7351894,221.281575 C32.7351894,220.710361 33.1959611,220.245419 33.7648151,220.245419 C34.3355652,220.245419 34.8001292,220.710361 34.8001292,221.281575 L34.8001292,221.811039 L35.3291634,221.811039 C35.8980173,221.811039 36.3644776,222.275981 36.3644776,222.845298 C36.3644776,223.110979 36.2563953,223.37666 36.062985,223.575921 C35.8714708,223.769489 35.609798,223.881455 35.3291634,223.881455 L34.8001292,223.881455 L34.8001292,224.410919 C34.8001292,224.684191 34.692047,224.949872 34.4948443,225.141542 C34.3071225,225.33511 34.0454497,225.447076 33.7648151,225.447076 Z M53.1513573,224.522885 C52.5825034,224.522885 52.1198355,224.050352 52.1198355,223.481035 L52.1198355,222.959162 L51.5908014,222.959162 C51.0219474,222.959162 50.5573834,222.484731 50.5573834,221.915414 C50.5573834,221.346098 51.0219474,220.879258 51.5908014,220.879258 L52.1198355,220.879258 L52.1198355,220.357384 C52.1198355,219.788067 52.5825034,219.313637 53.1513573,219.313637 C53.7202113,219.313637 54.1866715,219.788067 54.1866715,220.357384 L54.1866715,220.879258 L54.7157057,220.879258 C55.2845596,220.879258 55.7491237,221.346098 55.7491237,221.915414 C55.7491237,222.196277 55.6410414,222.460061 55.4457349,222.653628 C55.2485322,222.845298 54.983067,222.959162 54.7157057,222.959162 L54.1866715,222.959162 L54.1866715,223.481035 C54.1866715,223.761898 54.0785893,224.025681 53.8851789,224.211658 C53.6879762,224.410919 53.4244072,224.522885 53.1513573,224.522885 Z M21.9516149,221.433393 C21.6861497,221.433393 21.4206846,221.338507 21.2215857,221.137348 C21.024383,220.94378 20.9200931,220.687588 20.9200931,220.406725 C20.9200931,220.125862 21.024383,219.867772 21.2215857,219.676102 L35.3727755,205.515298 C36.2279526,204.65563 36.8764461,203.604291 37.2537859,202.458067 L38.7252214,198.042067 C38.8750196,197.592307 39.0911841,197.199478 39.3680264,196.854093 C40.0335855,196.028584 41.019599,195.521892 42.0700826,195.46496 L42.27487,195.46496 C43.2457141,195.46496 44.1919078,195.850198 44.889702,196.54856 C45.2954844,196.958468 45.6083541,197.455671 45.7922835,198.002215 L47.2769923,202.458067 C47.6524359,203.604291 48.3028256,204.65563 49.1561065,205.515298 L57.0574877,213.423107 C57.2546904,213.614777 57.3627727,213.870969 57.3627727,214.15373 C57.3627727,214.425104 57.2546904,214.683194 57.0574877,214.882455 C56.6554976,215.284772 55.9994194,215.284772 55.5974293,214.882455 L47.6979442,206.976544 C46.6228103,205.900535 45.7960759,204.560743 45.3106539,203.114679 L43.8278413,198.660725 C43.7463055,198.419714 43.6097806,198.193885 43.4258511,198.009806 C43.1205662,197.70617 42.6958219,197.527784 42.2559082,197.527784 C42.2274655,197.527784 42.2028152,197.527784 42.1743725,197.537273 C41.694639,197.560046 41.2774794,197.776386 40.9759868,198.154033 C40.8603199,198.290669 40.7636147,198.484236 40.6915599,198.700577 L39.2201244,203.114679 C38.7347023,204.560743 37.9079679,205.900535 36.832834,206.976544 L22.6854365,221.137348 C22.4844414,221.338507 22.2189763,221.433393 21.9516149,221.433393 Z M43.9226503,215.284772 C43.3537963,215.284772 42.8892323,214.810342 42.8892323,214.241025 L42.8892323,213.719151 L42.3601981,213.719151 C41.789448,213.719151 41.3286763,213.254209 41.3286763,212.682995 C41.3286763,212.113678 41.789448,211.641145 42.3601981,211.641145 L42.8892323,211.641145 L42.8892323,211.119272 C42.8892323,210.548057 43.3537963,210.083115 43.9226503,210.083115 C44.4934004,210.083115 44.9541721,210.548057 44.9541721,211.119272 L44.9541721,211.641145 L45.4832062,211.641145 C46.0520602,211.641145 46.5185204,212.113678 46.5185204,212.682995 C46.5185204,212.956267 46.4142305,213.214357 46.2208202,213.413618 C46.0122404,213.607186 45.7524638,213.719151 45.4832062,213.719151 L44.9541721,213.719151 L44.9541721,214.241025 C44.9541721,214.521888 44.8498822,214.77808 44.6564718,214.979239 C44.457373,215.172807 44.1919078,215.284772 43.9226503,215.284772 Z M77.1130022,235.41676 C77.5130962,235.82477 77.5130962,236.475689 77.1130022,236.885597 L76.7356624,237.255653 L77.1092099,237.631402 C77.5130962,238.033719 77.5130962,238.692229 77.1092099,239.092648 C76.9082148,239.286216 76.6522305,239.398181 76.3791806,239.398181 C76.1023384,239.398181 75.8463541,239.286216 75.6453591,239.092648 L75.2718116,238.715001 L74.9001604,239.092648 C74.4943779,239.470295 73.8288188,239.470295 73.4363096,239.092648 C73.0305271,238.692229 73.0305271,238.033719 73.4363096,237.631402 L73.8079608,237.255653 L73.4363096,236.885597 C73.0305271,236.475689 73.0305271,235.82477 73.4306211,235.41676 C73.8401959,235.023931 74.4981703,235.01634 74.9001604,235.41676 L75.2718116,235.794407 L75.6453591,235.41676 C76.045453,235.023931 76.7072197,235.01634 77.1092099,235.41676 L77.1130022,235.41676 Z M62.2647767,215.726183 C61.6959228,215.726183 61.2294625,215.261241 61.2294625,214.690026 C61.2294625,214.120709 61.6959228,213.655767 62.2647767,213.655767 L74.290349,213.655767 C75.492527,213.655767 76.7003935,213.374905 77.7793198,212.828361 L81.9376421,210.748457 C82.379452,210.532117 82.8155734,210.404969 83.2365253,210.363219 C84.3002821,210.251254 85.3469734,210.596639 86.1206147,211.28741 C86.9056332,211.993363 87.3550278,213.004849 87.3550278,214.056187 C87.3550278,214.625504 87.2185028,215.204309 86.9625186,215.718592 L84.8653437,219.916354 C84.3230363,220.999953 84.0386093,222.212598 84.0386093,223.415754 L84.0386093,234.589543 C84.0386093,235.160757 83.5778376,235.63329 83.0089837,235.63329 C82.4382336,235.63329 81.9736695,235.160757 81.9736695,234.589543 L81.9736695,223.415754 C81.9736695,221.891882 82.3301513,220.358523 83.0127761,218.99406 L85.1137433,214.796299 C85.2256179,214.562879 85.2862956,214.312379 85.2862956,214.056187 C85.2862956,213.591245 85.0853006,213.141485 84.7401959,212.828361 C84.4273262,212.555089 84.0424017,212.403271 83.634723,212.403271 C83.5740453,212.403271 83.5133675,212.410862 83.4526898,212.410862 C83.2687603,212.435532 83.0715576,212.500055 82.8629779,212.604429 L78.7046556,214.682435 C77.3375099,215.365615 75.8129814,215.726183 74.290349,215.726183 L62.2647767,215.726183 Z M77.1090202,223.656954 C77.5148027,224.059271 77.5148027,224.715883 77.1090202,225.1182 L76.7316805,225.495847 L77.1090202,225.871596 C77.5053218,226.273913 77.5091142,226.924832 77.1128126,227.332842 C76.9080252,227.52641 76.6520409,227.638375 76.378991,227.638375 C76.1021488,227.638375 75.8461645,227.52641 75.6451694,227.332842 L75.271622,226.957093 L74.8999708,227.332842 C74.4941883,227.71808 73.8286292,227.710489 73.43612,227.332842 C73.0341299,226.924832 73.0379222,226.273913 73.43612,225.871596 L73.8134598,225.495847 L73.43612,225.1182 C73.0303375,224.715883 73.0303375,224.059271 73.43612,223.656954 C73.8362139,223.264125 74.4979807,223.256535 74.8999708,223.656954 L75.271622,224.034601 L75.6451694,223.656954 C76.0471596,223.264125 76.7089263,223.256535 77.1090202,223.656954 Z M84.8649645,242.633229 L86.9469699,246.798729 C87.1555497,247.216228 87.2825937,247.641318 87.3318944,248.068305 C87.4589384,249.206939 87.0702216,250.3228 86.2643452,251.125536 C85.5703434,251.823898 84.6355267,252.218624 83.6381362,252.218624 C83.4978188,252.218624 83.3575015,252.209136 83.2133919,252.186363 C82.8076094,252.144613 82.3828651,252.017466 81.9448476,251.808716 L77.7789406,249.721222 C76.707599,249.182268 75.5016286,248.903303 74.2899697,248.903303 L47.5291842,248.903303 C47.1442597,248.903303 46.8181168,248.798928 46.5905752,248.605361 C46.3782031,248.428873 46.2606399,248.180271 46.2606399,247.906999 C46.2606399,247.385125 46.7062422,246.8234 47.5291842,246.8234 L74.2899697,246.8234 C75.8144983,246.8234 77.3371307,247.183967 78.7042763,247.867147 L82.8682872,249.954641 C83.0598013,250.049528 83.2532117,250.11405 83.4447258,250.13872 C83.5091959,250.13872 83.573666,250.146311 83.6381362,250.146311 C84.0742575,250.146311 84.4914171,249.977414 84.8042867,249.66429 C85.1626647,249.303723 85.3295285,248.806519 85.2745393,248.299828 C85.2574737,248.115748 85.1986921,247.924078 85.0981946,247.730511 L83.0123968,243.555522 C82.3297721,242.191059 81.9732903,240.6577 81.9732903,239.141419 L81.9732903,237.913593 C81.9732903,237.344276 82.434062,236.869846 83.0048121,236.869846 C83.573666,236.869846 84.0382301,237.344276 84.0382301,237.913593 L84.0382301,239.141419 C84.0382301,240.346473 84.3226571,241.549629 84.8649645,242.633229 Z M59.4474327,237.255083 L59.0738853,236.886925 C58.6662067,236.47512 58.6662067,235.826099 59.0738853,235.416191 C59.4758754,235.015771 60.1338498,235.015771 60.5339438,235.416191 L60.9074912,235.793837 L61.284831,235.416191 C61.6849249,235.015771 62.3428993,235.015771 62.7448894,235.416191 C63.1525681,235.826099 63.1525681,236.47512 62.7448894,236.886925 L62.371342,237.255083 L62.7448894,237.63273 C62.9401959,237.8244 63.0482782,238.08249 63.0482782,238.363353 C63.0482782,238.644216 62.9401959,238.900409 62.7448894,239.093976 C62.5514791,239.285646 62.2917024,239.397612 62.0148602,239.397612 C61.7380179,239.397612 61.4763451,239.285646 61.284831,239.093976 L60.9074912,238.71633 L60.5339438,239.093976 C60.1490193,239.479214 59.4588098,239.479214 59.0738853,239.093976 C58.8785788,238.900409 58.7704966,238.644216 58.7704966,238.363353 C58.7704966,238.08249 58.8785788,237.8244 59.0738853,237.63273 L59.4474327,237.255083 Z" transform="translate(-6.001 -195)"/>
</svg>
